G75*
%MOIN*%
%OFA0B0*%
%FSLAX25Y25*%
%IPPOS*%
%LPD*%
%AMOC8*
5,1,8,0,0,1.08239X$1,22.5*
%
%ADD10C,0.05200*%
%ADD11R,0.03543X0.06299*%
%ADD12R,0.02362X0.03543*%
%ADD13R,0.03543X0.02362*%
%ADD14C,0.07000*%
%ADD15C,0.11811*%
%ADD16C,0.06000*%
%ADD17C,0.04000*%
%ADD18C,0.02000*%
%ADD19C,0.04700*%
%ADD20C,0.01600*%
%ADD21C,0.08250*%
%ADD22C,0.03000*%
D10*
X0114300Y0064200D02*
X0114300Y0069400D01*
X0124300Y0069400D02*
X0124300Y0064200D01*
X0134300Y0064200D02*
X0134300Y0069400D01*
X0144300Y0069400D02*
X0144300Y0064200D01*
X0144300Y0041900D02*
X0144300Y0036700D01*
X0134300Y0036700D02*
X0134300Y0041900D01*
X0124300Y0041900D02*
X0124300Y0036700D01*
X0124300Y0094200D02*
X0124300Y0099400D01*
X0114300Y0099400D02*
X0114300Y0094200D01*
X0134300Y0094200D02*
X0134300Y0099400D01*
X0144300Y0099400D02*
X0144300Y0094200D01*
X0144300Y0129200D02*
X0144300Y0134400D01*
X0154300Y0134400D02*
X0154300Y0129200D01*
X0164300Y0129200D02*
X0164300Y0134400D01*
X0174300Y0134400D02*
X0174300Y0129200D01*
X0194300Y0129200D02*
X0194300Y0134400D01*
X0204300Y0134400D02*
X0204300Y0129200D01*
X0214300Y0129200D02*
X0214300Y0134400D01*
X0224300Y0134400D02*
X0224300Y0129200D01*
X0264300Y0129200D02*
X0264300Y0134400D01*
X0274300Y0134400D02*
X0274300Y0129200D01*
X0284300Y0129200D02*
X0284300Y0134400D01*
X0294300Y0134400D02*
X0294300Y0129200D01*
X0314300Y0129200D02*
X0314300Y0134400D01*
X0324300Y0134400D02*
X0324300Y0129200D01*
X0334300Y0129200D02*
X0334300Y0134400D01*
X0344300Y0134400D02*
X0344300Y0129200D01*
X0364300Y0129200D02*
X0364300Y0134400D01*
X0374300Y0134400D02*
X0374300Y0129200D01*
X0384300Y0129200D02*
X0384300Y0134400D01*
X0394300Y0134400D02*
X0394300Y0129200D01*
X0414300Y0129200D02*
X0414300Y0134400D01*
X0424300Y0134400D02*
X0424300Y0129200D01*
X0434300Y0129200D02*
X0434300Y0134400D01*
X0444300Y0134400D02*
X0444300Y0129200D01*
X0444300Y0159200D02*
X0444300Y0164400D01*
X0434300Y0164400D02*
X0434300Y0159200D01*
X0424300Y0159200D02*
X0424300Y0164400D01*
X0414300Y0164400D02*
X0414300Y0159200D01*
X0394300Y0159200D02*
X0394300Y0164400D01*
X0384300Y0164400D02*
X0384300Y0159200D01*
X0374300Y0159200D02*
X0374300Y0164400D01*
X0364300Y0164400D02*
X0364300Y0159200D01*
X0344300Y0159200D02*
X0344300Y0164400D01*
X0334300Y0164400D02*
X0334300Y0159200D01*
X0324300Y0159200D02*
X0324300Y0164400D01*
X0314300Y0164400D02*
X0314300Y0159200D01*
X0294300Y0159200D02*
X0294300Y0164400D01*
X0284300Y0164400D02*
X0284300Y0159200D01*
X0274300Y0159200D02*
X0274300Y0164400D01*
X0264300Y0164400D02*
X0264300Y0159200D01*
X0224300Y0159200D02*
X0224300Y0164400D01*
X0214300Y0164400D02*
X0214300Y0159200D01*
X0204300Y0159200D02*
X0204300Y0164400D01*
X0194300Y0164400D02*
X0194300Y0159200D01*
X0174300Y0159200D02*
X0174300Y0164400D01*
X0164300Y0164400D02*
X0164300Y0159200D01*
X0154300Y0159200D02*
X0154300Y0164400D01*
X0144300Y0164400D02*
X0144300Y0159200D01*
X0124300Y0159200D02*
X0124300Y0164400D01*
X0114300Y0164400D02*
X0114300Y0159200D01*
X0104300Y0159200D02*
X0104300Y0164400D01*
X0094300Y0164400D02*
X0094300Y0159200D01*
X0074300Y0159200D02*
X0074300Y0164400D01*
X0064300Y0164400D02*
X0064300Y0159200D01*
X0054300Y0159200D02*
X0054300Y0164400D01*
X0044300Y0164400D02*
X0044300Y0159200D01*
X0044300Y0134400D02*
X0044300Y0129200D01*
X0054300Y0129200D02*
X0054300Y0134400D01*
X0064300Y0134400D02*
X0064300Y0129200D01*
X0074300Y0129200D02*
X0074300Y0134400D01*
X0094300Y0134400D02*
X0094300Y0129200D01*
X0104300Y0129200D02*
X0104300Y0134400D01*
X0114300Y0134400D02*
X0114300Y0129200D01*
X0124300Y0129200D02*
X0124300Y0134400D01*
X0334300Y0099400D02*
X0334300Y0094200D01*
X0344300Y0094200D02*
X0344300Y0099400D01*
X0354300Y0099400D02*
X0354300Y0094200D01*
X0364300Y0094200D02*
X0364300Y0099400D01*
X0364300Y0069400D02*
X0364300Y0064200D01*
X0354300Y0064200D02*
X0354300Y0069400D01*
X0344300Y0069400D02*
X0344300Y0064200D01*
X0334300Y0064200D02*
X0334300Y0069400D01*
X0344300Y0041900D02*
X0344300Y0036700D01*
X0354300Y0036700D02*
X0354300Y0041900D01*
X0364300Y0041900D02*
X0364300Y0036700D01*
D11*
X0347509Y0151800D03*
X0336091Y0151800D03*
X0295009Y0151800D03*
X0283591Y0151800D03*
X0203509Y0150800D03*
X0192091Y0150800D03*
X0177509Y0151800D03*
X0166091Y0151800D03*
X0127509Y0151800D03*
X0116091Y0151800D03*
X0075009Y0151800D03*
X0063591Y0151800D03*
X0386091Y0151800D03*
X0397509Y0151800D03*
X0436091Y0151800D03*
X0447509Y0151800D03*
D12*
X0433253Y0141800D03*
X0427347Y0141800D03*
X0384753Y0141800D03*
X0378847Y0141800D03*
X0334753Y0141800D03*
X0328847Y0141800D03*
X0283253Y0141800D03*
X0277347Y0141800D03*
X0164753Y0141800D03*
X0158847Y0141800D03*
X0114753Y0141800D03*
X0108847Y0141800D03*
X0062253Y0141800D03*
X0056347Y0141800D03*
X0126347Y0079300D03*
X0132253Y0079300D03*
X0346347Y0079300D03*
X0352253Y0079300D03*
D13*
X0344300Y0057253D03*
X0344300Y0051347D03*
X0324300Y0116347D03*
X0324300Y0122253D03*
X0374300Y0122253D03*
X0374300Y0116347D03*
X0424300Y0116347D03*
X0424300Y0122253D03*
X0274300Y0122253D03*
X0274300Y0116347D03*
X0212800Y0141347D03*
X0212800Y0147253D03*
X0204300Y0122253D03*
X0204300Y0116347D03*
X0154300Y0116347D03*
X0154300Y0122253D03*
X0104300Y0122253D03*
X0104300Y0116347D03*
X0054300Y0116347D03*
X0054300Y0122253D03*
X0124300Y0057253D03*
X0124300Y0051347D03*
D14*
X0198300Y0054300D02*
X0205300Y0054300D01*
X0205300Y0044300D02*
X0198300Y0044300D01*
X0278300Y0044300D02*
X0285300Y0044300D01*
X0285300Y0054300D02*
X0278300Y0054300D01*
X0265300Y0185800D02*
X0258300Y0185800D01*
X0258300Y0216800D02*
X0265300Y0216800D01*
X0358300Y0216800D02*
X0365300Y0216800D01*
X0365300Y0185800D02*
X0358300Y0185800D01*
X0165300Y0185800D02*
X0158300Y0185800D01*
X0158300Y0216800D02*
X0165300Y0216800D01*
X0065300Y0216800D02*
X0058300Y0216800D01*
X0058300Y0185800D02*
X0065300Y0185800D01*
D15*
X0081800Y0196800D03*
X0041800Y0236800D03*
X0141800Y0236800D03*
X0181800Y0196800D03*
X0241800Y0236800D03*
X0281800Y0196800D03*
X0341800Y0236800D03*
X0381800Y0196800D03*
X0261800Y0064300D03*
X0221800Y0024300D03*
X0181800Y0064300D03*
X0301800Y0024300D03*
D16*
X0054800Y0049300D02*
X0048800Y0049300D01*
X0048800Y0064300D02*
X0054800Y0064300D01*
X0054800Y0079300D02*
X0048800Y0079300D01*
X0048800Y0094300D02*
X0054800Y0094300D01*
D17*
X0051800Y0094300D02*
X0069300Y0094300D01*
X0081800Y0081800D01*
X0116800Y0081800D01*
X0124300Y0089300D01*
X0124300Y0096800D01*
X0134300Y0096800D02*
X0134300Y0109300D01*
X0114300Y0109300D01*
X0114300Y0131800D01*
X0116091Y0151800D02*
X0114300Y0153591D01*
X0114300Y0161800D01*
X0127509Y0151800D02*
X0131800Y0151800D01*
X0134300Y0154300D01*
X0134300Y0176800D01*
X0184300Y0176800D01*
X0193300Y0185800D01*
X0261800Y0185800D01*
X0238800Y0172800D02*
X0251800Y0159800D01*
X0251800Y0151800D01*
X0251800Y0141800D01*
X0248800Y0138800D01*
X0248800Y0126800D01*
X0248800Y0123800D01*
X0270800Y0101800D01*
X0314800Y0101800D01*
X0330800Y0085800D01*
X0340800Y0085800D01*
X0344300Y0089300D01*
X0344300Y0096800D01*
X0354300Y0096800D02*
X0354300Y0109300D01*
X0334300Y0109300D01*
X0334300Y0131800D01*
X0336091Y0151800D02*
X0334300Y0153591D01*
X0334300Y0161800D01*
X0347509Y0151800D02*
X0351800Y0151800D01*
X0354300Y0154300D01*
X0354300Y0176800D01*
X0354800Y0177300D01*
X0354800Y0182800D01*
X0357800Y0185800D01*
X0361800Y0185800D01*
X0354300Y0176800D02*
X0404300Y0176800D01*
X0451800Y0176800D01*
X0459300Y0169300D01*
X0459300Y0156800D01*
X0454300Y0151800D01*
X0447509Y0151800D01*
X0436091Y0151800D02*
X0434300Y0153591D01*
X0434300Y0161800D01*
X0404300Y0154300D02*
X0404300Y0176800D01*
X0384300Y0161800D02*
X0384300Y0153591D01*
X0386091Y0151800D01*
X0399300Y0151800D02*
X0401800Y0151800D01*
X0404300Y0154300D01*
X0384300Y0131800D02*
X0384300Y0109300D01*
X0431800Y0109300D01*
X0434300Y0111800D01*
X0434300Y0131800D01*
X0384300Y0109300D02*
X0354300Y0109300D01*
X0334300Y0109300D02*
X0294300Y0109300D01*
X0284300Y0121800D01*
X0284300Y0131800D01*
X0283591Y0151800D02*
X0284300Y0152509D01*
X0284300Y0161800D01*
X0274300Y0161800D02*
X0274300Y0154300D01*
X0271800Y0151800D01*
X0251800Y0151800D01*
X0238800Y0172800D02*
X0205800Y0172800D01*
X0204300Y0171300D01*
X0204300Y0161800D01*
X0192091Y0150800D02*
X0185300Y0150800D01*
X0183050Y0153050D01*
X0181800Y0151800D01*
X0179300Y0151800D01*
X0183050Y0153050D02*
X0184300Y0154300D01*
X0184300Y0176800D01*
X0164300Y0161800D02*
X0164300Y0153591D01*
X0166091Y0151800D01*
X0164300Y0131800D02*
X0164300Y0109300D01*
X0211800Y0109300D01*
X0214300Y0111800D01*
X0214300Y0131800D01*
X0164300Y0109300D02*
X0134300Y0109300D01*
X0114300Y0109300D02*
X0074300Y0109300D01*
X0064300Y0121800D01*
X0064300Y0131800D01*
X0063591Y0151800D02*
X0064300Y0152509D01*
X0064300Y0161800D01*
X0054300Y0161800D02*
X0054300Y0154300D01*
X0051800Y0151800D01*
X0031800Y0151800D01*
X0026800Y0146800D01*
X0026800Y0098800D01*
X0030800Y0094800D01*
X0051800Y0094300D01*
X0051800Y0049300D02*
X0052300Y0048800D01*
X0073800Y0048800D01*
X0109800Y0012800D01*
X0237800Y0012800D01*
X0245800Y0020800D01*
X0245800Y0025800D01*
X0281800Y0044300D02*
X0341800Y0044300D01*
X0344300Y0041800D01*
X0344300Y0039300D01*
X0344800Y0038800D01*
X0281800Y0044300D02*
X0201800Y0044300D01*
X0179300Y0044300D01*
X0176800Y0041800D01*
X0176800Y0031800D01*
X0166800Y0021800D01*
X0136800Y0021800D01*
X0124800Y0033800D01*
X0124800Y0038800D01*
X0124300Y0039300D01*
X0081800Y0151800D02*
X0075009Y0151800D01*
X0081800Y0151800D02*
X0084300Y0154300D01*
X0084300Y0176800D01*
X0134300Y0176800D01*
X0161800Y0216800D02*
X0061800Y0216800D01*
X0161800Y0216800D02*
X0261800Y0216800D01*
X0361800Y0216800D01*
X0354300Y0176800D02*
X0304300Y0176800D01*
X0304300Y0154300D01*
X0301800Y0151800D01*
X0295009Y0151800D01*
D18*
X0294300Y0151091D01*
X0283591Y0151800D02*
X0283253Y0151461D01*
X0283253Y0141800D01*
X0277347Y0141800D02*
X0274800Y0141800D01*
X0274300Y0141300D01*
X0274300Y0131800D01*
X0274300Y0122253D01*
X0324300Y0122253D02*
X0324300Y0131800D01*
X0324300Y0139300D01*
X0326800Y0141800D01*
X0328847Y0141800D01*
X0334753Y0141800D02*
X0336091Y0143139D01*
X0336091Y0151800D01*
X0346800Y0151091D02*
X0347509Y0151800D01*
X0374300Y0139300D02*
X0376800Y0141800D01*
X0378847Y0141800D01*
X0374300Y0139300D02*
X0374300Y0131800D01*
X0374300Y0122253D01*
X0384753Y0141800D02*
X0386800Y0141800D01*
X0387800Y0142800D01*
X0387800Y0145800D01*
X0385800Y0147800D01*
X0385800Y0151509D01*
X0386091Y0151800D01*
X0396800Y0151091D02*
X0397509Y0151800D01*
X0399300Y0151800D01*
X0424300Y0139300D02*
X0426800Y0141800D01*
X0427347Y0141800D01*
X0424300Y0139300D02*
X0424300Y0131800D01*
X0424300Y0122253D01*
X0433253Y0141800D02*
X0434800Y0141800D01*
X0435800Y0142800D01*
X0435800Y0151509D01*
X0436091Y0151800D01*
X0446800Y0151091D02*
X0447509Y0151800D01*
X0354300Y0096800D02*
X0354300Y0079300D01*
X0352253Y0079300D01*
X0346347Y0079300D02*
X0344300Y0079300D01*
X0344300Y0066800D01*
X0344300Y0057253D01*
X0344300Y0051347D02*
X0344300Y0041800D01*
X0354300Y0039300D02*
X0354300Y0054300D01*
X0354300Y0066800D01*
X0204300Y0122253D02*
X0204300Y0131800D01*
X0204800Y0132300D01*
X0177509Y0151800D02*
X0176800Y0151091D01*
X0156800Y0141800D02*
X0154300Y0139300D01*
X0154300Y0131800D01*
X0154300Y0122253D01*
X0134300Y0096800D02*
X0134300Y0079300D01*
X0132253Y0079300D01*
X0126347Y0079300D02*
X0124300Y0079300D01*
X0124300Y0066800D01*
X0124300Y0057253D01*
X0124300Y0051347D02*
X0124300Y0039300D01*
X0134300Y0039300D02*
X0134300Y0054300D01*
X0134300Y0066800D01*
X0104300Y0122253D02*
X0104300Y0131800D01*
X0104300Y0139300D01*
X0106800Y0141800D01*
X0108847Y0141800D01*
X0126800Y0151091D02*
X0127509Y0151800D01*
X0054300Y0131800D02*
X0054300Y0122253D01*
D19*
X0054300Y0111800D03*
X0094300Y0119300D03*
X0144300Y0119300D03*
X0194300Y0119300D03*
X0281300Y0112800D03*
X0318300Y0117300D03*
X0366300Y0117300D03*
X0414300Y0119300D03*
X0449300Y0071800D03*
X0369300Y0051800D03*
X0149300Y0051800D03*
D20*
X0023738Y0007758D02*
X0021733Y0006600D01*
X0461867Y0006600D01*
X0459862Y0007758D01*
X0457758Y0009862D01*
X0456270Y0012438D01*
X0455500Y0015312D01*
X0455500Y0018288D01*
X0456270Y0021162D01*
X0457758Y0023738D01*
X0459862Y0025842D01*
X0462438Y0027330D01*
X0465312Y0028100D01*
X0468288Y0028100D01*
X0471162Y0027330D01*
X0473738Y0025842D01*
X0475842Y0023738D01*
X0476921Y0021869D01*
X0476921Y0191800D01*
X0389693Y0191800D01*
X0389604Y0191585D01*
X0387014Y0188996D01*
X0383631Y0187594D01*
X0379969Y0187594D01*
X0376585Y0188996D01*
X0373996Y0191585D01*
X0373907Y0191800D01*
X0368584Y0191800D01*
X0369152Y0191565D01*
X0371065Y0189652D01*
X0372100Y0187153D01*
X0372100Y0184447D01*
X0371128Y0182100D01*
X0452854Y0182100D01*
X0454802Y0181293D01*
X0462302Y0173793D01*
X0463793Y0172302D01*
X0464600Y0170354D01*
X0464600Y0155746D01*
X0463793Y0153798D01*
X0458793Y0148798D01*
X0457302Y0147307D01*
X0455354Y0146500D01*
X0451797Y0146500D01*
X0451150Y0145853D01*
X0449937Y0145350D01*
X0445081Y0145350D01*
X0443868Y0145853D01*
X0442939Y0146781D01*
X0442849Y0147000D01*
X0440751Y0147000D01*
X0440661Y0146781D01*
X0440100Y0146221D01*
X0440100Y0141945D01*
X0439445Y0140364D01*
X0438236Y0139155D01*
X0438062Y0138981D01*
X0439300Y0137744D01*
X0440958Y0139402D01*
X0443126Y0140300D01*
X0445474Y0140300D01*
X0447642Y0139402D01*
X0449302Y0137742D01*
X0450200Y0135574D01*
X0450200Y0128026D01*
X0449302Y0125858D01*
X0447642Y0124198D01*
X0445474Y0123300D01*
X0443126Y0123300D01*
X0440958Y0124198D01*
X0439600Y0125556D01*
X0439600Y0110746D01*
X0438793Y0108798D01*
X0436293Y0106298D01*
X0434802Y0104807D01*
X0432854Y0104000D01*
X0368044Y0104000D01*
X0369302Y0102742D01*
X0370200Y0100574D01*
X0370200Y0093026D01*
X0369302Y0090858D01*
X0367642Y0089198D01*
X0365474Y0088300D01*
X0363126Y0088300D01*
X0360958Y0089198D01*
X0359300Y0090856D01*
X0358600Y0090156D01*
X0358600Y0078445D01*
X0357945Y0076864D01*
X0356736Y0075655D01*
X0355867Y0075295D01*
X0355756Y0075183D01*
X0357642Y0074402D01*
X0359300Y0072744D01*
X0360958Y0074402D01*
X0363126Y0075300D01*
X0365474Y0075300D01*
X0367642Y0074402D01*
X0369302Y0072742D01*
X0370200Y0070574D01*
X0370200Y0063026D01*
X0369302Y0060858D01*
X0367642Y0059198D01*
X0365474Y0058300D01*
X0363126Y0058300D01*
X0360958Y0059198D01*
X0359300Y0060856D01*
X0358600Y0060156D01*
X0358600Y0045944D01*
X0359302Y0045242D01*
X0360119Y0043270D01*
X0360222Y0043589D01*
X0360537Y0044206D01*
X0360944Y0044766D01*
X0361434Y0045256D01*
X0361994Y0045663D01*
X0362611Y0045978D01*
X0363270Y0046192D01*
X0363954Y0046300D01*
X0364300Y0046300D01*
X0364300Y0039300D01*
X0364300Y0039300D01*
X0368700Y0039300D01*
X0368700Y0042246D01*
X0368592Y0042930D01*
X0368378Y0043589D01*
X0368063Y0044206D01*
X0367656Y0044766D01*
X0367166Y0045256D01*
X0366606Y0045663D01*
X0365989Y0045978D01*
X0365330Y0046192D01*
X0364646Y0046300D01*
X0364300Y0046300D01*
X0364300Y0039300D01*
X0364300Y0039300D01*
X0368700Y0039300D01*
X0368700Y0036354D01*
X0368592Y0035670D01*
X0368378Y0035011D01*
X0368063Y0034394D01*
X0367656Y0033834D01*
X0367166Y0033344D01*
X0366606Y0032937D01*
X0365989Y0032622D01*
X0365330Y0032408D01*
X0364646Y0032300D01*
X0364300Y0032300D01*
X0364300Y0039300D01*
X0364300Y0039300D01*
X0364300Y0032300D01*
X0363954Y0032300D01*
X0363270Y0032408D01*
X0362611Y0032622D01*
X0361994Y0032937D01*
X0361434Y0033344D01*
X0360944Y0033834D01*
X0360537Y0034394D01*
X0360222Y0035011D01*
X0360119Y0035330D01*
X0359302Y0033358D01*
X0357642Y0031698D01*
X0355474Y0030800D01*
X0353126Y0030800D01*
X0350958Y0031698D01*
X0349300Y0033356D01*
X0347642Y0031698D01*
X0345474Y0030800D01*
X0343126Y0030800D01*
X0340958Y0031698D01*
X0339298Y0033358D01*
X0338400Y0035526D01*
X0338400Y0039000D01*
X0289617Y0039000D01*
X0289152Y0038535D01*
X0286653Y0037500D01*
X0276947Y0037500D01*
X0274448Y0038535D01*
X0273983Y0039000D01*
X0209617Y0039000D01*
X0209152Y0038535D01*
X0206653Y0037500D01*
X0196947Y0037500D01*
X0194448Y0038535D01*
X0193983Y0039000D01*
X0182100Y0039000D01*
X0182100Y0030746D01*
X0181293Y0028798D01*
X0171293Y0018798D01*
X0170595Y0018100D01*
X0214981Y0018100D01*
X0213996Y0019085D01*
X0212594Y0022469D01*
X0212594Y0026131D01*
X0213996Y0029514D01*
X0216585Y0032104D01*
X0219969Y0033505D01*
X0223631Y0033505D01*
X0227014Y0032104D01*
X0229604Y0029514D01*
X0231005Y0026131D01*
X0231005Y0022469D01*
X0229604Y0019085D01*
X0228619Y0018100D01*
X0235605Y0018100D01*
X0239386Y0021882D01*
X0238375Y0024323D01*
X0238375Y0027277D01*
X0239505Y0030006D01*
X0241594Y0032095D01*
X0244323Y0033225D01*
X0247277Y0033225D01*
X0250006Y0032095D01*
X0252095Y0030006D01*
X0253225Y0027277D01*
X0253225Y0024323D01*
X0252095Y0021594D01*
X0251100Y0020599D01*
X0251100Y0019746D01*
X0250293Y0017798D01*
X0248802Y0016307D01*
X0248802Y0016307D01*
X0242293Y0009798D01*
X0242293Y0009798D01*
X0240802Y0008307D01*
X0238854Y0007500D01*
X0108746Y0007500D01*
X0106798Y0008307D01*
X0105307Y0009798D01*
X0071605Y0043500D01*
X0057260Y0043500D01*
X0056053Y0043000D01*
X0047547Y0043000D01*
X0045231Y0043959D01*
X0043459Y0045731D01*
X0042500Y0048047D01*
X0042500Y0050553D01*
X0043459Y0052869D01*
X0045231Y0054641D01*
X0047547Y0055600D01*
X0056053Y0055600D01*
X0058369Y0054641D01*
X0058910Y0054100D01*
X0074854Y0054100D01*
X0076802Y0053293D01*
X0111995Y0018100D01*
X0133005Y0018100D01*
X0121798Y0029307D01*
X0120307Y0030798D01*
X0119500Y0032746D01*
X0119500Y0033156D01*
X0119298Y0033358D01*
X0118400Y0035526D01*
X0118400Y0043074D01*
X0119298Y0045242D01*
X0120000Y0045944D01*
X0120000Y0048028D01*
X0119731Y0048297D01*
X0119228Y0049510D01*
X0119228Y0053185D01*
X0119690Y0054300D01*
X0119228Y0055415D01*
X0119228Y0059090D01*
X0119731Y0060303D01*
X0119792Y0060364D01*
X0119300Y0060856D01*
X0117642Y0059198D01*
X0115474Y0058300D01*
X0113126Y0058300D01*
X0110958Y0059198D01*
X0109298Y0060858D01*
X0108400Y0063026D01*
X0108400Y0070574D01*
X0109298Y0072742D01*
X0110958Y0074402D01*
X0113126Y0075300D01*
X0115474Y0075300D01*
X0117642Y0074402D01*
X0119300Y0072744D01*
X0120000Y0073444D01*
X0120000Y0077505D01*
X0119802Y0077307D01*
X0117854Y0076500D01*
X0080746Y0076500D01*
X0078798Y0077307D01*
X0067105Y0089000D01*
X0058410Y0089000D01*
X0058369Y0088959D01*
X0056053Y0088000D01*
X0047547Y0088000D01*
X0045231Y0088959D01*
X0045031Y0089160D01*
X0030737Y0089500D01*
X0029746Y0089500D01*
X0029685Y0089525D01*
X0029620Y0089527D01*
X0028714Y0089928D01*
X0027798Y0090307D01*
X0027752Y0090353D01*
X0027692Y0090380D01*
X0027008Y0091097D01*
X0023798Y0094307D01*
X0022307Y0095798D01*
X0021500Y0097746D01*
X0021500Y0147854D01*
X0022307Y0149802D01*
X0023798Y0151293D01*
X0023798Y0151293D01*
X0028798Y0156293D01*
X0030746Y0157100D01*
X0038784Y0157100D01*
X0038400Y0158026D01*
X0038400Y0165574D01*
X0039298Y0167742D01*
X0040958Y0169402D01*
X0043126Y0170300D01*
X0045474Y0170300D01*
X0047642Y0169402D01*
X0049300Y0167744D01*
X0050958Y0169402D01*
X0053126Y0170300D01*
X0055474Y0170300D01*
X0057642Y0169402D01*
X0059300Y0167744D01*
X0060958Y0169402D01*
X0063126Y0170300D01*
X0065474Y0170300D01*
X0067642Y0169402D01*
X0069300Y0167744D01*
X0070958Y0169402D01*
X0073126Y0170300D01*
X0075474Y0170300D01*
X0077642Y0169402D01*
X0079000Y0168044D01*
X0079000Y0177854D01*
X0079807Y0179802D01*
X0081298Y0181293D01*
X0083246Y0182100D01*
X0133246Y0182100D01*
X0154505Y0182100D01*
X0154257Y0182347D01*
X0153767Y0183022D01*
X0153388Y0183766D01*
X0153130Y0184559D01*
X0153000Y0185383D01*
X0153000Y0185616D01*
X0161616Y0185616D01*
X0161616Y0185984D01*
X0153000Y0185984D01*
X0153000Y0186217D01*
X0153130Y0187041D01*
X0153388Y0187834D01*
X0153767Y0188578D01*
X0154257Y0189253D01*
X0154847Y0189843D01*
X0155522Y0190333D01*
X0156266Y0190712D01*
X0157059Y0190969D01*
X0157883Y0191100D01*
X0161616Y0191100D01*
X0161616Y0185984D01*
X0161984Y0185984D01*
X0161984Y0191100D01*
X0165717Y0191100D01*
X0166541Y0190969D01*
X0167334Y0190712D01*
X0168078Y0190333D01*
X0168753Y0189843D01*
X0169343Y0189253D01*
X0169833Y0188578D01*
X0170212Y0187834D01*
X0170469Y0187041D01*
X0170600Y0186217D01*
X0170600Y0185984D01*
X0161984Y0185984D01*
X0161984Y0185616D01*
X0170600Y0185616D01*
X0170600Y0185383D01*
X0170469Y0184559D01*
X0170212Y0183766D01*
X0169833Y0183022D01*
X0169343Y0182347D01*
X0169095Y0182100D01*
X0182105Y0182100D01*
X0190298Y0190293D01*
X0192246Y0191100D01*
X0253983Y0191100D01*
X0254448Y0191565D01*
X0255016Y0191800D01*
X0189693Y0191800D01*
X0189604Y0191585D01*
X0187014Y0188996D01*
X0183631Y0187594D01*
X0179969Y0187594D01*
X0176585Y0188996D01*
X0173996Y0191585D01*
X0173907Y0191800D01*
X0089693Y0191800D01*
X0089604Y0191585D01*
X0087014Y0188996D01*
X0083631Y0187594D01*
X0079969Y0187594D01*
X0076585Y0188996D01*
X0073996Y0191585D01*
X0073907Y0191800D01*
X0006600Y0191800D01*
X0006600Y0021733D01*
X0007758Y0023738D01*
X0009862Y0025842D01*
X0012438Y0027330D01*
X0015312Y0028100D01*
X0018288Y0028100D01*
X0021162Y0027330D01*
X0023738Y0025842D01*
X0025842Y0023738D01*
X0027330Y0021162D01*
X0028100Y0018288D01*
X0028100Y0015312D01*
X0027330Y0012438D01*
X0025842Y0009862D01*
X0023738Y0007758D01*
X0024175Y0008194D02*
X0107070Y0008194D01*
X0105312Y0009793D02*
X0025773Y0009793D01*
X0026725Y0011391D02*
X0103714Y0011391D01*
X0102115Y0012990D02*
X0027478Y0012990D01*
X0027906Y0014588D02*
X0100517Y0014588D01*
X0098918Y0016187D02*
X0028100Y0016187D01*
X0028100Y0017785D02*
X0097320Y0017785D01*
X0095721Y0019384D02*
X0027806Y0019384D01*
X0027378Y0020982D02*
X0094123Y0020982D01*
X0092524Y0022581D02*
X0026511Y0022581D01*
X0025401Y0024179D02*
X0090926Y0024179D01*
X0089327Y0025778D02*
X0023803Y0025778D01*
X0020989Y0027376D02*
X0087728Y0027376D01*
X0086130Y0028975D02*
X0006600Y0028975D01*
X0006600Y0030573D02*
X0084531Y0030573D01*
X0082933Y0032172D02*
X0006600Y0032172D01*
X0006600Y0033770D02*
X0081334Y0033770D01*
X0079736Y0035369D02*
X0006600Y0035369D01*
X0006600Y0036967D02*
X0078137Y0036967D01*
X0076539Y0038566D02*
X0006600Y0038566D01*
X0006600Y0040164D02*
X0074940Y0040164D01*
X0073342Y0041763D02*
X0006600Y0041763D01*
X0006600Y0043361D02*
X0046675Y0043361D01*
X0044231Y0044960D02*
X0006600Y0044960D01*
X0006600Y0046558D02*
X0043117Y0046558D01*
X0042500Y0048157D02*
X0006600Y0048157D01*
X0006600Y0049755D02*
X0042500Y0049755D01*
X0042832Y0051354D02*
X0006600Y0051354D01*
X0006600Y0052952D02*
X0043543Y0052952D01*
X0045141Y0054551D02*
X0006600Y0054551D01*
X0006600Y0056149D02*
X0119228Y0056149D01*
X0119228Y0057748D02*
X0006600Y0057748D01*
X0006600Y0059346D02*
X0110810Y0059346D01*
X0109262Y0060945D02*
X0058233Y0060945D01*
X0058461Y0061173D02*
X0058905Y0061784D01*
X0059248Y0062457D01*
X0059482Y0063176D01*
X0059600Y0063922D01*
X0059600Y0064100D01*
X0052000Y0064100D01*
X0052000Y0064500D01*
X0051600Y0064500D01*
X0051600Y0069100D01*
X0048422Y0069100D01*
X0047676Y0068982D01*
X0046957Y0068748D01*
X0046284Y0068405D01*
X0045673Y0067961D01*
X0045139Y0067427D01*
X0044695Y0066816D01*
X0044352Y0066143D01*
X0044118Y0065424D01*
X0044000Y0064678D01*
X0044000Y0064500D01*
X0051600Y0064500D01*
X0051600Y0064100D01*
X0052000Y0064100D01*
X0052000Y0059500D01*
X0055178Y0059500D01*
X0055924Y0059618D01*
X0056643Y0059852D01*
X0057316Y0060195D01*
X0057927Y0060639D01*
X0058461Y0061173D01*
X0059276Y0062543D02*
X0108600Y0062543D01*
X0108400Y0064142D02*
X0052000Y0064142D01*
X0052000Y0064500D02*
X0059600Y0064500D01*
X0059600Y0064678D01*
X0059482Y0065424D01*
X0059248Y0066143D01*
X0058905Y0066816D01*
X0058461Y0067427D01*
X0057927Y0067961D01*
X0057316Y0068405D01*
X0056643Y0068748D01*
X0055924Y0068982D01*
X0055178Y0069100D01*
X0052000Y0069100D01*
X0052000Y0064500D01*
X0051600Y0064142D02*
X0006600Y0064142D01*
X0006600Y0065740D02*
X0044221Y0065740D01*
X0044000Y0064100D02*
X0044000Y0063922D01*
X0044118Y0063176D01*
X0044352Y0062457D01*
X0044695Y0061784D01*
X0045139Y0061173D01*
X0045673Y0060639D01*
X0046284Y0060195D01*
X0046957Y0059852D01*
X0047676Y0059618D01*
X0048422Y0059500D01*
X0051600Y0059500D01*
X0051600Y0064100D01*
X0044000Y0064100D01*
X0044324Y0062543D02*
X0006600Y0062543D01*
X0006600Y0060945D02*
X0045367Y0060945D01*
X0051600Y0060945D02*
X0052000Y0060945D01*
X0052000Y0062543D02*
X0051600Y0062543D01*
X0051600Y0065740D02*
X0052000Y0065740D01*
X0052000Y0067339D02*
X0051600Y0067339D01*
X0051600Y0068937D02*
X0052000Y0068937D01*
X0056060Y0068937D02*
X0108400Y0068937D01*
X0108400Y0067339D02*
X0058525Y0067339D01*
X0059379Y0065740D02*
X0108400Y0065740D01*
X0108400Y0070536D02*
X0006600Y0070536D01*
X0006600Y0072134D02*
X0109047Y0072134D01*
X0110289Y0073733D02*
X0006600Y0073733D01*
X0006600Y0075332D02*
X0046096Y0075332D01*
X0046284Y0075195D02*
X0046957Y0074852D01*
X0047676Y0074618D01*
X0048422Y0074500D01*
X0051600Y0074500D01*
X0051600Y0079100D01*
X0052000Y0079100D01*
X0052000Y0079500D01*
X0051600Y0079500D01*
X0051600Y0084100D01*
X0048422Y0084100D01*
X0047676Y0083982D01*
X0046957Y0083748D01*
X0046284Y0083405D01*
X0045673Y0082961D01*
X0045139Y0082427D01*
X0044695Y0081816D01*
X0044352Y0081143D01*
X0044118Y0080424D01*
X0044000Y0079678D01*
X0044000Y0079500D01*
X0051600Y0079500D01*
X0051600Y0079100D01*
X0044000Y0079100D01*
X0044000Y0078922D01*
X0044118Y0078176D01*
X0044352Y0077457D01*
X0044695Y0076784D01*
X0045139Y0076173D01*
X0045673Y0075639D01*
X0046284Y0075195D01*
X0044620Y0076930D02*
X0006600Y0076930D01*
X0006600Y0078529D02*
X0044062Y0078529D01*
X0044071Y0080127D02*
X0006600Y0080127D01*
X0006600Y0081726D02*
X0044649Y0081726D01*
X0046172Y0083324D02*
X0006600Y0083324D01*
X0006600Y0084923D02*
X0071182Y0084923D01*
X0069584Y0086521D02*
X0006600Y0086521D01*
X0006600Y0088120D02*
X0047258Y0088120D01*
X0052000Y0084100D02*
X0052000Y0079500D01*
X0059600Y0079500D01*
X0059600Y0079678D01*
X0059482Y0080424D01*
X0059248Y0081143D01*
X0058905Y0081816D01*
X0058461Y0082427D01*
X0057927Y0082961D01*
X0057316Y0083405D01*
X0056643Y0083748D01*
X0055924Y0083982D01*
X0055178Y0084100D01*
X0052000Y0084100D01*
X0052000Y0083324D02*
X0051600Y0083324D01*
X0051600Y0081726D02*
X0052000Y0081726D01*
X0052000Y0080127D02*
X0051600Y0080127D01*
X0052000Y0079100D02*
X0059600Y0079100D01*
X0059600Y0078922D01*
X0059482Y0078176D01*
X0059248Y0077457D01*
X0058905Y0076784D01*
X0058461Y0076173D01*
X0057927Y0075639D01*
X0057316Y0075195D01*
X0056643Y0074852D01*
X0055924Y0074618D01*
X0055178Y0074500D01*
X0052000Y0074500D01*
X0052000Y0079100D01*
X0052000Y0078529D02*
X0051600Y0078529D01*
X0051600Y0076930D02*
X0052000Y0076930D01*
X0052000Y0075332D02*
X0051600Y0075332D01*
X0057504Y0075332D02*
X0120000Y0075332D01*
X0120000Y0076930D02*
X0118892Y0076930D01*
X0118311Y0073733D02*
X0120000Y0073733D01*
X0135756Y0075183D02*
X0137642Y0074402D01*
X0139300Y0072744D01*
X0140958Y0074402D01*
X0143126Y0075300D01*
X0145474Y0075300D01*
X0147642Y0074402D01*
X0149302Y0072742D01*
X0150200Y0070574D01*
X0150200Y0063026D01*
X0149302Y0060858D01*
X0147642Y0059198D01*
X0145474Y0058300D01*
X0143126Y0058300D01*
X0140958Y0059198D01*
X0139300Y0060856D01*
X0138600Y0060156D01*
X0138600Y0045944D01*
X0139302Y0045242D01*
X0140119Y0043270D01*
X0140222Y0043589D01*
X0140537Y0044206D01*
X0140944Y0044766D01*
X0141434Y0045256D01*
X0141994Y0045663D01*
X0142611Y0045978D01*
X0143270Y0046192D01*
X0143954Y0046300D01*
X0144300Y0046300D01*
X0144300Y0039300D01*
X0144300Y0039300D01*
X0148700Y0039300D01*
X0148700Y0042246D01*
X0148592Y0042930D01*
X0148378Y0043589D01*
X0148063Y0044206D01*
X0147656Y0044766D01*
X0147166Y0045256D01*
X0146606Y0045663D01*
X0145989Y0045978D01*
X0145330Y0046192D01*
X0144646Y0046300D01*
X0144300Y0046300D01*
X0144300Y0039300D01*
X0144300Y0039300D01*
X0148700Y0039300D01*
X0148700Y0036354D01*
X0148592Y0035670D01*
X0148378Y0035011D01*
X0148063Y0034394D01*
X0147656Y0033834D01*
X0147166Y0033344D01*
X0146606Y0032937D01*
X0145989Y0032622D01*
X0145330Y0032408D01*
X0144646Y0032300D01*
X0144300Y0032300D01*
X0144300Y0039300D01*
X0144300Y0039300D01*
X0144300Y0032300D01*
X0143954Y0032300D01*
X0143270Y0032408D01*
X0142611Y0032622D01*
X0141994Y0032937D01*
X0141434Y0033344D01*
X0140944Y0033834D01*
X0140537Y0034394D01*
X0140222Y0035011D01*
X0140119Y0035330D01*
X0139302Y0033358D01*
X0137642Y0031698D01*
X0135474Y0030800D01*
X0135295Y0030800D01*
X0138995Y0027100D01*
X0164605Y0027100D01*
X0171500Y0033995D01*
X0171500Y0042854D01*
X0172307Y0044802D01*
X0173798Y0046293D01*
X0176298Y0048793D01*
X0178246Y0049600D01*
X0193983Y0049600D01*
X0194448Y0050065D01*
X0194871Y0050240D01*
X0194847Y0050257D01*
X0194257Y0050847D01*
X0193767Y0051522D01*
X0193388Y0052266D01*
X0193130Y0053059D01*
X0193000Y0053883D01*
X0193000Y0054116D01*
X0201616Y0054116D01*
X0201616Y0054484D01*
X0193000Y0054484D01*
X0193000Y0054717D01*
X0193130Y0055541D01*
X0193388Y0056334D01*
X0193767Y0057078D01*
X0194257Y0057753D01*
X0194847Y0058343D01*
X0195522Y0058833D01*
X0196266Y0059212D01*
X0197059Y0059469D01*
X0197883Y0059600D01*
X0201616Y0059600D01*
X0201616Y0054484D01*
X0201984Y0054484D01*
X0201984Y0059600D01*
X0205717Y0059600D01*
X0206541Y0059469D01*
X0207334Y0059212D01*
X0208078Y0058833D01*
X0208753Y0058343D01*
X0209343Y0057753D01*
X0209833Y0057078D01*
X0210212Y0056334D01*
X0210469Y0055541D01*
X0210600Y0054717D01*
X0210600Y0054484D01*
X0201984Y0054484D01*
X0201984Y0054116D01*
X0210600Y0054116D01*
X0210600Y0053883D01*
X0210469Y0053059D01*
X0210212Y0052266D01*
X0209833Y0051522D01*
X0209343Y0050847D01*
X0208753Y0050257D01*
X0208729Y0050240D01*
X0209152Y0050065D01*
X0209617Y0049600D01*
X0273983Y0049600D01*
X0274448Y0050065D01*
X0274871Y0050240D01*
X0274847Y0050257D01*
X0274257Y0050847D01*
X0273767Y0051522D01*
X0273388Y0052266D01*
X0273130Y0053059D01*
X0273000Y0053883D01*
X0273000Y0054116D01*
X0281616Y0054116D01*
X0281616Y0054484D01*
X0273000Y0054484D01*
X0273000Y0054717D01*
X0273130Y0055541D01*
X0273388Y0056334D01*
X0273767Y0057078D01*
X0274257Y0057753D01*
X0274847Y0058343D01*
X0275522Y0058833D01*
X0276266Y0059212D01*
X0277059Y0059469D01*
X0277883Y0059600D01*
X0281616Y0059600D01*
X0281616Y0054484D01*
X0281984Y0054484D01*
X0281984Y0059600D01*
X0285717Y0059600D01*
X0286541Y0059469D01*
X0287334Y0059212D01*
X0288078Y0058833D01*
X0288753Y0058343D01*
X0289343Y0057753D01*
X0289833Y0057078D01*
X0290212Y0056334D01*
X0290469Y0055541D01*
X0290600Y0054717D01*
X0290600Y0054484D01*
X0281984Y0054484D01*
X0281984Y0054116D01*
X0290600Y0054116D01*
X0290600Y0053883D01*
X0290469Y0053059D01*
X0290212Y0052266D01*
X0289833Y0051522D01*
X0289343Y0050847D01*
X0288753Y0050257D01*
X0288729Y0050240D01*
X0289152Y0050065D01*
X0289617Y0049600D01*
X0339228Y0049600D01*
X0339228Y0053185D01*
X0339690Y0054300D01*
X0339228Y0055415D01*
X0339228Y0059090D01*
X0339731Y0060303D01*
X0339792Y0060364D01*
X0339300Y0060856D01*
X0337642Y0059198D01*
X0335474Y0058300D01*
X0333126Y0058300D01*
X0330958Y0059198D01*
X0329298Y0060858D01*
X0328400Y0063026D01*
X0328400Y0070574D01*
X0329298Y0072742D01*
X0330958Y0074402D01*
X0333126Y0075300D01*
X0335474Y0075300D01*
X0337642Y0074402D01*
X0339300Y0072744D01*
X0340000Y0073444D01*
X0340000Y0080155D01*
X0340143Y0080500D01*
X0329746Y0080500D01*
X0327798Y0081307D01*
X0312605Y0096500D01*
X0269746Y0096500D01*
X0267798Y0097307D01*
X0244603Y0120502D01*
X0244594Y0120505D01*
X0242505Y0122594D01*
X0241375Y0125323D01*
X0241375Y0128277D01*
X0242505Y0131006D01*
X0243500Y0132001D01*
X0243500Y0139854D01*
X0244307Y0141802D01*
X0245798Y0143293D01*
X0246500Y0143995D01*
X0246500Y0157605D01*
X0236605Y0167500D01*
X0229402Y0167500D01*
X0230200Y0165574D01*
X0230200Y0158026D01*
X0229302Y0155858D01*
X0227642Y0154198D01*
X0225474Y0153300D01*
X0223126Y0153300D01*
X0220958Y0154198D01*
X0219300Y0155856D01*
X0218600Y0155156D01*
X0218600Y0154845D01*
X0217869Y0153081D01*
X0216519Y0151731D01*
X0216462Y0151674D01*
X0216789Y0150883D01*
X0217369Y0150303D01*
X0217872Y0149090D01*
X0217872Y0145415D01*
X0217410Y0144300D01*
X0217872Y0143185D01*
X0217872Y0139510D01*
X0217773Y0139271D01*
X0219300Y0137744D01*
X0220958Y0139402D01*
X0223126Y0140300D01*
X0225474Y0140300D01*
X0227642Y0139402D01*
X0229302Y0137742D01*
X0230200Y0135574D01*
X0230200Y0128026D01*
X0229302Y0125858D01*
X0227642Y0124198D01*
X0225474Y0123300D01*
X0223126Y0123300D01*
X0220958Y0124198D01*
X0219600Y0125556D01*
X0219600Y0110746D01*
X0218793Y0108798D01*
X0217302Y0107307D01*
X0216293Y0106298D01*
X0216293Y0106298D01*
X0214802Y0104807D01*
X0212854Y0104000D01*
X0148044Y0104000D01*
X0149302Y0102742D01*
X0150200Y0100574D01*
X0150200Y0093026D01*
X0149302Y0090858D01*
X0147642Y0089198D01*
X0145474Y0088300D01*
X0143126Y0088300D01*
X0140958Y0089198D01*
X0139300Y0090856D01*
X0138600Y0090156D01*
X0138600Y0078445D01*
X0137945Y0076864D01*
X0136736Y0075655D01*
X0135867Y0075295D01*
X0135756Y0075183D01*
X0135956Y0075332D02*
X0340000Y0075332D01*
X0340000Y0076930D02*
X0137973Y0076930D01*
X0138600Y0078529D02*
X0340000Y0078529D01*
X0340000Y0080127D02*
X0138600Y0080127D01*
X0138600Y0081726D02*
X0327379Y0081726D01*
X0325781Y0083324D02*
X0138600Y0083324D01*
X0138600Y0084923D02*
X0324182Y0084923D01*
X0322584Y0086521D02*
X0138600Y0086521D01*
X0138600Y0088120D02*
X0320985Y0088120D01*
X0319387Y0089718D02*
X0148162Y0089718D01*
X0149492Y0091317D02*
X0317788Y0091317D01*
X0316190Y0092915D02*
X0150154Y0092915D01*
X0150200Y0094514D02*
X0314591Y0094514D01*
X0312992Y0096112D02*
X0150200Y0096112D01*
X0150200Y0097711D02*
X0267394Y0097711D01*
X0265795Y0099309D02*
X0150200Y0099309D01*
X0150062Y0100908D02*
X0264197Y0100908D01*
X0262598Y0102506D02*
X0149399Y0102506D01*
X0150817Y0114600D02*
X0119600Y0114600D01*
X0119600Y0125556D01*
X0120958Y0124198D01*
X0123126Y0123300D01*
X0125474Y0123300D01*
X0127642Y0124198D01*
X0129302Y0125858D01*
X0130200Y0128026D01*
X0130200Y0135574D01*
X0129302Y0137742D01*
X0127642Y0139402D01*
X0125474Y0140300D01*
X0123126Y0140300D01*
X0120958Y0139402D01*
X0119300Y0137744D01*
X0118776Y0138267D01*
X0119234Y0139372D01*
X0119234Y0140483D01*
X0119567Y0140816D01*
X0120191Y0142323D01*
X0120191Y0146312D01*
X0120661Y0146781D01*
X0120751Y0147000D01*
X0122849Y0147000D01*
X0122939Y0146781D01*
X0123868Y0145853D01*
X0125081Y0145350D01*
X0129937Y0145350D01*
X0131150Y0145853D01*
X0131797Y0146500D01*
X0132854Y0146500D01*
X0134802Y0147307D01*
X0136293Y0148798D01*
X0138793Y0151298D01*
X0139600Y0153246D01*
X0139600Y0155556D01*
X0140958Y0154198D01*
X0143126Y0153300D01*
X0145474Y0153300D01*
X0147642Y0154198D01*
X0149300Y0155856D01*
X0150958Y0154198D01*
X0153126Y0153300D01*
X0155474Y0153300D01*
X0157642Y0154198D01*
X0159000Y0155556D01*
X0159000Y0152537D01*
X0159807Y0150589D01*
X0161020Y0149376D01*
X0161020Y0147994D01*
X0161522Y0146781D01*
X0161866Y0146437D01*
X0161800Y0146410D01*
X0160685Y0146872D01*
X0157010Y0146872D01*
X0155797Y0146369D01*
X0155233Y0145805D01*
X0154364Y0145445D01*
X0150655Y0141736D01*
X0150000Y0140155D01*
X0150000Y0138444D01*
X0149300Y0137744D01*
X0147642Y0139402D01*
X0145474Y0140300D01*
X0143126Y0140300D01*
X0140958Y0139402D01*
X0139298Y0137742D01*
X0138400Y0135574D01*
X0138400Y0128026D01*
X0139298Y0125858D01*
X0140958Y0124198D01*
X0143126Y0123300D01*
X0145474Y0123300D01*
X0147642Y0124198D01*
X0149300Y0125856D01*
X0149792Y0125364D01*
X0149731Y0125303D01*
X0149228Y0124090D01*
X0149228Y0120415D01*
X0149731Y0119202D01*
X0150659Y0118274D01*
X0150844Y0118197D01*
X0150728Y0117765D01*
X0150728Y0116347D01*
X0150728Y0114929D01*
X0150817Y0114600D01*
X0150728Y0115294D02*
X0119600Y0115294D01*
X0119600Y0116893D02*
X0150728Y0116893D01*
X0150728Y0116347D02*
X0154300Y0116347D01*
X0150728Y0116347D01*
X0150442Y0118491D02*
X0119600Y0118491D01*
X0119600Y0120090D02*
X0149363Y0120090D01*
X0149228Y0121688D02*
X0119600Y0121688D01*
X0119600Y0123287D02*
X0149228Y0123287D01*
X0149558Y0124885D02*
X0148329Y0124885D01*
X0140271Y0124885D02*
X0128329Y0124885D01*
X0129561Y0126484D02*
X0139039Y0126484D01*
X0138400Y0128082D02*
X0130200Y0128082D01*
X0130200Y0129681D02*
X0138400Y0129681D01*
X0138400Y0131279D02*
X0130200Y0131279D01*
X0130200Y0132878D02*
X0138400Y0132878D01*
X0138400Y0134476D02*
X0130200Y0134476D01*
X0129992Y0136075D02*
X0138608Y0136075D01*
X0139270Y0137673D02*
X0129330Y0137673D01*
X0127772Y0139272D02*
X0140828Y0139272D01*
X0147772Y0139272D02*
X0150000Y0139272D01*
X0150296Y0140870D02*
X0119590Y0140870D01*
X0119192Y0139272D02*
X0120828Y0139272D01*
X0120191Y0142469D02*
X0151388Y0142469D01*
X0152986Y0144068D02*
X0120191Y0144068D01*
X0120191Y0145666D02*
X0124319Y0145666D01*
X0116091Y0143139D02*
X0114753Y0141800D01*
X0116091Y0143139D02*
X0116091Y0151800D01*
X0111020Y0147994D02*
X0111522Y0146781D01*
X0111866Y0146437D01*
X0111800Y0146410D01*
X0110685Y0146872D01*
X0107010Y0146872D01*
X0105797Y0146369D01*
X0105233Y0145805D01*
X0104364Y0145445D01*
X0101864Y0142945D01*
X0100655Y0141736D01*
X0100000Y0140155D01*
X0100000Y0138444D01*
X0099300Y0137744D01*
X0097642Y0139402D01*
X0095474Y0140300D01*
X0093126Y0140300D01*
X0090958Y0139402D01*
X0089298Y0137742D01*
X0088400Y0135574D01*
X0088400Y0128026D01*
X0089298Y0125858D01*
X0090958Y0124198D01*
X0093126Y0123300D01*
X0095474Y0123300D01*
X0097642Y0124198D01*
X0099300Y0125856D01*
X0099792Y0125364D01*
X0099731Y0125303D01*
X0099228Y0124090D01*
X0099228Y0120415D01*
X0099731Y0119202D01*
X0100659Y0118274D01*
X0100844Y0118197D01*
X0100728Y0117765D01*
X0100728Y0116347D01*
X0100728Y0114929D01*
X0100817Y0114600D01*
X0076847Y0114600D01*
X0069600Y0123659D01*
X0069600Y0125556D01*
X0070958Y0124198D01*
X0073126Y0123300D01*
X0075474Y0123300D01*
X0077642Y0124198D01*
X0079302Y0125858D01*
X0080200Y0128026D01*
X0080200Y0135574D01*
X0079302Y0137742D01*
X0077642Y0139402D01*
X0075474Y0140300D01*
X0073126Y0140300D01*
X0070958Y0139402D01*
X0069300Y0137744D01*
X0067642Y0139402D01*
X0067303Y0139542D01*
X0067900Y0140984D01*
X0067900Y0146520D01*
X0068161Y0146781D01*
X0068663Y0147994D01*
X0068663Y0148000D01*
X0069937Y0148000D01*
X0069937Y0147994D01*
X0070439Y0146781D01*
X0071368Y0145853D01*
X0072581Y0145350D01*
X0077437Y0145350D01*
X0078650Y0145853D01*
X0079297Y0146500D01*
X0082854Y0146500D01*
X0084802Y0147307D01*
X0087302Y0149807D01*
X0088793Y0151298D01*
X0089600Y0153246D01*
X0089600Y0155556D01*
X0090958Y0154198D01*
X0093126Y0153300D01*
X0095474Y0153300D01*
X0097642Y0154198D01*
X0099300Y0155856D01*
X0100958Y0154198D01*
X0103126Y0153300D01*
X0105474Y0153300D01*
X0107642Y0154198D01*
X0109000Y0155556D01*
X0109000Y0152537D01*
X0109807Y0150589D01*
X0111020Y0149376D01*
X0111020Y0147994D01*
X0111322Y0147265D02*
X0084700Y0147265D01*
X0086358Y0148863D02*
X0111020Y0148863D01*
X0109934Y0150462D02*
X0087957Y0150462D01*
X0089109Y0152060D02*
X0109198Y0152060D01*
X0109000Y0153659D02*
X0106339Y0153659D01*
X0108701Y0155257D02*
X0109000Y0155257D01*
X0102261Y0153659D02*
X0096339Y0153659D01*
X0098701Y0155257D02*
X0099899Y0155257D01*
X0092261Y0153659D02*
X0089600Y0153659D01*
X0089600Y0155257D02*
X0089899Y0155257D01*
X0078199Y0145666D02*
X0104897Y0145666D01*
X0102986Y0144068D02*
X0067900Y0144068D01*
X0067900Y0145666D02*
X0071819Y0145666D01*
X0070239Y0147265D02*
X0068361Y0147265D01*
X0063800Y0151591D02*
X0063591Y0151800D01*
X0063800Y0151591D02*
X0063800Y0141800D01*
X0062253Y0141800D01*
X0059366Y0146437D02*
X0059300Y0146410D01*
X0058185Y0146872D01*
X0054510Y0146872D01*
X0053297Y0146369D01*
X0052369Y0145441D01*
X0051866Y0144228D01*
X0051866Y0143117D01*
X0050824Y0142075D01*
X0050200Y0140568D01*
X0050200Y0138644D01*
X0049300Y0137744D01*
X0047642Y0139402D01*
X0045474Y0140300D01*
X0043126Y0140300D01*
X0040958Y0139402D01*
X0039298Y0137742D01*
X0038400Y0135574D01*
X0038400Y0128026D01*
X0039298Y0125858D01*
X0040958Y0124198D01*
X0043126Y0123300D01*
X0045474Y0123300D01*
X0047642Y0124198D01*
X0049300Y0125856D01*
X0049792Y0125364D01*
X0049731Y0125303D01*
X0049228Y0124090D01*
X0049228Y0120415D01*
X0049731Y0119202D01*
X0050659Y0118274D01*
X0050844Y0118197D01*
X0050728Y0117765D01*
X0050728Y0116347D01*
X0050728Y0114929D01*
X0050851Y0114471D01*
X0051088Y0114061D01*
X0051423Y0113726D01*
X0051834Y0113489D01*
X0052291Y0113366D01*
X0054300Y0113366D01*
X0056309Y0113366D01*
X0056766Y0113489D01*
X0057177Y0113726D01*
X0057512Y0114061D01*
X0057749Y0114471D01*
X0057872Y0114929D01*
X0057872Y0116347D01*
X0054300Y0116347D01*
X0054300Y0113366D01*
X0054300Y0116347D01*
X0054300Y0116347D01*
X0054300Y0116347D01*
X0050728Y0116347D01*
X0054300Y0116347D01*
X0054300Y0116347D01*
X0057872Y0116347D01*
X0057872Y0117765D01*
X0057756Y0118197D01*
X0057941Y0118274D01*
X0058869Y0119202D01*
X0059254Y0120132D01*
X0059291Y0120043D01*
X0059503Y0119312D01*
X0059691Y0119077D01*
X0059807Y0118798D01*
X0060345Y0118260D01*
X0069691Y0106577D01*
X0069807Y0106298D01*
X0070345Y0105760D01*
X0070820Y0105166D01*
X0071084Y0105020D01*
X0071298Y0104807D01*
X0072001Y0104516D01*
X0072667Y0104149D01*
X0072967Y0104116D01*
X0073246Y0104000D01*
X0074006Y0104000D01*
X0074763Y0103916D01*
X0075052Y0104000D01*
X0110556Y0104000D01*
X0109298Y0102742D01*
X0108400Y0100574D01*
X0108400Y0093026D01*
X0109298Y0090858D01*
X0110958Y0089198D01*
X0113126Y0088300D01*
X0115474Y0088300D01*
X0116039Y0088534D01*
X0114605Y0087100D01*
X0083995Y0087100D01*
X0073793Y0097302D01*
X0072302Y0098793D01*
X0070354Y0099600D01*
X0058410Y0099600D01*
X0058369Y0099641D01*
X0056053Y0100600D01*
X0047547Y0100600D01*
X0045498Y0099752D01*
X0033047Y0100048D01*
X0032100Y0100995D01*
X0032100Y0144605D01*
X0033995Y0146500D01*
X0052854Y0146500D01*
X0054802Y0147307D01*
X0056293Y0148798D01*
X0058291Y0150796D01*
X0058291Y0150746D01*
X0058520Y0150194D01*
X0058520Y0147994D01*
X0059022Y0146781D01*
X0059366Y0146437D01*
X0058822Y0147265D02*
X0054700Y0147265D01*
X0056358Y0148863D02*
X0058520Y0148863D01*
X0058409Y0150462D02*
X0057957Y0150462D01*
X0052594Y0145666D02*
X0033161Y0145666D01*
X0032100Y0144068D02*
X0051866Y0144068D01*
X0051218Y0142469D02*
X0032100Y0142469D01*
X0032100Y0140870D02*
X0050325Y0140870D01*
X0050200Y0139272D02*
X0047772Y0139272D01*
X0040828Y0139272D02*
X0032100Y0139272D01*
X0032100Y0137673D02*
X0039270Y0137673D01*
X0038608Y0136075D02*
X0032100Y0136075D01*
X0032100Y0134476D02*
X0038400Y0134476D01*
X0038400Y0132878D02*
X0032100Y0132878D01*
X0032100Y0131279D02*
X0038400Y0131279D01*
X0038400Y0129681D02*
X0032100Y0129681D01*
X0032100Y0128082D02*
X0038400Y0128082D01*
X0039039Y0126484D02*
X0032100Y0126484D01*
X0032100Y0124885D02*
X0040271Y0124885D01*
X0048329Y0124885D02*
X0049558Y0124885D01*
X0049228Y0123287D02*
X0032100Y0123287D01*
X0032100Y0121688D02*
X0049228Y0121688D01*
X0049363Y0120090D02*
X0032100Y0120090D01*
X0032100Y0118491D02*
X0050442Y0118491D01*
X0050728Y0116893D02*
X0032100Y0116893D01*
X0032100Y0115294D02*
X0050728Y0115294D01*
X0051475Y0113696D02*
X0032100Y0113696D01*
X0032100Y0112097D02*
X0065275Y0112097D01*
X0066554Y0110499D02*
X0032100Y0110499D01*
X0032100Y0108900D02*
X0067832Y0108900D01*
X0069111Y0107302D02*
X0032100Y0107302D01*
X0032100Y0105703D02*
X0070390Y0105703D01*
X0072993Y0104105D02*
X0032100Y0104105D01*
X0032100Y0102506D02*
X0109201Y0102506D01*
X0108538Y0100908D02*
X0032188Y0100908D01*
X0021500Y0100908D02*
X0006600Y0100908D01*
X0006600Y0102506D02*
X0021500Y0102506D01*
X0021500Y0104105D02*
X0006600Y0104105D01*
X0006600Y0105703D02*
X0021500Y0105703D01*
X0021500Y0107302D02*
X0006600Y0107302D01*
X0006600Y0108900D02*
X0021500Y0108900D01*
X0021500Y0110499D02*
X0006600Y0110499D01*
X0006600Y0112097D02*
X0021500Y0112097D01*
X0021500Y0113696D02*
X0006600Y0113696D01*
X0006600Y0115294D02*
X0021500Y0115294D01*
X0021500Y0116893D02*
X0006600Y0116893D01*
X0006600Y0118491D02*
X0021500Y0118491D01*
X0021500Y0120090D02*
X0006600Y0120090D01*
X0006600Y0121688D02*
X0021500Y0121688D01*
X0021500Y0123287D02*
X0006600Y0123287D01*
X0006600Y0124885D02*
X0021500Y0124885D01*
X0021500Y0126484D02*
X0006600Y0126484D01*
X0006600Y0128082D02*
X0021500Y0128082D01*
X0021500Y0129681D02*
X0006600Y0129681D01*
X0006600Y0131279D02*
X0021500Y0131279D01*
X0021500Y0132878D02*
X0006600Y0132878D01*
X0006600Y0134476D02*
X0021500Y0134476D01*
X0021500Y0136075D02*
X0006600Y0136075D01*
X0006600Y0137673D02*
X0021500Y0137673D01*
X0021500Y0139272D02*
X0006600Y0139272D01*
X0006600Y0140870D02*
X0021500Y0140870D01*
X0021500Y0142469D02*
X0006600Y0142469D01*
X0006600Y0144068D02*
X0021500Y0144068D01*
X0021500Y0145666D02*
X0006600Y0145666D01*
X0006600Y0147265D02*
X0021500Y0147265D01*
X0021918Y0148863D02*
X0006600Y0148863D01*
X0006600Y0150462D02*
X0022966Y0150462D01*
X0024565Y0152060D02*
X0006600Y0152060D01*
X0006600Y0153659D02*
X0026163Y0153659D01*
X0027762Y0155257D02*
X0006600Y0155257D01*
X0006600Y0156856D02*
X0030156Y0156856D01*
X0038400Y0158454D02*
X0006600Y0158454D01*
X0006600Y0160053D02*
X0038400Y0160053D01*
X0038400Y0161651D02*
X0006600Y0161651D01*
X0006600Y0163250D02*
X0038400Y0163250D01*
X0038400Y0164848D02*
X0006600Y0164848D01*
X0006600Y0166447D02*
X0038762Y0166447D01*
X0039601Y0168045D02*
X0006600Y0168045D01*
X0006600Y0169644D02*
X0041542Y0169644D01*
X0047058Y0169644D02*
X0051542Y0169644D01*
X0049601Y0168045D02*
X0048999Y0168045D01*
X0057058Y0169644D02*
X0061542Y0169644D01*
X0059601Y0168045D02*
X0058999Y0168045D01*
X0067058Y0169644D02*
X0071542Y0169644D01*
X0069601Y0168045D02*
X0068999Y0168045D01*
X0077058Y0169644D02*
X0079000Y0169644D01*
X0079000Y0171242D02*
X0006600Y0171242D01*
X0006600Y0172841D02*
X0079000Y0172841D01*
X0079000Y0174439D02*
X0006600Y0174439D01*
X0006600Y0176038D02*
X0079000Y0176038D01*
X0079000Y0177636D02*
X0006600Y0177636D01*
X0006600Y0179235D02*
X0079572Y0179235D01*
X0080838Y0180833D02*
X0067165Y0180833D01*
X0067334Y0180888D02*
X0068078Y0181267D01*
X0068753Y0181757D01*
X0069343Y0182347D01*
X0069833Y0183022D01*
X0070212Y0183766D01*
X0070469Y0184559D01*
X0070600Y0185383D01*
X0070600Y0185616D01*
X0061984Y0185616D01*
X0061984Y0180500D01*
X0065717Y0180500D01*
X0066541Y0180630D01*
X0067334Y0180888D01*
X0069404Y0182432D02*
X0154196Y0182432D01*
X0153302Y0184030D02*
X0070298Y0184030D01*
X0070600Y0185984D02*
X0070600Y0186217D01*
X0070469Y0187041D01*
X0070212Y0187834D01*
X0069833Y0188578D01*
X0069343Y0189253D01*
X0068753Y0189843D01*
X0068078Y0190333D01*
X0067334Y0190712D01*
X0066541Y0190969D01*
X0065717Y0191100D01*
X0061984Y0191100D01*
X0061984Y0185984D01*
X0061616Y0185984D01*
X0061616Y0185616D01*
X0061984Y0185616D01*
X0061984Y0185984D01*
X0070600Y0185984D01*
X0070409Y0187227D02*
X0153191Y0187227D01*
X0153947Y0188826D02*
X0086604Y0188826D01*
X0088443Y0190424D02*
X0155702Y0190424D01*
X0161616Y0190424D02*
X0161984Y0190424D01*
X0161984Y0188826D02*
X0161616Y0188826D01*
X0161616Y0187227D02*
X0161984Y0187227D01*
X0161984Y0185629D02*
X0185633Y0185629D01*
X0184035Y0184030D02*
X0170298Y0184030D01*
X0169404Y0182432D02*
X0182436Y0182432D01*
X0187232Y0187227D02*
X0170409Y0187227D01*
X0169653Y0188826D02*
X0176996Y0188826D01*
X0175157Y0190424D02*
X0167898Y0190424D01*
X0161616Y0185629D02*
X0061984Y0185629D01*
X0061616Y0185629D02*
X0006600Y0185629D01*
X0006600Y0187227D02*
X0053191Y0187227D01*
X0053130Y0187041D02*
X0053000Y0186217D01*
X0053000Y0185984D01*
X0061616Y0185984D01*
X0061616Y0191100D01*
X0057883Y0191100D01*
X0057059Y0190969D01*
X0056266Y0190712D01*
X0055522Y0190333D01*
X0054847Y0189843D01*
X0054257Y0189253D01*
X0053767Y0188578D01*
X0053388Y0187834D01*
X0053130Y0187041D01*
X0053000Y0185616D02*
X0053000Y0185383D01*
X0053130Y0184559D01*
X0053388Y0183766D01*
X0053767Y0183022D01*
X0054257Y0182347D01*
X0054847Y0181757D01*
X0055522Y0181267D01*
X0056266Y0180888D01*
X0057059Y0180630D01*
X0057883Y0180500D01*
X0061616Y0180500D01*
X0061616Y0185616D01*
X0053000Y0185616D01*
X0053302Y0184030D02*
X0006600Y0184030D01*
X0006600Y0182432D02*
X0054196Y0182432D01*
X0056435Y0180833D02*
X0006600Y0180833D01*
X0006600Y0188826D02*
X0053947Y0188826D01*
X0055702Y0190424D02*
X0006600Y0190424D01*
X0061616Y0190424D02*
X0061984Y0190424D01*
X0061984Y0188826D02*
X0061616Y0188826D01*
X0061616Y0187227D02*
X0061984Y0187227D01*
X0061984Y0184030D02*
X0061616Y0184030D01*
X0061616Y0182432D02*
X0061984Y0182432D01*
X0061984Y0180833D02*
X0061616Y0180833D01*
X0069653Y0188826D02*
X0076996Y0188826D01*
X0075157Y0190424D02*
X0067898Y0190424D01*
X0078999Y0168045D02*
X0079000Y0168045D01*
X0067900Y0142469D02*
X0101388Y0142469D01*
X0100296Y0140870D02*
X0067853Y0140870D01*
X0067772Y0139272D02*
X0070828Y0139272D01*
X0077772Y0139272D02*
X0090828Y0139272D01*
X0089270Y0137673D02*
X0079330Y0137673D01*
X0079992Y0136075D02*
X0088608Y0136075D01*
X0088400Y0134476D02*
X0080200Y0134476D01*
X0080200Y0132878D02*
X0088400Y0132878D01*
X0088400Y0131279D02*
X0080200Y0131279D01*
X0080200Y0129681D02*
X0088400Y0129681D01*
X0088400Y0128082D02*
X0080200Y0128082D01*
X0079561Y0126484D02*
X0089039Y0126484D01*
X0090271Y0124885D02*
X0078329Y0124885D01*
X0072455Y0120090D02*
X0099363Y0120090D01*
X0099228Y0121688D02*
X0071177Y0121688D01*
X0069898Y0123287D02*
X0099228Y0123287D01*
X0099558Y0124885D02*
X0098329Y0124885D01*
X0100442Y0118491D02*
X0073734Y0118491D01*
X0075013Y0116893D02*
X0100728Y0116893D01*
X0100728Y0116347D02*
X0104300Y0116347D01*
X0100728Y0116347D01*
X0100728Y0115294D02*
X0076292Y0115294D01*
X0063996Y0113696D02*
X0057125Y0113696D01*
X0057872Y0115294D02*
X0062717Y0115294D01*
X0061438Y0116893D02*
X0057872Y0116893D01*
X0058158Y0118491D02*
X0060113Y0118491D01*
X0059272Y0120090D02*
X0059237Y0120090D01*
X0054300Y0115294D02*
X0054300Y0115294D01*
X0054300Y0113696D02*
X0054300Y0113696D01*
X0069600Y0124885D02*
X0070271Y0124885D01*
X0054300Y0131800D02*
X0054300Y0139753D01*
X0056347Y0141800D01*
X0097772Y0139272D02*
X0100000Y0139272D01*
X0119600Y0124885D02*
X0120271Y0124885D01*
X0109000Y0119518D02*
X0109000Y0114600D01*
X0107783Y0114600D01*
X0107872Y0114929D01*
X0107872Y0116347D01*
X0104300Y0116347D01*
X0104300Y0116347D01*
X0104300Y0116347D01*
X0107872Y0116347D01*
X0107872Y0117765D01*
X0107756Y0118197D01*
X0107941Y0118274D01*
X0108869Y0119202D01*
X0109000Y0119518D01*
X0109000Y0118491D02*
X0108158Y0118491D01*
X0107872Y0116893D02*
X0109000Y0116893D01*
X0109000Y0115294D02*
X0107872Y0115294D01*
X0108400Y0099309D02*
X0071056Y0099309D01*
X0073385Y0097711D02*
X0108400Y0097711D01*
X0108400Y0096112D02*
X0074983Y0096112D01*
X0076582Y0094514D02*
X0108400Y0094514D01*
X0108446Y0092915D02*
X0078180Y0092915D01*
X0079779Y0091317D02*
X0109108Y0091317D01*
X0110438Y0089718D02*
X0081377Y0089718D01*
X0082976Y0088120D02*
X0115624Y0088120D01*
X0138600Y0089718D02*
X0140438Y0089718D01*
X0140289Y0073733D02*
X0138311Y0073733D01*
X0148311Y0073733D02*
X0330289Y0073733D01*
X0329047Y0072134D02*
X0266941Y0072134D01*
X0267014Y0072104D02*
X0263631Y0073505D01*
X0259969Y0073505D01*
X0256585Y0072104D01*
X0253996Y0069514D01*
X0252594Y0066131D01*
X0252594Y0062469D01*
X0253996Y0059085D01*
X0256585Y0056496D01*
X0259969Y0055094D01*
X0263631Y0055094D01*
X0267014Y0056496D01*
X0269604Y0059085D01*
X0271005Y0062469D01*
X0271005Y0066131D01*
X0269604Y0069514D01*
X0267014Y0072104D01*
X0268583Y0070536D02*
X0328400Y0070536D01*
X0328400Y0068937D02*
X0269843Y0068937D01*
X0270505Y0067339D02*
X0328400Y0067339D01*
X0328400Y0065740D02*
X0271005Y0065740D01*
X0271005Y0064142D02*
X0328400Y0064142D01*
X0328600Y0062543D02*
X0271005Y0062543D01*
X0270374Y0060945D02*
X0329262Y0060945D01*
X0330810Y0059346D02*
X0286920Y0059346D01*
X0289346Y0057748D02*
X0339228Y0057748D01*
X0339228Y0056149D02*
X0290272Y0056149D01*
X0290600Y0054551D02*
X0339586Y0054551D01*
X0339228Y0052952D02*
X0290435Y0052952D01*
X0289711Y0051354D02*
X0339228Y0051354D01*
X0339228Y0049755D02*
X0289461Y0049755D01*
X0281984Y0054551D02*
X0281616Y0054551D01*
X0281616Y0056149D02*
X0281984Y0056149D01*
X0281984Y0057748D02*
X0281616Y0057748D01*
X0281616Y0059346D02*
X0281984Y0059346D01*
X0276680Y0059346D02*
X0269712Y0059346D01*
X0268266Y0057748D02*
X0274254Y0057748D01*
X0273328Y0056149D02*
X0266178Y0056149D01*
X0273000Y0054551D02*
X0210600Y0054551D01*
X0210435Y0052952D02*
X0273165Y0052952D01*
X0273889Y0051354D02*
X0209711Y0051354D01*
X0209461Y0049755D02*
X0274139Y0049755D01*
X0257422Y0056149D02*
X0210272Y0056149D01*
X0209346Y0057748D02*
X0255334Y0057748D01*
X0253888Y0059346D02*
X0206920Y0059346D01*
X0201984Y0059346D02*
X0201616Y0059346D01*
X0201616Y0057748D02*
X0201984Y0057748D01*
X0201984Y0056149D02*
X0201616Y0056149D01*
X0201616Y0054551D02*
X0201984Y0054551D01*
X0194254Y0057748D02*
X0188266Y0057748D01*
X0187014Y0056496D02*
X0189604Y0059085D01*
X0191005Y0062469D01*
X0191005Y0066131D01*
X0189604Y0069514D01*
X0187014Y0072104D01*
X0183631Y0073505D01*
X0179969Y0073505D01*
X0176585Y0072104D01*
X0173996Y0069514D01*
X0172594Y0066131D01*
X0172594Y0062469D01*
X0173996Y0059085D01*
X0176585Y0056496D01*
X0179969Y0055094D01*
X0183631Y0055094D01*
X0187014Y0056496D01*
X0186178Y0056149D02*
X0193328Y0056149D01*
X0193000Y0054551D02*
X0138600Y0054551D01*
X0138600Y0056149D02*
X0177422Y0056149D01*
X0175334Y0057748D02*
X0138600Y0057748D01*
X0138600Y0059346D02*
X0140810Y0059346D01*
X0147790Y0059346D02*
X0173888Y0059346D01*
X0173226Y0060945D02*
X0149338Y0060945D01*
X0150000Y0062543D02*
X0172594Y0062543D01*
X0172594Y0064142D02*
X0150200Y0064142D01*
X0150200Y0065740D02*
X0172594Y0065740D01*
X0173095Y0067339D02*
X0150200Y0067339D01*
X0150200Y0068937D02*
X0173757Y0068937D01*
X0175017Y0070536D02*
X0150200Y0070536D01*
X0149553Y0072134D02*
X0176659Y0072134D01*
X0186941Y0072134D02*
X0256659Y0072134D01*
X0255017Y0070536D02*
X0188583Y0070536D01*
X0189843Y0068937D02*
X0253757Y0068937D01*
X0253095Y0067339D02*
X0190505Y0067339D01*
X0191005Y0065740D02*
X0252594Y0065740D01*
X0252594Y0064142D02*
X0191005Y0064142D01*
X0191005Y0062543D02*
X0252594Y0062543D01*
X0253226Y0060945D02*
X0190374Y0060945D01*
X0189712Y0059346D02*
X0196680Y0059346D01*
X0193165Y0052952D02*
X0138600Y0052952D01*
X0138600Y0051354D02*
X0193889Y0051354D01*
X0194139Y0049755D02*
X0138600Y0049755D01*
X0138600Y0048157D02*
X0175662Y0048157D01*
X0174063Y0046558D02*
X0138600Y0046558D01*
X0139419Y0044960D02*
X0141137Y0044960D01*
X0140148Y0043361D02*
X0140081Y0043361D01*
X0144300Y0043361D02*
X0144300Y0043361D01*
X0144300Y0041763D02*
X0144300Y0041763D01*
X0144300Y0040164D02*
X0144300Y0040164D01*
X0144300Y0038566D02*
X0144300Y0038566D01*
X0144300Y0036967D02*
X0144300Y0036967D01*
X0144300Y0035369D02*
X0144300Y0035369D01*
X0144300Y0033770D02*
X0144300Y0033770D01*
X0147593Y0033770D02*
X0171275Y0033770D01*
X0171500Y0035369D02*
X0148494Y0035369D01*
X0148700Y0036967D02*
X0171500Y0036967D01*
X0171500Y0038566D02*
X0148700Y0038566D01*
X0148700Y0040164D02*
X0171500Y0040164D01*
X0171500Y0041763D02*
X0148700Y0041763D01*
X0148452Y0043361D02*
X0171710Y0043361D01*
X0172464Y0044960D02*
X0147463Y0044960D01*
X0144300Y0044960D02*
X0144300Y0044960D01*
X0141007Y0033770D02*
X0139473Y0033770D01*
X0138116Y0032172D02*
X0169676Y0032172D01*
X0168078Y0030573D02*
X0135522Y0030573D01*
X0137121Y0028975D02*
X0166479Y0028975D01*
X0164881Y0027376D02*
X0138719Y0027376D01*
X0128524Y0022581D02*
X0107515Y0022581D01*
X0105916Y0024179D02*
X0126926Y0024179D01*
X0125327Y0025778D02*
X0104318Y0025778D01*
X0102719Y0027376D02*
X0123728Y0027376D01*
X0122130Y0028975D02*
X0101121Y0028975D01*
X0099522Y0030573D02*
X0120531Y0030573D01*
X0119738Y0032172D02*
X0097924Y0032172D01*
X0096325Y0033770D02*
X0119127Y0033770D01*
X0118465Y0035369D02*
X0094727Y0035369D01*
X0093128Y0036967D02*
X0118400Y0036967D01*
X0118400Y0038566D02*
X0091530Y0038566D01*
X0089931Y0040164D02*
X0118400Y0040164D01*
X0118400Y0041763D02*
X0088333Y0041763D01*
X0086734Y0043361D02*
X0118519Y0043361D01*
X0119181Y0044960D02*
X0085136Y0044960D01*
X0083537Y0046558D02*
X0120000Y0046558D01*
X0119871Y0048157D02*
X0081938Y0048157D01*
X0080340Y0049755D02*
X0119228Y0049755D01*
X0119228Y0051354D02*
X0078741Y0051354D01*
X0077143Y0052952D02*
X0119228Y0052952D01*
X0119586Y0054551D02*
X0058459Y0054551D01*
X0056925Y0043361D02*
X0071743Y0043361D01*
X0047540Y0068937D02*
X0006600Y0068937D01*
X0006600Y0067339D02*
X0045075Y0067339D01*
X0058980Y0076930D02*
X0079708Y0076930D01*
X0077576Y0078529D02*
X0059538Y0078529D01*
X0059529Y0080127D02*
X0075978Y0080127D01*
X0074379Y0081726D02*
X0058951Y0081726D01*
X0057428Y0083324D02*
X0072781Y0083324D01*
X0067985Y0088120D02*
X0056342Y0088120D01*
X0029187Y0089718D02*
X0006600Y0089718D01*
X0006600Y0091317D02*
X0026788Y0091317D01*
X0025190Y0092915D02*
X0006600Y0092915D01*
X0006600Y0094514D02*
X0023591Y0094514D01*
X0022177Y0096112D02*
X0006600Y0096112D01*
X0006600Y0097711D02*
X0021515Y0097711D01*
X0021500Y0099309D02*
X0006600Y0099309D01*
X0117790Y0059346D02*
X0119334Y0059346D01*
X0182100Y0038566D02*
X0194418Y0038566D01*
X0182100Y0036967D02*
X0338400Y0036967D01*
X0338400Y0038566D02*
X0289182Y0038566D01*
X0296585Y0032104D02*
X0293996Y0029514D01*
X0292594Y0026131D01*
X0292594Y0022469D01*
X0293996Y0019085D01*
X0296585Y0016496D01*
X0299969Y0015094D01*
X0303631Y0015094D01*
X0307014Y0016496D01*
X0309604Y0019085D01*
X0311005Y0022469D01*
X0311005Y0026131D01*
X0309604Y0029514D01*
X0307014Y0032104D01*
X0303631Y0033505D01*
X0299969Y0033505D01*
X0296585Y0032104D01*
X0296749Y0032172D02*
X0249820Y0032172D01*
X0251527Y0030573D02*
X0295055Y0030573D01*
X0293772Y0028975D02*
X0252522Y0028975D01*
X0253184Y0027376D02*
X0293110Y0027376D01*
X0292594Y0025778D02*
X0253225Y0025778D01*
X0253165Y0024179D02*
X0292594Y0024179D01*
X0292594Y0022581D02*
X0252503Y0022581D01*
X0251483Y0020982D02*
X0293210Y0020982D01*
X0293872Y0019384D02*
X0250950Y0019384D01*
X0250280Y0017785D02*
X0295296Y0017785D01*
X0297332Y0016187D02*
X0248682Y0016187D01*
X0247083Y0014588D02*
X0455694Y0014588D01*
X0455500Y0016187D02*
X0306268Y0016187D01*
X0308304Y0017785D02*
X0455500Y0017785D01*
X0455794Y0019384D02*
X0309728Y0019384D01*
X0310390Y0020982D02*
X0456222Y0020982D01*
X0457089Y0022581D02*
X0311005Y0022581D01*
X0311005Y0024179D02*
X0458199Y0024179D01*
X0459797Y0025778D02*
X0311005Y0025778D01*
X0310490Y0027376D02*
X0462611Y0027376D01*
X0470989Y0027376D02*
X0476921Y0027376D01*
X0476921Y0025778D02*
X0473803Y0025778D01*
X0475401Y0024179D02*
X0476921Y0024179D01*
X0476921Y0022581D02*
X0476511Y0022581D01*
X0476921Y0028975D02*
X0309828Y0028975D01*
X0308545Y0030573D02*
X0476921Y0030573D01*
X0476921Y0032172D02*
X0358116Y0032172D01*
X0359473Y0033770D02*
X0361007Y0033770D01*
X0364300Y0033770D02*
X0364300Y0033770D01*
X0364300Y0035369D02*
X0364300Y0035369D01*
X0364300Y0036967D02*
X0364300Y0036967D01*
X0364300Y0038566D02*
X0364300Y0038566D01*
X0364300Y0040164D02*
X0364300Y0040164D01*
X0364300Y0041763D02*
X0364300Y0041763D01*
X0364300Y0043361D02*
X0364300Y0043361D01*
X0364300Y0044960D02*
X0364300Y0044960D01*
X0367463Y0044960D02*
X0476921Y0044960D01*
X0476921Y0046558D02*
X0358600Y0046558D01*
X0358600Y0048157D02*
X0476921Y0048157D01*
X0476921Y0049755D02*
X0358600Y0049755D01*
X0358600Y0051354D02*
X0476921Y0051354D01*
X0476921Y0052952D02*
X0358600Y0052952D01*
X0358600Y0054551D02*
X0476921Y0054551D01*
X0476921Y0056149D02*
X0358600Y0056149D01*
X0358600Y0057748D02*
X0476921Y0057748D01*
X0476921Y0059346D02*
X0367790Y0059346D01*
X0369338Y0060945D02*
X0476921Y0060945D01*
X0476921Y0062543D02*
X0370000Y0062543D01*
X0370200Y0064142D02*
X0476921Y0064142D01*
X0476921Y0065740D02*
X0370200Y0065740D01*
X0370200Y0067339D02*
X0476921Y0067339D01*
X0476921Y0068937D02*
X0370200Y0068937D01*
X0370200Y0070536D02*
X0476921Y0070536D01*
X0476921Y0072134D02*
X0369553Y0072134D01*
X0368311Y0073733D02*
X0476921Y0073733D01*
X0476921Y0075332D02*
X0355956Y0075332D01*
X0357973Y0076930D02*
X0476921Y0076930D01*
X0476921Y0078529D02*
X0358600Y0078529D01*
X0358600Y0080127D02*
X0476921Y0080127D01*
X0476921Y0081726D02*
X0358600Y0081726D01*
X0358600Y0083324D02*
X0476921Y0083324D01*
X0476921Y0084923D02*
X0358600Y0084923D01*
X0358600Y0086521D02*
X0476921Y0086521D01*
X0476921Y0088120D02*
X0358600Y0088120D01*
X0358600Y0089718D02*
X0360438Y0089718D01*
X0368162Y0089718D02*
X0476921Y0089718D01*
X0476921Y0091317D02*
X0369492Y0091317D01*
X0370154Y0092915D02*
X0476921Y0092915D01*
X0476921Y0094514D02*
X0370200Y0094514D01*
X0370200Y0096112D02*
X0476921Y0096112D01*
X0476921Y0097711D02*
X0370200Y0097711D01*
X0370200Y0099309D02*
X0476921Y0099309D01*
X0476921Y0100908D02*
X0370062Y0100908D01*
X0369399Y0102506D02*
X0476921Y0102506D01*
X0476921Y0104105D02*
X0433107Y0104105D01*
X0435699Y0105703D02*
X0476921Y0105703D01*
X0476921Y0107302D02*
X0437297Y0107302D01*
X0438836Y0108900D02*
X0476921Y0108900D01*
X0476921Y0110499D02*
X0439498Y0110499D01*
X0439600Y0112097D02*
X0476921Y0112097D01*
X0476921Y0113696D02*
X0439600Y0113696D01*
X0439600Y0115294D02*
X0476921Y0115294D01*
X0476921Y0116893D02*
X0439600Y0116893D01*
X0439600Y0118491D02*
X0476921Y0118491D01*
X0476921Y0120090D02*
X0439600Y0120090D01*
X0439600Y0121688D02*
X0476921Y0121688D01*
X0476921Y0123287D02*
X0439600Y0123287D01*
X0439600Y0124885D02*
X0440271Y0124885D01*
X0448329Y0124885D02*
X0476921Y0124885D01*
X0476921Y0126484D02*
X0449561Y0126484D01*
X0450200Y0128082D02*
X0476921Y0128082D01*
X0476921Y0129681D02*
X0450200Y0129681D01*
X0450200Y0131279D02*
X0476921Y0131279D01*
X0476921Y0132878D02*
X0450200Y0132878D01*
X0450200Y0134476D02*
X0476921Y0134476D01*
X0476921Y0136075D02*
X0449992Y0136075D01*
X0449330Y0137673D02*
X0476921Y0137673D01*
X0476921Y0139272D02*
X0447772Y0139272D01*
X0440828Y0139272D02*
X0438353Y0139272D01*
X0439655Y0140870D02*
X0476921Y0140870D01*
X0476921Y0142469D02*
X0440100Y0142469D01*
X0440100Y0144068D02*
X0476921Y0144068D01*
X0476921Y0145666D02*
X0450699Y0145666D01*
X0457200Y0147265D02*
X0476921Y0147265D01*
X0476921Y0148863D02*
X0458858Y0148863D01*
X0460457Y0150462D02*
X0476921Y0150462D01*
X0476921Y0152060D02*
X0462055Y0152060D01*
X0463654Y0153659D02*
X0476921Y0153659D01*
X0476921Y0155257D02*
X0464398Y0155257D01*
X0464600Y0156856D02*
X0476921Y0156856D01*
X0476921Y0158454D02*
X0464600Y0158454D01*
X0464600Y0160053D02*
X0476921Y0160053D01*
X0476921Y0161651D02*
X0464600Y0161651D01*
X0464600Y0163250D02*
X0476921Y0163250D01*
X0476921Y0164848D02*
X0464600Y0164848D01*
X0464600Y0166447D02*
X0476921Y0166447D01*
X0476921Y0168045D02*
X0464600Y0168045D01*
X0464600Y0169644D02*
X0476921Y0169644D01*
X0476921Y0171242D02*
X0464232Y0171242D01*
X0463255Y0172841D02*
X0476921Y0172841D01*
X0476921Y0174439D02*
X0461656Y0174439D01*
X0460058Y0176038D02*
X0476921Y0176038D01*
X0476921Y0177636D02*
X0458459Y0177636D01*
X0456861Y0179235D02*
X0476921Y0179235D01*
X0476921Y0180833D02*
X0455262Y0180833D01*
X0476921Y0182432D02*
X0371265Y0182432D01*
X0371927Y0184030D02*
X0476921Y0184030D01*
X0476921Y0185629D02*
X0372100Y0185629D01*
X0372069Y0187227D02*
X0476921Y0187227D01*
X0476921Y0188826D02*
X0386604Y0188826D01*
X0388443Y0190424D02*
X0476921Y0190424D01*
X0429000Y0155556D02*
X0429000Y0152537D01*
X0429807Y0150589D01*
X0431020Y0149376D01*
X0431020Y0147994D01*
X0431485Y0146872D01*
X0431415Y0146872D01*
X0430300Y0146410D01*
X0429185Y0146872D01*
X0425510Y0146872D01*
X0424297Y0146369D01*
X0423369Y0145441D01*
X0422866Y0144228D01*
X0422866Y0143947D01*
X0420655Y0141736D01*
X0420000Y0140155D01*
X0420000Y0138444D01*
X0419300Y0137744D01*
X0417642Y0139402D01*
X0415474Y0140300D01*
X0413126Y0140300D01*
X0410958Y0139402D01*
X0409298Y0137742D01*
X0408400Y0135574D01*
X0408400Y0128026D01*
X0409298Y0125858D01*
X0410958Y0124198D01*
X0413126Y0123300D01*
X0415474Y0123300D01*
X0417642Y0124198D01*
X0419300Y0125856D01*
X0419792Y0125364D01*
X0419731Y0125303D01*
X0419228Y0124090D01*
X0419228Y0120415D01*
X0419731Y0119202D01*
X0420659Y0118274D01*
X0420844Y0118197D01*
X0420728Y0117765D01*
X0420728Y0116347D01*
X0420728Y0114929D01*
X0420817Y0114600D01*
X0389600Y0114600D01*
X0389600Y0125556D01*
X0390958Y0124198D01*
X0393126Y0123300D01*
X0395474Y0123300D01*
X0397642Y0124198D01*
X0399302Y0125858D01*
X0400200Y0128026D01*
X0400200Y0135574D01*
X0399302Y0137742D01*
X0397642Y0139402D01*
X0395600Y0140248D01*
X0395600Y0145350D01*
X0399937Y0145350D01*
X0401150Y0145853D01*
X0401797Y0146500D01*
X0402854Y0146500D01*
X0404802Y0147307D01*
X0406293Y0148798D01*
X0408793Y0151298D01*
X0409600Y0153246D01*
X0409600Y0155556D01*
X0410958Y0154198D01*
X0413126Y0153300D01*
X0415474Y0153300D01*
X0417642Y0154198D01*
X0419300Y0155856D01*
X0420958Y0154198D01*
X0423126Y0153300D01*
X0425474Y0153300D01*
X0427642Y0154198D01*
X0429000Y0155556D01*
X0429000Y0155257D02*
X0428701Y0155257D01*
X0429000Y0153659D02*
X0426339Y0153659D01*
X0429198Y0152060D02*
X0409109Y0152060D01*
X0409600Y0153659D02*
X0412261Y0153659D01*
X0409899Y0155257D02*
X0409600Y0155257D01*
X0407957Y0150462D02*
X0429934Y0150462D01*
X0431020Y0148863D02*
X0406358Y0148863D01*
X0404700Y0147265D02*
X0431322Y0147265D01*
X0423594Y0145666D02*
X0400699Y0145666D01*
X0395600Y0144068D02*
X0422866Y0144068D01*
X0421388Y0142469D02*
X0395600Y0142469D01*
X0395600Y0140870D02*
X0420296Y0140870D01*
X0420000Y0139272D02*
X0417772Y0139272D01*
X0410828Y0139272D02*
X0397772Y0139272D01*
X0399330Y0137673D02*
X0409270Y0137673D01*
X0408608Y0136075D02*
X0399992Y0136075D01*
X0400200Y0134476D02*
X0408400Y0134476D01*
X0408400Y0132878D02*
X0400200Y0132878D01*
X0400200Y0131279D02*
X0408400Y0131279D01*
X0408400Y0129681D02*
X0400200Y0129681D01*
X0400200Y0128082D02*
X0408400Y0128082D01*
X0409039Y0126484D02*
X0399561Y0126484D01*
X0398329Y0124885D02*
X0410271Y0124885D01*
X0418329Y0124885D02*
X0419558Y0124885D01*
X0419228Y0123287D02*
X0389600Y0123287D01*
X0389600Y0124885D02*
X0390271Y0124885D01*
X0389600Y0121688D02*
X0419228Y0121688D01*
X0419363Y0120090D02*
X0389600Y0120090D01*
X0389600Y0118491D02*
X0420442Y0118491D01*
X0420728Y0116893D02*
X0389600Y0116893D01*
X0389600Y0115294D02*
X0420728Y0115294D01*
X0420728Y0116347D02*
X0424300Y0116347D01*
X0424300Y0116347D01*
X0424300Y0116347D01*
X0427872Y0116347D01*
X0427872Y0114929D01*
X0427783Y0114600D01*
X0429000Y0114600D01*
X0429000Y0119518D01*
X0428869Y0119202D01*
X0427941Y0118274D01*
X0427756Y0118197D01*
X0427872Y0117765D01*
X0427872Y0116347D01*
X0424300Y0116347D01*
X0420728Y0116347D01*
X0427872Y0116893D02*
X0429000Y0116893D01*
X0429000Y0118491D02*
X0428158Y0118491D01*
X0427872Y0115294D02*
X0429000Y0115294D01*
X0379000Y0115294D02*
X0377872Y0115294D01*
X0377872Y0114929D02*
X0377872Y0116347D01*
X0374300Y0116347D01*
X0374300Y0116347D01*
X0370728Y0116347D01*
X0370728Y0114929D01*
X0370817Y0114600D01*
X0339600Y0114600D01*
X0339600Y0125556D01*
X0340958Y0124198D01*
X0343126Y0123300D01*
X0345474Y0123300D01*
X0347642Y0124198D01*
X0349302Y0125858D01*
X0350200Y0128026D01*
X0350200Y0135574D01*
X0349302Y0137742D01*
X0347642Y0139402D01*
X0345474Y0140300D01*
X0343126Y0140300D01*
X0340958Y0139402D01*
X0339300Y0137744D01*
X0338776Y0138267D01*
X0339234Y0139372D01*
X0339234Y0140200D01*
X0339737Y0140703D01*
X0340391Y0142283D01*
X0340391Y0146512D01*
X0340661Y0146781D01*
X0340751Y0147000D01*
X0342849Y0147000D01*
X0342939Y0146781D01*
X0343868Y0145853D01*
X0345081Y0145350D01*
X0349937Y0145350D01*
X0351150Y0145853D01*
X0351797Y0146500D01*
X0352854Y0146500D01*
X0354802Y0147307D01*
X0356293Y0148798D01*
X0358793Y0151298D01*
X0359600Y0153246D01*
X0359600Y0155556D01*
X0360958Y0154198D01*
X0363126Y0153300D01*
X0365474Y0153300D01*
X0367642Y0154198D01*
X0369300Y0155856D01*
X0370958Y0154198D01*
X0373126Y0153300D01*
X0375474Y0153300D01*
X0377642Y0154198D01*
X0379000Y0155556D01*
X0379000Y0152537D01*
X0379807Y0150589D01*
X0381020Y0149376D01*
X0381020Y0147994D01*
X0381522Y0146781D01*
X0381600Y0146703D01*
X0381705Y0146449D01*
X0380685Y0146872D01*
X0377010Y0146872D01*
X0375797Y0146369D01*
X0375233Y0145805D01*
X0374364Y0145445D01*
X0373155Y0144236D01*
X0370655Y0141736D01*
X0370000Y0140155D01*
X0370000Y0138444D01*
X0369300Y0137744D01*
X0367642Y0139402D01*
X0365474Y0140300D01*
X0363126Y0140300D01*
X0360958Y0139402D01*
X0359298Y0137742D01*
X0358400Y0135574D01*
X0358400Y0128026D01*
X0359298Y0125858D01*
X0360958Y0124198D01*
X0363126Y0123300D01*
X0365474Y0123300D01*
X0367642Y0124198D01*
X0369300Y0125856D01*
X0369792Y0125364D01*
X0369731Y0125303D01*
X0369228Y0124090D01*
X0369228Y0120415D01*
X0369731Y0119202D01*
X0370659Y0118274D01*
X0370844Y0118197D01*
X0370728Y0117765D01*
X0370728Y0116347D01*
X0374300Y0116347D01*
X0374300Y0116347D01*
X0377872Y0116347D01*
X0377872Y0117765D01*
X0377756Y0118197D01*
X0377941Y0118274D01*
X0378869Y0119202D01*
X0379000Y0119518D01*
X0379000Y0114600D01*
X0377783Y0114600D01*
X0377872Y0114929D01*
X0377872Y0116893D02*
X0379000Y0116893D01*
X0379000Y0118491D02*
X0378158Y0118491D01*
X0370728Y0116893D02*
X0339600Y0116893D01*
X0339600Y0118491D02*
X0370442Y0118491D01*
X0369363Y0120090D02*
X0339600Y0120090D01*
X0339600Y0121688D02*
X0369228Y0121688D01*
X0369228Y0123287D02*
X0339600Y0123287D01*
X0339600Y0124885D02*
X0340271Y0124885D01*
X0348329Y0124885D02*
X0360271Y0124885D01*
X0359039Y0126484D02*
X0349561Y0126484D01*
X0350200Y0128082D02*
X0358400Y0128082D01*
X0358400Y0129681D02*
X0350200Y0129681D01*
X0350200Y0131279D02*
X0358400Y0131279D01*
X0358400Y0132878D02*
X0350200Y0132878D01*
X0350200Y0134476D02*
X0358400Y0134476D01*
X0358608Y0136075D02*
X0349992Y0136075D01*
X0349330Y0137673D02*
X0359270Y0137673D01*
X0360828Y0139272D02*
X0347772Y0139272D01*
X0340828Y0139272D02*
X0339192Y0139272D01*
X0339806Y0140870D02*
X0370296Y0140870D01*
X0370000Y0139272D02*
X0367772Y0139272D01*
X0371388Y0142469D02*
X0340391Y0142469D01*
X0340391Y0144068D02*
X0372986Y0144068D01*
X0373155Y0144236D02*
X0373155Y0144236D01*
X0374897Y0145666D02*
X0350699Y0145666D01*
X0354700Y0147265D02*
X0381322Y0147265D01*
X0381020Y0148863D02*
X0356358Y0148863D01*
X0357957Y0150462D02*
X0379934Y0150462D01*
X0379198Y0152060D02*
X0359109Y0152060D01*
X0359600Y0153659D02*
X0362261Y0153659D01*
X0359899Y0155257D02*
X0359600Y0155257D01*
X0366339Y0153659D02*
X0372261Y0153659D01*
X0369899Y0155257D02*
X0368701Y0155257D01*
X0376339Y0153659D02*
X0379000Y0153659D01*
X0379000Y0155257D02*
X0378701Y0155257D01*
X0344319Y0145666D02*
X0340391Y0145666D01*
X0331791Y0146413D02*
X0330685Y0146872D01*
X0327010Y0146872D01*
X0325797Y0146369D01*
X0325233Y0145805D01*
X0324364Y0145445D01*
X0321864Y0142945D01*
X0320655Y0141736D01*
X0320000Y0140155D01*
X0320000Y0138444D01*
X0319300Y0137744D01*
X0317642Y0139402D01*
X0315474Y0140300D01*
X0313126Y0140300D01*
X0310958Y0139402D01*
X0309298Y0137742D01*
X0308400Y0135574D01*
X0308400Y0128026D01*
X0309298Y0125858D01*
X0310958Y0124198D01*
X0313126Y0123300D01*
X0315474Y0123300D01*
X0317642Y0124198D01*
X0319300Y0125856D01*
X0319792Y0125364D01*
X0319731Y0125303D01*
X0319228Y0124090D01*
X0319228Y0120415D01*
X0319731Y0119202D01*
X0320659Y0118274D01*
X0320844Y0118197D01*
X0320728Y0117765D01*
X0320728Y0116347D01*
X0320728Y0114929D01*
X0320817Y0114600D01*
X0296847Y0114600D01*
X0289600Y0123659D01*
X0289600Y0125556D01*
X0290958Y0124198D01*
X0293126Y0123300D01*
X0295474Y0123300D01*
X0297642Y0124198D01*
X0299302Y0125858D01*
X0300200Y0128026D01*
X0300200Y0135574D01*
X0299302Y0137742D01*
X0297642Y0139402D01*
X0295474Y0140300D01*
X0293126Y0140300D01*
X0290958Y0139402D01*
X0289300Y0137744D01*
X0287716Y0139328D01*
X0287734Y0139372D01*
X0287734Y0144228D01*
X0287553Y0144665D01*
X0287553Y0146173D01*
X0288161Y0146781D01*
X0288663Y0147994D01*
X0288663Y0149376D01*
X0288793Y0149506D01*
X0289600Y0151454D01*
X0289600Y0155556D01*
X0289937Y0155219D01*
X0289937Y0153406D01*
X0289709Y0152854D01*
X0289709Y0150746D01*
X0289937Y0150194D01*
X0289937Y0147994D01*
X0290439Y0146781D01*
X0291368Y0145853D01*
X0292581Y0145350D01*
X0297437Y0145350D01*
X0298650Y0145853D01*
X0299297Y0146500D01*
X0302854Y0146500D01*
X0304802Y0147307D01*
X0306293Y0148798D01*
X0307302Y0149807D01*
X0308793Y0151298D01*
X0309600Y0153246D01*
X0309600Y0155556D01*
X0310958Y0154198D01*
X0313126Y0153300D01*
X0315474Y0153300D01*
X0317642Y0154198D01*
X0319300Y0155856D01*
X0320958Y0154198D01*
X0323126Y0153300D01*
X0325474Y0153300D01*
X0327642Y0154198D01*
X0329000Y0155556D01*
X0329000Y0152537D01*
X0329807Y0150589D01*
X0331020Y0149376D01*
X0331020Y0147994D01*
X0331522Y0146781D01*
X0331791Y0146512D01*
X0331791Y0146413D01*
X0331322Y0147265D02*
X0304700Y0147265D01*
X0306293Y0148798D02*
X0306293Y0148798D01*
X0306358Y0148863D02*
X0331020Y0148863D01*
X0329934Y0150462D02*
X0307957Y0150462D01*
X0307302Y0149807D02*
X0307302Y0149807D01*
X0309109Y0152060D02*
X0329198Y0152060D01*
X0329000Y0153659D02*
X0326339Y0153659D01*
X0328701Y0155257D02*
X0329000Y0155257D01*
X0322261Y0153659D02*
X0316339Y0153659D01*
X0318701Y0155257D02*
X0319899Y0155257D01*
X0312261Y0153659D02*
X0309600Y0153659D01*
X0309600Y0155257D02*
X0309899Y0155257D01*
X0298199Y0145666D02*
X0324897Y0145666D01*
X0322986Y0144068D02*
X0287734Y0144068D01*
X0287734Y0142469D02*
X0321388Y0142469D01*
X0320296Y0140870D02*
X0287734Y0140870D01*
X0287772Y0139272D02*
X0290828Y0139272D01*
X0297772Y0139272D02*
X0310828Y0139272D01*
X0309270Y0137673D02*
X0299330Y0137673D01*
X0299992Y0136075D02*
X0308608Y0136075D01*
X0308400Y0134476D02*
X0300200Y0134476D01*
X0300200Y0132878D02*
X0308400Y0132878D01*
X0308400Y0131279D02*
X0300200Y0131279D01*
X0300200Y0129681D02*
X0308400Y0129681D01*
X0308400Y0128082D02*
X0300200Y0128082D01*
X0299561Y0126484D02*
X0309039Y0126484D01*
X0310271Y0124885D02*
X0298329Y0124885D01*
X0292455Y0120090D02*
X0319363Y0120090D01*
X0319228Y0121688D02*
X0291177Y0121688D01*
X0289898Y0123287D02*
X0319228Y0123287D01*
X0319558Y0124885D02*
X0318329Y0124885D01*
X0320442Y0118491D02*
X0293734Y0118491D01*
X0295013Y0116893D02*
X0320728Y0116893D01*
X0320728Y0116347D02*
X0324300Y0116347D01*
X0324300Y0116347D01*
X0327872Y0116347D01*
X0327872Y0114929D01*
X0327783Y0114600D01*
X0329000Y0114600D01*
X0329000Y0119518D01*
X0328869Y0119202D01*
X0327941Y0118274D01*
X0327756Y0118197D01*
X0327872Y0117765D01*
X0327872Y0116347D01*
X0324300Y0116347D01*
X0320728Y0116347D01*
X0320728Y0115294D02*
X0296292Y0115294D01*
X0286554Y0110499D02*
X0269597Y0110499D01*
X0271195Y0108900D02*
X0287832Y0108900D01*
X0289111Y0107302D02*
X0272794Y0107302D01*
X0272995Y0107100D02*
X0255799Y0124296D01*
X0256225Y0125323D01*
X0256225Y0128277D01*
X0255095Y0131006D01*
X0254100Y0132001D01*
X0254100Y0136605D01*
X0256293Y0138798D01*
X0257100Y0140746D01*
X0257100Y0146500D01*
X0272854Y0146500D01*
X0274802Y0147307D01*
X0276293Y0148798D01*
X0278291Y0150796D01*
X0278291Y0150746D01*
X0278520Y0150194D01*
X0278520Y0147994D01*
X0278953Y0146948D01*
X0278953Y0146872D01*
X0275510Y0146872D01*
X0274297Y0146369D01*
X0274028Y0146100D01*
X0273945Y0146100D01*
X0272364Y0145445D01*
X0271155Y0144236D01*
X0270655Y0143736D01*
X0270000Y0142155D01*
X0270000Y0138444D01*
X0269300Y0137744D01*
X0267642Y0139402D01*
X0265474Y0140300D01*
X0263126Y0140300D01*
X0260958Y0139402D01*
X0259298Y0137742D01*
X0258400Y0135574D01*
X0258400Y0128026D01*
X0259298Y0125858D01*
X0260958Y0124198D01*
X0263126Y0123300D01*
X0265474Y0123300D01*
X0267642Y0124198D01*
X0269300Y0125856D01*
X0269792Y0125364D01*
X0269731Y0125303D01*
X0269228Y0124090D01*
X0269228Y0120415D01*
X0269731Y0119202D01*
X0270659Y0118274D01*
X0270844Y0118197D01*
X0270728Y0117765D01*
X0270728Y0116347D01*
X0270728Y0114929D01*
X0270851Y0114471D01*
X0271088Y0114061D01*
X0271423Y0113726D01*
X0271834Y0113489D01*
X0272291Y0113366D01*
X0274300Y0113366D01*
X0276309Y0113366D01*
X0276766Y0113489D01*
X0277177Y0113726D01*
X0277512Y0114061D01*
X0277749Y0114471D01*
X0277872Y0114929D01*
X0277872Y0116347D01*
X0274300Y0116347D01*
X0274300Y0113366D01*
X0274300Y0116347D01*
X0274300Y0116347D01*
X0274300Y0116347D01*
X0270728Y0116347D01*
X0274300Y0116347D01*
X0274300Y0116347D01*
X0277872Y0116347D01*
X0277872Y0117765D01*
X0277756Y0118197D01*
X0277941Y0118274D01*
X0278869Y0119202D01*
X0279254Y0120132D01*
X0279291Y0120043D01*
X0279503Y0119312D01*
X0279691Y0119077D01*
X0279807Y0118798D01*
X0280345Y0118260D01*
X0289273Y0107100D01*
X0272995Y0107100D01*
X0274300Y0113696D02*
X0274300Y0113696D01*
X0274300Y0115294D02*
X0274300Y0115294D01*
X0277125Y0113696D02*
X0283996Y0113696D01*
X0282717Y0115294D02*
X0277872Y0115294D01*
X0277872Y0116893D02*
X0281438Y0116893D01*
X0280113Y0118491D02*
X0278158Y0118491D01*
X0279237Y0120090D02*
X0279272Y0120090D01*
X0270442Y0118491D02*
X0261604Y0118491D01*
X0263202Y0116893D02*
X0270728Y0116893D01*
X0270728Y0115294D02*
X0264801Y0115294D01*
X0266400Y0113696D02*
X0271475Y0113696D01*
X0267998Y0112097D02*
X0285275Y0112097D01*
X0269363Y0120090D02*
X0260005Y0120090D01*
X0258407Y0121688D02*
X0269228Y0121688D01*
X0269228Y0123287D02*
X0256808Y0123287D01*
X0256044Y0124885D02*
X0260271Y0124885D01*
X0259039Y0126484D02*
X0256225Y0126484D01*
X0256225Y0128082D02*
X0258400Y0128082D01*
X0258400Y0129681D02*
X0255643Y0129681D01*
X0254821Y0131279D02*
X0258400Y0131279D01*
X0258400Y0132878D02*
X0254100Y0132878D01*
X0254100Y0134476D02*
X0258400Y0134476D01*
X0258608Y0136075D02*
X0254100Y0136075D01*
X0255169Y0137673D02*
X0259270Y0137673D01*
X0260828Y0139272D02*
X0256490Y0139272D01*
X0257100Y0140870D02*
X0270000Y0140870D01*
X0270000Y0139272D02*
X0267772Y0139272D01*
X0270130Y0142469D02*
X0257100Y0142469D01*
X0257100Y0144068D02*
X0270986Y0144068D01*
X0272897Y0145666D02*
X0257100Y0145666D01*
X0246500Y0145666D02*
X0217872Y0145666D01*
X0217872Y0147265D02*
X0246500Y0147265D01*
X0246500Y0148863D02*
X0217872Y0148863D01*
X0217211Y0150462D02*
X0246500Y0150462D01*
X0246500Y0152060D02*
X0216848Y0152060D01*
X0218108Y0153659D02*
X0222261Y0153659D01*
X0219899Y0155257D02*
X0218701Y0155257D01*
X0226339Y0153659D02*
X0246500Y0153659D01*
X0246500Y0155257D02*
X0228701Y0155257D01*
X0229715Y0156856D02*
X0246500Y0156856D01*
X0245651Y0158454D02*
X0230200Y0158454D01*
X0230200Y0160053D02*
X0244052Y0160053D01*
X0242454Y0161651D02*
X0230200Y0161651D01*
X0230200Y0163250D02*
X0240855Y0163250D01*
X0239257Y0164848D02*
X0230200Y0164848D01*
X0229838Y0166447D02*
X0237658Y0166447D01*
X0212800Y0149800D02*
X0210300Y0152300D01*
X0212800Y0149800D02*
X0212800Y0147253D01*
X0217506Y0144068D02*
X0246500Y0144068D01*
X0244974Y0142469D02*
X0217872Y0142469D01*
X0217872Y0140870D02*
X0243921Y0140870D01*
X0243500Y0139272D02*
X0227772Y0139272D01*
X0229330Y0137673D02*
X0243500Y0137673D01*
X0243500Y0136075D02*
X0229992Y0136075D01*
X0230200Y0134476D02*
X0243500Y0134476D01*
X0243500Y0132878D02*
X0230200Y0132878D01*
X0230200Y0131279D02*
X0242779Y0131279D01*
X0241957Y0129681D02*
X0230200Y0129681D01*
X0230200Y0128082D02*
X0241375Y0128082D01*
X0241375Y0126484D02*
X0229561Y0126484D01*
X0228329Y0124885D02*
X0241556Y0124885D01*
X0242218Y0123287D02*
X0219600Y0123287D01*
X0219600Y0124885D02*
X0220271Y0124885D01*
X0219600Y0121688D02*
X0243411Y0121688D01*
X0245015Y0120090D02*
X0219600Y0120090D01*
X0219600Y0118491D02*
X0246613Y0118491D01*
X0248212Y0116893D02*
X0219600Y0116893D01*
X0219600Y0115294D02*
X0249810Y0115294D01*
X0251409Y0113696D02*
X0219600Y0113696D01*
X0219600Y0112097D02*
X0253007Y0112097D01*
X0254606Y0110499D02*
X0219498Y0110499D01*
X0218836Y0108900D02*
X0256204Y0108900D01*
X0257803Y0107302D02*
X0217297Y0107302D01*
X0217302Y0107307D02*
X0217302Y0107307D01*
X0215699Y0105703D02*
X0259401Y0105703D01*
X0261000Y0104105D02*
X0213107Y0104105D01*
X0209000Y0114600D02*
X0207783Y0114600D01*
X0207872Y0114929D01*
X0207872Y0116347D01*
X0204300Y0116347D01*
X0200728Y0116347D01*
X0200728Y0114929D01*
X0200817Y0114600D01*
X0169600Y0114600D01*
X0169600Y0125556D01*
X0170958Y0124198D01*
X0173126Y0123300D01*
X0175474Y0123300D01*
X0177642Y0124198D01*
X0179302Y0125858D01*
X0180200Y0128026D01*
X0180200Y0135574D01*
X0179302Y0137742D01*
X0177642Y0139402D01*
X0175474Y0140300D01*
X0173126Y0140300D01*
X0170958Y0139402D01*
X0169300Y0137744D01*
X0168776Y0138267D01*
X0169234Y0139372D01*
X0169234Y0140483D01*
X0169567Y0140816D01*
X0170191Y0142323D01*
X0170191Y0146312D01*
X0170661Y0146781D01*
X0170751Y0147000D01*
X0172849Y0147000D01*
X0172939Y0146781D01*
X0173868Y0145853D01*
X0175081Y0145350D01*
X0179937Y0145350D01*
X0181150Y0145853D01*
X0181797Y0146500D01*
X0182105Y0146500D01*
X0182298Y0146307D01*
X0184246Y0145500D01*
X0187803Y0145500D01*
X0188450Y0144853D01*
X0189663Y0144350D01*
X0194519Y0144350D01*
X0195732Y0144853D01*
X0196661Y0145781D01*
X0197163Y0146994D01*
X0197163Y0147000D01*
X0198437Y0147000D01*
X0198437Y0146994D01*
X0198939Y0145781D01*
X0199868Y0144853D01*
X0201081Y0144350D01*
X0203552Y0144350D01*
X0201478Y0142276D01*
X0200324Y0141122D01*
X0199700Y0139616D01*
X0199700Y0138144D01*
X0199300Y0137744D01*
X0197642Y0139402D01*
X0195474Y0140300D01*
X0193126Y0140300D01*
X0190958Y0139402D01*
X0189298Y0137742D01*
X0188400Y0135574D01*
X0188400Y0128026D01*
X0189298Y0125858D01*
X0190958Y0124198D01*
X0193126Y0123300D01*
X0195474Y0123300D01*
X0197642Y0124198D01*
X0199300Y0125856D01*
X0199792Y0125364D01*
X0199731Y0125303D01*
X0199228Y0124090D01*
X0199228Y0120415D01*
X0199731Y0119202D01*
X0200659Y0118274D01*
X0200844Y0118197D01*
X0200728Y0117765D01*
X0200728Y0116347D01*
X0204300Y0116347D01*
X0204300Y0116347D01*
X0204300Y0116347D01*
X0207872Y0116347D01*
X0207872Y0117765D01*
X0207756Y0118197D01*
X0207941Y0118274D01*
X0208869Y0119202D01*
X0209000Y0119518D01*
X0209000Y0114600D01*
X0209000Y0115294D02*
X0207872Y0115294D01*
X0207872Y0116893D02*
X0209000Y0116893D01*
X0209000Y0118491D02*
X0208158Y0118491D01*
X0200728Y0116893D02*
X0169600Y0116893D01*
X0169600Y0118491D02*
X0200442Y0118491D01*
X0199363Y0120090D02*
X0169600Y0120090D01*
X0169600Y0121688D02*
X0199228Y0121688D01*
X0199228Y0123287D02*
X0169600Y0123287D01*
X0169600Y0124885D02*
X0170271Y0124885D01*
X0178329Y0124885D02*
X0190271Y0124885D01*
X0189039Y0126484D02*
X0179561Y0126484D01*
X0180200Y0128082D02*
X0188400Y0128082D01*
X0188400Y0129681D02*
X0180200Y0129681D01*
X0180200Y0131279D02*
X0188400Y0131279D01*
X0188400Y0132878D02*
X0180200Y0132878D01*
X0180200Y0134476D02*
X0188400Y0134476D01*
X0188608Y0136075D02*
X0179992Y0136075D01*
X0179330Y0137673D02*
X0189270Y0137673D01*
X0190828Y0139272D02*
X0177772Y0139272D01*
X0170828Y0139272D02*
X0169192Y0139272D01*
X0169590Y0140870D02*
X0200220Y0140870D01*
X0199700Y0139272D02*
X0197772Y0139272D01*
X0201671Y0142469D02*
X0170191Y0142469D01*
X0170191Y0144068D02*
X0203269Y0144068D01*
X0206347Y0141347D02*
X0203800Y0138800D01*
X0203800Y0132300D01*
X0204300Y0131800D01*
X0199558Y0124885D02*
X0198329Y0124885D01*
X0200728Y0115294D02*
X0169600Y0115294D01*
X0159000Y0115294D02*
X0157872Y0115294D01*
X0157872Y0114929D02*
X0157783Y0114600D01*
X0159000Y0114600D01*
X0159000Y0119518D01*
X0158869Y0119202D01*
X0157941Y0118274D01*
X0157756Y0118197D01*
X0157872Y0117765D01*
X0157872Y0116347D01*
X0154300Y0116347D01*
X0154300Y0116347D01*
X0154300Y0116347D01*
X0157872Y0116347D01*
X0157872Y0114929D01*
X0157872Y0116893D02*
X0159000Y0116893D01*
X0159000Y0118491D02*
X0158158Y0118491D01*
X0158847Y0141800D02*
X0156800Y0141800D01*
X0154897Y0145666D02*
X0130699Y0145666D01*
X0134700Y0147265D02*
X0161322Y0147265D01*
X0161020Y0148863D02*
X0136358Y0148863D01*
X0137957Y0150462D02*
X0159934Y0150462D01*
X0159198Y0152060D02*
X0139109Y0152060D01*
X0139600Y0153659D02*
X0142261Y0153659D01*
X0139899Y0155257D02*
X0139600Y0155257D01*
X0146339Y0153659D02*
X0152261Y0153659D01*
X0149899Y0155257D02*
X0148701Y0155257D01*
X0156339Y0153659D02*
X0159000Y0153659D01*
X0159000Y0155257D02*
X0158701Y0155257D01*
X0166091Y0151800D02*
X0166091Y0143139D01*
X0164753Y0141800D01*
X0170191Y0145666D02*
X0174319Y0145666D01*
X0180699Y0145666D02*
X0183845Y0145666D01*
X0179300Y0151800D02*
X0177509Y0151800D01*
X0196546Y0145666D02*
X0199054Y0145666D01*
X0206347Y0141347D02*
X0212800Y0141347D01*
X0217773Y0139272D02*
X0220828Y0139272D01*
X0268329Y0124885D02*
X0269558Y0124885D01*
X0289600Y0124885D02*
X0290271Y0124885D01*
X0317772Y0139272D02*
X0320000Y0139272D01*
X0291819Y0145666D02*
X0287553Y0145666D01*
X0288361Y0147265D02*
X0290239Y0147265D01*
X0289937Y0148863D02*
X0288663Y0148863D01*
X0289189Y0150462D02*
X0289826Y0150462D01*
X0289709Y0152060D02*
X0289600Y0152060D01*
X0289600Y0153659D02*
X0289937Y0153659D01*
X0289899Y0155257D02*
X0289600Y0155257D01*
X0278409Y0150462D02*
X0277957Y0150462D01*
X0278520Y0148863D02*
X0276358Y0148863D01*
X0274700Y0147265D02*
X0278822Y0147265D01*
X0328158Y0118491D02*
X0329000Y0118491D01*
X0329000Y0116893D02*
X0327872Y0116893D01*
X0327872Y0115294D02*
X0329000Y0115294D01*
X0324300Y0116347D02*
X0324300Y0116347D01*
X0339600Y0115294D02*
X0370728Y0115294D01*
X0369558Y0124885D02*
X0368329Y0124885D01*
X0416339Y0153659D02*
X0422261Y0153659D01*
X0419899Y0155257D02*
X0418701Y0155257D01*
X0440100Y0145666D02*
X0444319Y0145666D01*
X0376996Y0188826D02*
X0371407Y0188826D01*
X0370292Y0190424D02*
X0375157Y0190424D01*
X0190615Y0190424D02*
X0188443Y0190424D01*
X0188830Y0188826D02*
X0186604Y0188826D01*
X0338311Y0073733D02*
X0340000Y0073733D01*
X0358311Y0073733D02*
X0360289Y0073733D01*
X0360810Y0059346D02*
X0358600Y0059346D01*
X0339334Y0059346D02*
X0337790Y0059346D01*
X0359419Y0044960D02*
X0361137Y0044960D01*
X0360148Y0043361D02*
X0360081Y0043361D01*
X0368452Y0043361D02*
X0476921Y0043361D01*
X0476921Y0041763D02*
X0368700Y0041763D01*
X0368700Y0040164D02*
X0476921Y0040164D01*
X0476921Y0038566D02*
X0368700Y0038566D01*
X0368700Y0036967D02*
X0476921Y0036967D01*
X0476921Y0035369D02*
X0368494Y0035369D01*
X0367593Y0033770D02*
X0476921Y0033770D01*
X0456122Y0012990D02*
X0245485Y0012990D01*
X0243886Y0011391D02*
X0456875Y0011391D01*
X0457827Y0009793D02*
X0242288Y0009793D01*
X0240530Y0008194D02*
X0459425Y0008194D01*
X0350484Y0032172D02*
X0348116Y0032172D01*
X0340484Y0032172D02*
X0306851Y0032172D01*
X0338465Y0035369D02*
X0182100Y0035369D01*
X0182100Y0033770D02*
X0339127Y0033770D01*
X0274418Y0038566D02*
X0209182Y0038566D01*
X0216749Y0032172D02*
X0182100Y0032172D01*
X0182029Y0030573D02*
X0215055Y0030573D01*
X0213772Y0028975D02*
X0181366Y0028975D01*
X0179872Y0027376D02*
X0213110Y0027376D01*
X0212594Y0025778D02*
X0178273Y0025778D01*
X0176674Y0024179D02*
X0212594Y0024179D01*
X0212594Y0022581D02*
X0175076Y0022581D01*
X0173477Y0020982D02*
X0213210Y0020982D01*
X0213872Y0019384D02*
X0171879Y0019384D01*
X0131721Y0019384D02*
X0110712Y0019384D01*
X0109113Y0020982D02*
X0130123Y0020982D01*
X0226851Y0032172D02*
X0241780Y0032172D01*
X0240073Y0030573D02*
X0228545Y0030573D01*
X0229828Y0028975D02*
X0239078Y0028975D01*
X0238416Y0027376D02*
X0230490Y0027376D01*
X0231005Y0025778D02*
X0238375Y0025778D01*
X0238435Y0024179D02*
X0231005Y0024179D01*
X0231005Y0022581D02*
X0239097Y0022581D01*
X0238487Y0020982D02*
X0230390Y0020982D01*
X0229728Y0019384D02*
X0236888Y0019384D01*
X0012611Y0027376D02*
X0006600Y0027376D01*
X0006600Y0025778D02*
X0009797Y0025778D01*
X0008199Y0024179D02*
X0006600Y0024179D01*
X0006600Y0022581D02*
X0007089Y0022581D01*
D21*
X0245800Y0025800D03*
X0248800Y0126800D03*
D22*
X0210300Y0152300D02*
X0208800Y0150800D01*
X0203509Y0150800D01*
X0210300Y0152300D02*
X0213800Y0155800D01*
X0213800Y0161300D01*
X0214300Y0161800D01*
M02*
