G75*
%MOIN*%
%OFA0B0*%
%FSLAX25Y25*%
%IPPOS*%
%LPD*%
%AMOC8*
5,1,8,0,0,1.08239X$1,22.5*
%
%ADD10C,0.13800*%
%ADD11C,0.06000*%
%ADD12R,0.03950X0.03950*%
%ADD13C,0.07800*%
%ADD14C,0.12611*%
%ADD15R,0.16548X0.07099*%
%ADD16C,0.06800*%
%ADD17R,0.07099X0.04343*%
%ADD18C,0.05500*%
%ADD19C,0.09050*%
D10*
X0016800Y0016800D03*
X0016800Y0251800D03*
X0466800Y0251800D03*
X0466800Y0016800D03*
D11*
X0364300Y0036700D02*
X0364300Y0041900D01*
X0354300Y0041900D02*
X0354300Y0036700D01*
X0344300Y0036700D02*
X0344300Y0041900D01*
X0344300Y0064200D02*
X0344300Y0069400D01*
X0334300Y0069400D02*
X0334300Y0064200D01*
X0354300Y0064200D02*
X0354300Y0069400D01*
X0364300Y0069400D02*
X0364300Y0064200D01*
X0364300Y0094200D02*
X0364300Y0099400D01*
X0354300Y0099400D02*
X0354300Y0094200D01*
X0344300Y0094200D02*
X0344300Y0099400D01*
X0334300Y0099400D02*
X0334300Y0094200D01*
X0334300Y0129200D02*
X0334300Y0134400D01*
X0324300Y0134400D02*
X0324300Y0129200D01*
X0314300Y0129200D02*
X0314300Y0134400D01*
X0294300Y0134400D02*
X0294300Y0129200D01*
X0284300Y0129200D02*
X0284300Y0134400D01*
X0274300Y0134400D02*
X0274300Y0129200D01*
X0264300Y0129200D02*
X0264300Y0134400D01*
X0224300Y0134400D02*
X0224300Y0129200D01*
X0214300Y0129200D02*
X0214300Y0134400D01*
X0204300Y0134400D02*
X0204300Y0129200D01*
X0194300Y0129200D02*
X0194300Y0134400D01*
X0174300Y0134400D02*
X0174300Y0129200D01*
X0164300Y0129200D02*
X0164300Y0134400D01*
X0154300Y0134400D02*
X0154300Y0129200D01*
X0144300Y0129200D02*
X0144300Y0134400D01*
X0124300Y0134400D02*
X0124300Y0129200D01*
X0114300Y0129200D02*
X0114300Y0134400D01*
X0104300Y0134400D02*
X0104300Y0129200D01*
X0094300Y0129200D02*
X0094300Y0134400D01*
X0074300Y0134400D02*
X0074300Y0129200D01*
X0064300Y0129200D02*
X0064300Y0134400D01*
X0054300Y0134400D02*
X0054300Y0129200D01*
X0044300Y0129200D02*
X0044300Y0134400D01*
X0044300Y0159200D02*
X0044300Y0164400D01*
X0054300Y0164400D02*
X0054300Y0159200D01*
X0064300Y0159200D02*
X0064300Y0164400D01*
X0074300Y0164400D02*
X0074300Y0159200D01*
X0094300Y0159200D02*
X0094300Y0164400D01*
X0104300Y0164400D02*
X0104300Y0159200D01*
X0114300Y0159200D02*
X0114300Y0164400D01*
X0124300Y0164400D02*
X0124300Y0159200D01*
X0144300Y0159200D02*
X0144300Y0164400D01*
X0154300Y0164400D02*
X0154300Y0159200D01*
X0164300Y0159200D02*
X0164300Y0164400D01*
X0174300Y0164400D02*
X0174300Y0159200D01*
X0194300Y0159200D02*
X0194300Y0164400D01*
X0204300Y0164400D02*
X0204300Y0159200D01*
X0214300Y0159200D02*
X0214300Y0164400D01*
X0224300Y0164400D02*
X0224300Y0159200D01*
X0264300Y0159200D02*
X0264300Y0164400D01*
X0274300Y0164400D02*
X0274300Y0159200D01*
X0284300Y0159200D02*
X0284300Y0164400D01*
X0294300Y0164400D02*
X0294300Y0159200D01*
X0314300Y0159200D02*
X0314300Y0164400D01*
X0324300Y0164400D02*
X0324300Y0159200D01*
X0334300Y0159200D02*
X0334300Y0164400D01*
X0344300Y0164400D02*
X0344300Y0159200D01*
X0364300Y0159200D02*
X0364300Y0164400D01*
X0374300Y0164400D02*
X0374300Y0159200D01*
X0384300Y0159200D02*
X0384300Y0164400D01*
X0394300Y0164400D02*
X0394300Y0159200D01*
X0414300Y0159200D02*
X0414300Y0164400D01*
X0424300Y0164400D02*
X0424300Y0159200D01*
X0434300Y0159200D02*
X0434300Y0164400D01*
X0444300Y0164400D02*
X0444300Y0159200D01*
X0444300Y0134400D02*
X0444300Y0129200D01*
X0434300Y0129200D02*
X0434300Y0134400D01*
X0424300Y0134400D02*
X0424300Y0129200D01*
X0414300Y0129200D02*
X0414300Y0134400D01*
X0394300Y0134400D02*
X0394300Y0129200D01*
X0384300Y0129200D02*
X0384300Y0134400D01*
X0374300Y0134400D02*
X0374300Y0129200D01*
X0364300Y0129200D02*
X0364300Y0134400D01*
X0344300Y0134400D02*
X0344300Y0129200D01*
X0144300Y0099400D02*
X0144300Y0094200D01*
X0134300Y0094200D02*
X0134300Y0099400D01*
X0124300Y0099400D02*
X0124300Y0094200D01*
X0114300Y0094200D02*
X0114300Y0099400D01*
X0114300Y0069400D02*
X0114300Y0064200D01*
X0124300Y0064200D02*
X0124300Y0069400D01*
X0134300Y0069400D02*
X0134300Y0064200D01*
X0144300Y0064200D02*
X0144300Y0069400D01*
X0144300Y0041900D02*
X0144300Y0036700D01*
X0134300Y0036700D02*
X0134300Y0041900D01*
X0124300Y0041900D02*
X0124300Y0036700D01*
D12*
X0154300Y0053847D03*
X0154300Y0059753D03*
X0124300Y0105347D03*
X0124300Y0111253D03*
X0124300Y0116847D03*
X0124300Y0122753D03*
X0074300Y0122253D03*
X0074300Y0116347D03*
X0054300Y0171347D03*
X0054300Y0177253D03*
X0104300Y0177253D03*
X0104300Y0171347D03*
X0154300Y0171347D03*
X0154300Y0177253D03*
X0204300Y0177253D03*
X0204300Y0171347D03*
X0274300Y0171347D03*
X0274300Y0177253D03*
X0324300Y0177253D03*
X0324300Y0171347D03*
X0374300Y0171347D03*
X0374300Y0177253D03*
X0424300Y0177253D03*
X0424300Y0171347D03*
X0344300Y0122753D03*
X0344300Y0116847D03*
X0344300Y0110753D03*
X0344300Y0104847D03*
X0294300Y0116347D03*
X0294300Y0122253D03*
X0224300Y0122253D03*
X0224300Y0116347D03*
X0185753Y0119300D03*
X0179847Y0119300D03*
X0374300Y0059753D03*
X0374300Y0053847D03*
X0444300Y0116347D03*
X0444300Y0122253D03*
X0407253Y0119300D03*
X0401347Y0119300D03*
D13*
X0285300Y0054300D02*
X0278300Y0054300D01*
X0278300Y0044300D02*
X0285300Y0044300D01*
X0205300Y0044300D02*
X0198300Y0044300D01*
X0198300Y0054300D02*
X0205300Y0054300D01*
X0165300Y0185800D02*
X0158300Y0185800D01*
X0158300Y0216800D02*
X0165300Y0216800D01*
X0258300Y0216800D02*
X0265300Y0216800D01*
X0265300Y0185800D02*
X0258300Y0185800D01*
X0358300Y0185800D02*
X0365300Y0185800D01*
X0365300Y0216800D02*
X0358300Y0216800D01*
X0065300Y0216800D02*
X0058300Y0216800D01*
X0058300Y0185800D02*
X0065300Y0185800D01*
D14*
X0081800Y0196800D03*
X0041800Y0236800D03*
X0141800Y0236800D03*
X0181800Y0196800D03*
X0241800Y0236800D03*
X0281800Y0196800D03*
X0341800Y0236800D03*
X0381800Y0196800D03*
X0261800Y0064300D03*
X0221800Y0024300D03*
X0181800Y0064300D03*
X0301800Y0024300D03*
D15*
X0405824Y0072800D03*
X0433776Y0072800D03*
X0282776Y0104800D03*
X0254824Y0104800D03*
D16*
X0054800Y0094300D02*
X0048800Y0094300D01*
X0048800Y0079300D02*
X0054800Y0079300D01*
X0054800Y0064300D02*
X0048800Y0064300D01*
X0048800Y0049300D02*
X0054800Y0049300D01*
D17*
X0134300Y0129698D03*
X0134300Y0141902D03*
X0134800Y0154198D03*
X0134800Y0166402D03*
X0354800Y0166402D03*
X0354800Y0154198D03*
X0354300Y0141402D03*
X0354300Y0129198D03*
D18*
X0366300Y0117300D03*
X0318300Y0117300D03*
X0281300Y0112800D03*
X0194300Y0119300D03*
X0144300Y0119300D03*
X0094300Y0119300D03*
X0054300Y0111800D03*
X0149300Y0051800D03*
X0369300Y0051800D03*
X0449300Y0071800D03*
X0414300Y0119300D03*
D19*
X0248800Y0126800D03*
X0245800Y0025800D03*
M02*
