G75*
%MOIN*%
%OFA0B0*%
%FSLAX25Y25*%
%IPPOS*%
%LPD*%
%AMOC8*
5,1,8,0,0,1.08239X$1,22.5*
%
%ADD10C,0.05200*%
%ADD11R,0.03150X0.03150*%
%ADD12C,0.07000*%
%ADD13C,0.11811*%
%ADD14R,0.15748X0.06299*%
%ADD15C,0.06000*%
%ADD16R,0.06299X0.03543*%
%ADD17C,0.04700*%
%ADD18C,0.01600*%
%ADD19C,0.04000*%
%ADD20C,0.02000*%
%ADD21C,0.08250*%
D10*
X0114300Y0064200D02*
X0114300Y0069400D01*
X0124300Y0069400D02*
X0124300Y0064200D01*
X0134300Y0064200D02*
X0134300Y0069400D01*
X0144300Y0069400D02*
X0144300Y0064200D01*
X0144300Y0041900D02*
X0144300Y0036700D01*
X0134300Y0036700D02*
X0134300Y0041900D01*
X0124300Y0041900D02*
X0124300Y0036700D01*
X0124300Y0094200D02*
X0124300Y0099400D01*
X0114300Y0099400D02*
X0114300Y0094200D01*
X0134300Y0094200D02*
X0134300Y0099400D01*
X0144300Y0099400D02*
X0144300Y0094200D01*
X0144300Y0129200D02*
X0144300Y0134400D01*
X0154300Y0134400D02*
X0154300Y0129200D01*
X0164300Y0129200D02*
X0164300Y0134400D01*
X0174300Y0134400D02*
X0174300Y0129200D01*
X0194300Y0129200D02*
X0194300Y0134400D01*
X0204300Y0134400D02*
X0204300Y0129200D01*
X0214300Y0129200D02*
X0214300Y0134400D01*
X0224300Y0134400D02*
X0224300Y0129200D01*
X0264300Y0129200D02*
X0264300Y0134400D01*
X0274300Y0134400D02*
X0274300Y0129200D01*
X0284300Y0129200D02*
X0284300Y0134400D01*
X0294300Y0134400D02*
X0294300Y0129200D01*
X0314300Y0129200D02*
X0314300Y0134400D01*
X0324300Y0134400D02*
X0324300Y0129200D01*
X0334300Y0129200D02*
X0334300Y0134400D01*
X0344300Y0134400D02*
X0344300Y0129200D01*
X0364300Y0129200D02*
X0364300Y0134400D01*
X0374300Y0134400D02*
X0374300Y0129200D01*
X0384300Y0129200D02*
X0384300Y0134400D01*
X0394300Y0134400D02*
X0394300Y0129200D01*
X0414300Y0129200D02*
X0414300Y0134400D01*
X0424300Y0134400D02*
X0424300Y0129200D01*
X0434300Y0129200D02*
X0434300Y0134400D01*
X0444300Y0134400D02*
X0444300Y0129200D01*
X0444300Y0159200D02*
X0444300Y0164400D01*
X0434300Y0164400D02*
X0434300Y0159200D01*
X0424300Y0159200D02*
X0424300Y0164400D01*
X0414300Y0164400D02*
X0414300Y0159200D01*
X0394300Y0159200D02*
X0394300Y0164400D01*
X0384300Y0164400D02*
X0384300Y0159200D01*
X0374300Y0159200D02*
X0374300Y0164400D01*
X0364300Y0164400D02*
X0364300Y0159200D01*
X0344300Y0159200D02*
X0344300Y0164400D01*
X0334300Y0164400D02*
X0334300Y0159200D01*
X0324300Y0159200D02*
X0324300Y0164400D01*
X0314300Y0164400D02*
X0314300Y0159200D01*
X0294300Y0159200D02*
X0294300Y0164400D01*
X0284300Y0164400D02*
X0284300Y0159200D01*
X0274300Y0159200D02*
X0274300Y0164400D01*
X0264300Y0164400D02*
X0264300Y0159200D01*
X0224300Y0159200D02*
X0224300Y0164400D01*
X0214300Y0164400D02*
X0214300Y0159200D01*
X0204300Y0159200D02*
X0204300Y0164400D01*
X0194300Y0164400D02*
X0194300Y0159200D01*
X0174300Y0159200D02*
X0174300Y0164400D01*
X0164300Y0164400D02*
X0164300Y0159200D01*
X0154300Y0159200D02*
X0154300Y0164400D01*
X0144300Y0164400D02*
X0144300Y0159200D01*
X0124300Y0159200D02*
X0124300Y0164400D01*
X0114300Y0164400D02*
X0114300Y0159200D01*
X0104300Y0159200D02*
X0104300Y0164400D01*
X0094300Y0164400D02*
X0094300Y0159200D01*
X0074300Y0159200D02*
X0074300Y0164400D01*
X0064300Y0164400D02*
X0064300Y0159200D01*
X0054300Y0159200D02*
X0054300Y0164400D01*
X0044300Y0164400D02*
X0044300Y0159200D01*
X0044300Y0134400D02*
X0044300Y0129200D01*
X0054300Y0129200D02*
X0054300Y0134400D01*
X0064300Y0134400D02*
X0064300Y0129200D01*
X0074300Y0129200D02*
X0074300Y0134400D01*
X0094300Y0134400D02*
X0094300Y0129200D01*
X0104300Y0129200D02*
X0104300Y0134400D01*
X0114300Y0134400D02*
X0114300Y0129200D01*
X0124300Y0129200D02*
X0124300Y0134400D01*
X0334300Y0099400D02*
X0334300Y0094200D01*
X0344300Y0094200D02*
X0344300Y0099400D01*
X0354300Y0099400D02*
X0354300Y0094200D01*
X0364300Y0094200D02*
X0364300Y0099400D01*
X0364300Y0069400D02*
X0364300Y0064200D01*
X0354300Y0064200D02*
X0354300Y0069400D01*
X0344300Y0069400D02*
X0344300Y0064200D01*
X0334300Y0064200D02*
X0334300Y0069400D01*
X0344300Y0041900D02*
X0344300Y0036700D01*
X0354300Y0036700D02*
X0354300Y0041900D01*
X0364300Y0041900D02*
X0364300Y0036700D01*
D11*
X0374300Y0053847D03*
X0374300Y0059753D03*
X0344300Y0104847D03*
X0344300Y0110753D03*
X0344300Y0116847D03*
X0344300Y0122753D03*
X0294300Y0122253D03*
X0294300Y0116347D03*
X0224300Y0116347D03*
X0224300Y0122253D03*
X0185753Y0119300D03*
X0179847Y0119300D03*
X0124300Y0116847D03*
X0124300Y0111253D03*
X0124300Y0105347D03*
X0124300Y0122753D03*
X0074300Y0122253D03*
X0074300Y0116347D03*
X0054300Y0171347D03*
X0054300Y0177253D03*
X0104300Y0177253D03*
X0104300Y0171347D03*
X0154300Y0171347D03*
X0154300Y0177253D03*
X0204300Y0177253D03*
X0204300Y0171347D03*
X0274300Y0171347D03*
X0274300Y0177253D03*
X0324300Y0177253D03*
X0324300Y0171347D03*
X0374300Y0171347D03*
X0374300Y0177253D03*
X0424300Y0177253D03*
X0424300Y0171347D03*
X0444300Y0122253D03*
X0444300Y0116347D03*
X0407253Y0119300D03*
X0401347Y0119300D03*
X0154300Y0059753D03*
X0154300Y0053847D03*
D12*
X0198300Y0054300D02*
X0205300Y0054300D01*
X0205300Y0044300D02*
X0198300Y0044300D01*
X0278300Y0044300D02*
X0285300Y0044300D01*
X0285300Y0054300D02*
X0278300Y0054300D01*
X0265300Y0185800D02*
X0258300Y0185800D01*
X0258300Y0216800D02*
X0265300Y0216800D01*
X0358300Y0216800D02*
X0365300Y0216800D01*
X0365300Y0185800D02*
X0358300Y0185800D01*
X0165300Y0185800D02*
X0158300Y0185800D01*
X0158300Y0216800D02*
X0165300Y0216800D01*
X0065300Y0216800D02*
X0058300Y0216800D01*
X0058300Y0185800D02*
X0065300Y0185800D01*
D13*
X0081800Y0196800D03*
X0041800Y0236800D03*
X0141800Y0236800D03*
X0181800Y0196800D03*
X0241800Y0236800D03*
X0281800Y0196800D03*
X0341800Y0236800D03*
X0381800Y0196800D03*
X0261800Y0064300D03*
X0221800Y0024300D03*
X0181800Y0064300D03*
X0301800Y0024300D03*
D14*
X0405824Y0072800D03*
X0433776Y0072800D03*
X0282776Y0104800D03*
X0254824Y0104800D03*
D15*
X0054800Y0094300D02*
X0048800Y0094300D01*
X0048800Y0079300D02*
X0054800Y0079300D01*
X0054800Y0064300D02*
X0048800Y0064300D01*
X0048800Y0049300D02*
X0054800Y0049300D01*
D16*
X0134300Y0129698D03*
X0134300Y0141902D03*
X0134800Y0154198D03*
X0134800Y0166402D03*
X0354800Y0166402D03*
X0354800Y0154198D03*
X0354300Y0141402D03*
X0354300Y0129198D03*
D17*
X0366300Y0117300D03*
X0318300Y0117300D03*
X0281300Y0112800D03*
X0194300Y0119300D03*
X0144300Y0119300D03*
X0094300Y0119300D03*
X0054300Y0111800D03*
X0149300Y0051800D03*
X0369300Y0051800D03*
X0449300Y0071800D03*
X0414300Y0119300D03*
D18*
X0023738Y0007758D02*
X0021733Y0006600D01*
X0461867Y0006600D01*
X0459862Y0007758D01*
X0457758Y0009862D01*
X0456270Y0012438D01*
X0455500Y0015312D01*
X0455500Y0018288D01*
X0456270Y0021162D01*
X0457758Y0023738D01*
X0459862Y0025842D01*
X0462438Y0027330D01*
X0465312Y0028100D01*
X0468288Y0028100D01*
X0471162Y0027330D01*
X0473738Y0025842D01*
X0475842Y0023738D01*
X0476921Y0021869D01*
X0476921Y0191800D01*
X0389693Y0191800D01*
X0389604Y0191585D01*
X0387014Y0188996D01*
X0383631Y0187594D01*
X0379969Y0187594D01*
X0376585Y0188996D01*
X0373996Y0191585D01*
X0373907Y0191800D01*
X0368584Y0191800D01*
X0369152Y0191565D01*
X0371065Y0189652D01*
X0372100Y0187153D01*
X0372100Y0184447D01*
X0371065Y0181948D01*
X0369152Y0180035D01*
X0366653Y0179000D01*
X0356947Y0179000D01*
X0354448Y0180035D01*
X0352535Y0181948D01*
X0351500Y0184447D01*
X0351500Y0187153D01*
X0352535Y0189652D01*
X0354448Y0191565D01*
X0355016Y0191800D01*
X0289693Y0191800D01*
X0289604Y0191585D01*
X0287014Y0188996D01*
X0283631Y0187594D01*
X0279969Y0187594D01*
X0276585Y0188996D01*
X0273996Y0191585D01*
X0273907Y0191800D01*
X0268584Y0191800D01*
X0269152Y0191565D01*
X0271065Y0189652D01*
X0272100Y0187153D01*
X0272100Y0184447D01*
X0271065Y0181948D01*
X0269152Y0180035D01*
X0266653Y0179000D01*
X0256947Y0179000D01*
X0254448Y0180035D01*
X0252535Y0181948D01*
X0251500Y0184447D01*
X0251500Y0187153D01*
X0252535Y0189652D01*
X0254448Y0191565D01*
X0255016Y0191800D01*
X0189693Y0191800D01*
X0189604Y0191585D01*
X0187014Y0188996D01*
X0183631Y0187594D01*
X0179969Y0187594D01*
X0176585Y0188996D01*
X0173996Y0191585D01*
X0173907Y0191800D01*
X0089693Y0191800D01*
X0089604Y0191585D01*
X0087014Y0188996D01*
X0083631Y0187594D01*
X0079969Y0187594D01*
X0076585Y0188996D01*
X0073996Y0191585D01*
X0073907Y0191800D01*
X0006600Y0191800D01*
X0006600Y0021733D01*
X0007758Y0023738D01*
X0009862Y0025842D01*
X0012438Y0027330D01*
X0015312Y0028100D01*
X0018288Y0028100D01*
X0021162Y0027330D01*
X0023738Y0025842D01*
X0025842Y0023738D01*
X0027330Y0021162D01*
X0028100Y0018288D01*
X0028100Y0015312D01*
X0027330Y0012438D01*
X0025842Y0009862D01*
X0023738Y0007758D01*
X0024175Y0008194D02*
X0459425Y0008194D01*
X0457827Y0009793D02*
X0025773Y0009793D01*
X0026725Y0011391D02*
X0456875Y0011391D01*
X0456122Y0012990D02*
X0027478Y0012990D01*
X0027906Y0014588D02*
X0455694Y0014588D01*
X0455500Y0016187D02*
X0306268Y0016187D01*
X0307014Y0016496D02*
X0309604Y0019085D01*
X0311005Y0022469D01*
X0311005Y0026131D01*
X0309610Y0029500D01*
X0321605Y0029500D01*
X0330307Y0020798D01*
X0331798Y0019307D01*
X0333746Y0018500D01*
X0384854Y0018500D01*
X0386802Y0019307D01*
X0389802Y0022307D01*
X0391293Y0023798D01*
X0392100Y0025746D01*
X0392100Y0067500D01*
X0395433Y0067500D01*
X0396080Y0066853D01*
X0397293Y0066350D01*
X0414354Y0066350D01*
X0415567Y0066853D01*
X0416495Y0067781D01*
X0416998Y0068994D01*
X0416998Y0076606D01*
X0416495Y0077819D01*
X0415567Y0078747D01*
X0414354Y0079250D01*
X0397293Y0079250D01*
X0396357Y0078862D01*
X0397302Y0079807D01*
X0398793Y0081298D01*
X0399600Y0083246D01*
X0399600Y0114425D01*
X0403578Y0114425D01*
X0404791Y0114928D01*
X0405720Y0115856D01*
X0405748Y0115925D01*
X0407253Y0115925D01*
X0409065Y0115925D01*
X0409522Y0116048D01*
X0409933Y0116285D01*
X0410268Y0116620D01*
X0410505Y0117030D01*
X0410628Y0117488D01*
X0410628Y0119300D01*
X0410628Y0121112D01*
X0410505Y0121570D01*
X0410268Y0121980D01*
X0409933Y0122315D01*
X0409522Y0122552D01*
X0409065Y0122675D01*
X0407253Y0122675D01*
X0407253Y0119300D01*
X0410628Y0119300D01*
X0407253Y0119300D01*
X0407253Y0119300D01*
X0407253Y0119300D01*
X0407253Y0115925D01*
X0407253Y0119300D01*
X0407253Y0119300D01*
X0407253Y0122675D01*
X0405748Y0122675D01*
X0405720Y0122744D01*
X0404791Y0123672D01*
X0403578Y0124175D01*
X0399600Y0124175D01*
X0399600Y0126578D01*
X0400200Y0128026D01*
X0400200Y0135574D01*
X0399600Y0137022D01*
X0399600Y0139000D01*
X0410556Y0139000D01*
X0409298Y0137742D01*
X0408400Y0135574D01*
X0408400Y0128026D01*
X0409298Y0125858D01*
X0410958Y0124198D01*
X0413126Y0123300D01*
X0415474Y0123300D01*
X0417642Y0124198D01*
X0419300Y0125856D01*
X0420958Y0124198D01*
X0423126Y0123300D01*
X0425474Y0123300D01*
X0427642Y0124198D01*
X0429300Y0125856D01*
X0430958Y0124198D01*
X0433126Y0123300D01*
X0435474Y0123300D01*
X0437642Y0124198D01*
X0439300Y0125856D01*
X0439790Y0125366D01*
X0439425Y0124484D01*
X0439425Y0120022D01*
X0439928Y0118809D01*
X0440856Y0117880D01*
X0440925Y0117852D01*
X0440925Y0116347D01*
X0440925Y0114535D01*
X0441048Y0114078D01*
X0441285Y0113667D01*
X0441620Y0113332D01*
X0442030Y0113095D01*
X0442488Y0112972D01*
X0444300Y0112972D01*
X0446112Y0112972D01*
X0446570Y0113095D01*
X0446980Y0113332D01*
X0447315Y0113667D01*
X0447552Y0114078D01*
X0447675Y0114535D01*
X0447675Y0116347D01*
X0444300Y0116347D01*
X0444300Y0112972D01*
X0444300Y0116347D01*
X0444300Y0116347D01*
X0444300Y0116347D01*
X0440925Y0116347D01*
X0444300Y0116347D01*
X0444300Y0116347D01*
X0447675Y0116347D01*
X0447675Y0117852D01*
X0447744Y0117880D01*
X0448672Y0118809D01*
X0449175Y0120022D01*
X0449175Y0124484D01*
X0448810Y0125366D01*
X0449302Y0125858D01*
X0450200Y0128026D01*
X0450200Y0135574D01*
X0449600Y0137022D01*
X0449600Y0142854D01*
X0448793Y0144802D01*
X0446293Y0147302D01*
X0444802Y0148793D01*
X0442854Y0149600D01*
X0427095Y0149600D01*
X0428793Y0151298D01*
X0429600Y0153246D01*
X0429600Y0155556D01*
X0430958Y0154198D01*
X0433126Y0153300D01*
X0435474Y0153300D01*
X0437642Y0154198D01*
X0439300Y0155856D01*
X0440958Y0154198D01*
X0443126Y0153300D01*
X0445474Y0153300D01*
X0447642Y0154198D01*
X0449302Y0155858D01*
X0450200Y0158026D01*
X0450200Y0165574D01*
X0449302Y0167742D01*
X0447642Y0169402D01*
X0445474Y0170300D01*
X0443126Y0170300D01*
X0440958Y0169402D01*
X0439300Y0167744D01*
X0437642Y0169402D01*
X0435474Y0170300D01*
X0433126Y0170300D01*
X0430958Y0169402D01*
X0429300Y0167744D01*
X0428810Y0168234D01*
X0429175Y0169116D01*
X0429175Y0173578D01*
X0428672Y0174791D01*
X0427744Y0175720D01*
X0427675Y0175748D01*
X0427675Y0177253D01*
X0427675Y0179065D01*
X0427552Y0179522D01*
X0427315Y0179933D01*
X0426980Y0180268D01*
X0426570Y0180505D01*
X0426112Y0180628D01*
X0424300Y0180628D01*
X0422488Y0180628D01*
X0422030Y0180505D01*
X0421620Y0180268D01*
X0421285Y0179933D01*
X0421048Y0179522D01*
X0420925Y0179065D01*
X0420925Y0177253D01*
X0424300Y0177253D01*
X0424300Y0177253D01*
X0424300Y0180628D01*
X0424300Y0177253D01*
X0427675Y0177253D01*
X0424300Y0177253D01*
X0424300Y0177253D01*
X0424300Y0177253D01*
X0420925Y0177253D01*
X0420925Y0175748D01*
X0420856Y0175720D01*
X0419928Y0174791D01*
X0419425Y0173578D01*
X0419425Y0169116D01*
X0419790Y0168234D01*
X0419300Y0167744D01*
X0417642Y0169402D01*
X0415474Y0170300D01*
X0413126Y0170300D01*
X0410958Y0169402D01*
X0409298Y0167742D01*
X0408400Y0165574D01*
X0408400Y0158026D01*
X0408784Y0157100D01*
X0399816Y0157100D01*
X0400200Y0158026D01*
X0400200Y0165574D01*
X0399302Y0167742D01*
X0397642Y0169402D01*
X0395474Y0170300D01*
X0393126Y0170300D01*
X0390958Y0169402D01*
X0389300Y0167744D01*
X0387642Y0169402D01*
X0385474Y0170300D01*
X0383126Y0170300D01*
X0380958Y0169402D01*
X0379300Y0167744D01*
X0378810Y0168234D01*
X0379175Y0169116D01*
X0379175Y0173578D01*
X0378672Y0174791D01*
X0377744Y0175720D01*
X0377675Y0175748D01*
X0377675Y0177253D01*
X0377675Y0179065D01*
X0377552Y0179522D01*
X0377315Y0179933D01*
X0376980Y0180268D01*
X0376570Y0180505D01*
X0376112Y0180628D01*
X0374300Y0180628D01*
X0372488Y0180628D01*
X0372030Y0180505D01*
X0371620Y0180268D01*
X0371285Y0179933D01*
X0371048Y0179522D01*
X0370925Y0179065D01*
X0370925Y0177253D01*
X0374300Y0177253D01*
X0374300Y0177253D01*
X0374300Y0180628D01*
X0374300Y0177253D01*
X0377675Y0177253D01*
X0374300Y0177253D01*
X0374300Y0177253D01*
X0374300Y0177253D01*
X0370925Y0177253D01*
X0370925Y0175748D01*
X0370856Y0175720D01*
X0369928Y0174791D01*
X0369425Y0173578D01*
X0369425Y0169116D01*
X0369790Y0168234D01*
X0369300Y0167744D01*
X0367642Y0169402D01*
X0365474Y0170300D01*
X0363126Y0170300D01*
X0360958Y0169402D01*
X0359750Y0168193D01*
X0359750Y0168411D01*
X0359627Y0168869D01*
X0359390Y0169279D01*
X0359055Y0169614D01*
X0358644Y0169851D01*
X0358187Y0169974D01*
X0354886Y0169974D01*
X0354886Y0166488D01*
X0354714Y0166488D01*
X0354714Y0166317D01*
X0349892Y0166317D01*
X0349302Y0167742D01*
X0347642Y0169402D01*
X0345474Y0170300D01*
X0343126Y0170300D01*
X0340958Y0169402D01*
X0339300Y0167744D01*
X0337642Y0169402D01*
X0335474Y0170300D01*
X0333126Y0170300D01*
X0330958Y0169402D01*
X0329300Y0167744D01*
X0328810Y0168234D01*
X0329175Y0169116D01*
X0329175Y0173578D01*
X0328672Y0174791D01*
X0327744Y0175720D01*
X0327675Y0175748D01*
X0327675Y0177253D01*
X0327675Y0179065D01*
X0327552Y0179522D01*
X0327315Y0179933D01*
X0326980Y0180268D01*
X0326570Y0180505D01*
X0326112Y0180628D01*
X0324300Y0180628D01*
X0322488Y0180628D01*
X0322030Y0180505D01*
X0321620Y0180268D01*
X0321285Y0179933D01*
X0321048Y0179522D01*
X0320925Y0179065D01*
X0320925Y0177253D01*
X0324300Y0177253D01*
X0324300Y0177253D01*
X0324300Y0180628D01*
X0324300Y0177253D01*
X0327675Y0177253D01*
X0324300Y0177253D01*
X0324300Y0177253D01*
X0324300Y0177253D01*
X0320925Y0177253D01*
X0320925Y0175748D01*
X0320856Y0175720D01*
X0319928Y0174791D01*
X0319425Y0173578D01*
X0319425Y0169116D01*
X0319790Y0168234D01*
X0319300Y0167744D01*
X0317642Y0169402D01*
X0315474Y0170300D01*
X0313126Y0170300D01*
X0310958Y0169402D01*
X0309298Y0167742D01*
X0308400Y0165574D01*
X0308400Y0158026D01*
X0308784Y0157100D01*
X0299816Y0157100D01*
X0300200Y0158026D01*
X0300200Y0165574D01*
X0299302Y0167742D01*
X0297642Y0169402D01*
X0295474Y0170300D01*
X0293126Y0170300D01*
X0290958Y0169402D01*
X0289300Y0167744D01*
X0287642Y0169402D01*
X0285474Y0170300D01*
X0283126Y0170300D01*
X0280958Y0169402D01*
X0279300Y0167744D01*
X0278810Y0168234D01*
X0279175Y0169116D01*
X0279175Y0173578D01*
X0278672Y0174791D01*
X0277744Y0175720D01*
X0277675Y0175748D01*
X0277675Y0177253D01*
X0277675Y0179065D01*
X0277552Y0179522D01*
X0277315Y0179933D01*
X0276980Y0180268D01*
X0276570Y0180505D01*
X0276112Y0180628D01*
X0274300Y0180628D01*
X0272488Y0180628D01*
X0272030Y0180505D01*
X0271620Y0180268D01*
X0271285Y0179933D01*
X0271048Y0179522D01*
X0270925Y0179065D01*
X0270925Y0177253D01*
X0274300Y0177253D01*
X0274300Y0177253D01*
X0274300Y0180628D01*
X0274300Y0177253D01*
X0277675Y0177253D01*
X0274300Y0177253D01*
X0274300Y0177253D01*
X0274300Y0177253D01*
X0270925Y0177253D01*
X0270925Y0175748D01*
X0270856Y0175720D01*
X0269928Y0174791D01*
X0269425Y0173578D01*
X0269425Y0169116D01*
X0269790Y0168234D01*
X0269300Y0167744D01*
X0267642Y0169402D01*
X0265474Y0170300D01*
X0263126Y0170300D01*
X0260958Y0169402D01*
X0259298Y0167742D01*
X0258400Y0165574D01*
X0258400Y0158026D01*
X0259298Y0155858D01*
X0260958Y0154198D01*
X0263126Y0153300D01*
X0265474Y0153300D01*
X0267642Y0154198D01*
X0269000Y0155556D01*
X0269000Y0153246D01*
X0269807Y0151298D01*
X0272307Y0148798D01*
X0273798Y0147307D01*
X0275746Y0146500D01*
X0294005Y0146500D01*
X0289807Y0142302D01*
X0289000Y0140354D01*
X0289000Y0138044D01*
X0287642Y0139402D01*
X0285474Y0140300D01*
X0283126Y0140300D01*
X0280958Y0139402D01*
X0279300Y0137744D01*
X0277642Y0139402D01*
X0275474Y0140300D01*
X0273126Y0140300D01*
X0270958Y0139402D01*
X0269300Y0137744D01*
X0267642Y0139402D01*
X0265474Y0140300D01*
X0263126Y0140300D01*
X0260958Y0139402D01*
X0259298Y0137742D01*
X0258400Y0135574D01*
X0258400Y0128026D01*
X0259298Y0125858D01*
X0260958Y0124198D01*
X0263126Y0123300D01*
X0265474Y0123300D01*
X0267642Y0124198D01*
X0269300Y0125856D01*
X0270958Y0124198D01*
X0273126Y0123300D01*
X0275474Y0123300D01*
X0277642Y0124198D01*
X0279300Y0125856D01*
X0280958Y0124198D01*
X0283126Y0123300D01*
X0285474Y0123300D01*
X0287642Y0124198D01*
X0289300Y0125856D01*
X0289790Y0125366D01*
X0289425Y0124484D01*
X0289425Y0120022D01*
X0289928Y0118809D01*
X0290856Y0117880D01*
X0290925Y0117852D01*
X0290925Y0116347D01*
X0290925Y0114535D01*
X0291048Y0114078D01*
X0291285Y0113667D01*
X0291620Y0113332D01*
X0292030Y0113095D01*
X0292488Y0112972D01*
X0294300Y0112972D01*
X0296112Y0112972D01*
X0296570Y0113095D01*
X0296980Y0113332D01*
X0297315Y0113667D01*
X0297552Y0114078D01*
X0297675Y0114535D01*
X0297675Y0116347D01*
X0294300Y0116347D01*
X0294300Y0112972D01*
X0294300Y0116347D01*
X0294300Y0116347D01*
X0294300Y0116347D01*
X0290925Y0116347D01*
X0294300Y0116347D01*
X0294300Y0116347D01*
X0297675Y0116347D01*
X0297675Y0117852D01*
X0297744Y0117880D01*
X0298672Y0118809D01*
X0299175Y0120022D01*
X0299175Y0124484D01*
X0298810Y0125366D01*
X0299302Y0125858D01*
X0300200Y0128026D01*
X0300200Y0135574D01*
X0299600Y0137022D01*
X0299600Y0137105D01*
X0301495Y0139000D01*
X0310556Y0139000D01*
X0309298Y0137742D01*
X0308400Y0135574D01*
X0308400Y0128026D01*
X0309298Y0125858D01*
X0310958Y0124198D01*
X0313126Y0123300D01*
X0315474Y0123300D01*
X0317642Y0124198D01*
X0319300Y0125856D01*
X0320958Y0124198D01*
X0323126Y0123300D01*
X0325474Y0123300D01*
X0327642Y0124198D01*
X0329300Y0125856D01*
X0330958Y0124198D01*
X0333126Y0123300D01*
X0335474Y0123300D01*
X0337642Y0124198D01*
X0339300Y0125856D01*
X0339644Y0125512D01*
X0339425Y0124984D01*
X0339425Y0120522D01*
X0339928Y0119309D01*
X0340856Y0118380D01*
X0340925Y0118352D01*
X0340925Y0116847D01*
X0340925Y0115035D01*
X0341048Y0114578D01*
X0341285Y0114167D01*
X0341620Y0113832D01*
X0341676Y0113800D01*
X0341620Y0113768D01*
X0341285Y0113433D01*
X0341048Y0113022D01*
X0340925Y0112565D01*
X0340925Y0110753D01*
X0344300Y0110753D01*
X0344300Y0110753D01*
X0344300Y0113472D01*
X0344300Y0116847D01*
X0344300Y0116847D01*
X0344300Y0110753D01*
X0347675Y0110753D01*
X0347675Y0112565D01*
X0347552Y0113022D01*
X0347315Y0113433D01*
X0346980Y0113768D01*
X0346924Y0113800D01*
X0346980Y0113832D01*
X0347315Y0114167D01*
X0347552Y0114578D01*
X0347675Y0115035D01*
X0347675Y0116847D01*
X0344300Y0116847D01*
X0344300Y0116847D01*
X0340925Y0116847D01*
X0344300Y0116847D01*
X0344300Y0116847D01*
X0347675Y0116847D01*
X0347675Y0118352D01*
X0347744Y0118380D01*
X0348672Y0119309D01*
X0349175Y0120522D01*
X0349175Y0124984D01*
X0348956Y0125512D01*
X0349302Y0125858D01*
X0349584Y0126539D01*
X0349710Y0126321D01*
X0350045Y0125986D01*
X0350456Y0125749D01*
X0350913Y0125626D01*
X0354214Y0125626D01*
X0354214Y0129112D01*
X0354386Y0129112D01*
X0354386Y0125626D01*
X0357687Y0125626D01*
X0358144Y0125749D01*
X0358555Y0125986D01*
X0358890Y0126321D01*
X0359016Y0126539D01*
X0359298Y0125858D01*
X0360958Y0124198D01*
X0363126Y0123300D01*
X0365474Y0123300D01*
X0367642Y0124198D01*
X0369300Y0125856D01*
X0370958Y0124198D01*
X0373126Y0123300D01*
X0375474Y0123300D01*
X0377642Y0124198D01*
X0379300Y0125856D01*
X0380958Y0124198D01*
X0383126Y0123300D01*
X0385474Y0123300D01*
X0387642Y0124198D01*
X0389000Y0125556D01*
X0389000Y0086495D01*
X0383798Y0081293D01*
X0383798Y0081293D01*
X0374605Y0072100D01*
X0369568Y0072100D01*
X0369302Y0072742D01*
X0367642Y0074402D01*
X0365474Y0075300D01*
X0363126Y0075300D01*
X0360958Y0074402D01*
X0359300Y0072744D01*
X0357642Y0074402D01*
X0355474Y0075300D01*
X0353126Y0075300D01*
X0350958Y0074402D01*
X0349300Y0072744D01*
X0347642Y0074402D01*
X0345474Y0075300D01*
X0343126Y0075300D01*
X0340958Y0074402D01*
X0339300Y0072744D01*
X0337642Y0074402D01*
X0335474Y0075300D01*
X0333126Y0075300D01*
X0330958Y0074402D01*
X0329298Y0072742D01*
X0328400Y0070574D01*
X0328400Y0063026D01*
X0329298Y0060858D01*
X0330958Y0059198D01*
X0333126Y0058300D01*
X0335474Y0058300D01*
X0337642Y0059198D01*
X0339300Y0060856D01*
X0340958Y0059198D01*
X0343126Y0058300D01*
X0345474Y0058300D01*
X0347642Y0059198D01*
X0349300Y0060856D01*
X0350958Y0059198D01*
X0353126Y0058300D01*
X0355474Y0058300D01*
X0357642Y0059198D01*
X0359300Y0060856D01*
X0360958Y0059198D01*
X0363126Y0058300D01*
X0365474Y0058300D01*
X0367642Y0059198D01*
X0369302Y0060858D01*
X0369425Y0061156D01*
X0369425Y0057522D01*
X0369928Y0056309D01*
X0370856Y0055380D01*
X0370925Y0055352D01*
X0370925Y0053847D01*
X0370925Y0052035D01*
X0371048Y0051578D01*
X0371285Y0051167D01*
X0371620Y0050832D01*
X0372030Y0050595D01*
X0372488Y0050472D01*
X0374300Y0050472D01*
X0376112Y0050472D01*
X0376570Y0050595D01*
X0376980Y0050832D01*
X0377315Y0051167D01*
X0377552Y0051578D01*
X0377675Y0052035D01*
X0377675Y0053847D01*
X0374300Y0053847D01*
X0374300Y0050472D01*
X0374300Y0053847D01*
X0374300Y0053847D01*
X0374300Y0053847D01*
X0370925Y0053847D01*
X0374300Y0053847D01*
X0374300Y0053847D01*
X0377675Y0053847D01*
X0377675Y0055352D01*
X0377744Y0055380D01*
X0378672Y0056309D01*
X0379175Y0057522D01*
X0379175Y0061984D01*
X0379152Y0062038D01*
X0379802Y0062307D01*
X0381500Y0064005D01*
X0381500Y0029100D01*
X0336995Y0029100D01*
X0326802Y0039293D01*
X0324854Y0040100D01*
X0290717Y0040100D01*
X0291065Y0040448D01*
X0292100Y0042947D01*
X0292100Y0045653D01*
X0291065Y0048152D01*
X0289152Y0050065D01*
X0288729Y0050240D01*
X0288753Y0050257D01*
X0289343Y0050847D01*
X0289833Y0051522D01*
X0290212Y0052266D01*
X0290469Y0053059D01*
X0290600Y0053883D01*
X0290600Y0054116D01*
X0281984Y0054116D01*
X0281984Y0054484D01*
X0281616Y0054484D01*
X0281616Y0054116D01*
X0273000Y0054116D01*
X0273000Y0053883D01*
X0273130Y0053059D01*
X0273388Y0052266D01*
X0273767Y0051522D01*
X0274257Y0050847D01*
X0274847Y0050257D01*
X0274871Y0050240D01*
X0274448Y0050065D01*
X0272535Y0048152D01*
X0271500Y0045653D01*
X0271500Y0042947D01*
X0272535Y0040448D01*
X0272883Y0040100D01*
X0210717Y0040100D01*
X0211065Y0040448D01*
X0212100Y0042947D01*
X0212100Y0045653D01*
X0211065Y0048152D01*
X0209152Y0050065D01*
X0208729Y0050240D01*
X0208753Y0050257D01*
X0209343Y0050847D01*
X0209833Y0051522D01*
X0210212Y0052266D01*
X0210469Y0053059D01*
X0210600Y0053883D01*
X0210600Y0054116D01*
X0201984Y0054116D01*
X0201984Y0054484D01*
X0201616Y0054484D01*
X0201616Y0054116D01*
X0193000Y0054116D01*
X0193000Y0053883D01*
X0193130Y0053059D01*
X0193388Y0052266D01*
X0193767Y0051522D01*
X0194257Y0050847D01*
X0194847Y0050257D01*
X0194871Y0050240D01*
X0194448Y0050065D01*
X0192535Y0048152D01*
X0191500Y0045653D01*
X0191500Y0042947D01*
X0192535Y0040448D01*
X0194448Y0038535D01*
X0196947Y0037500D01*
X0204005Y0037500D01*
X0193605Y0027100D01*
X0173995Y0027100D01*
X0170100Y0030995D01*
X0170100Y0065560D01*
X0170174Y0066370D01*
X0170100Y0066607D01*
X0170100Y0066854D01*
X0169789Y0067606D01*
X0169546Y0068383D01*
X0169388Y0068573D01*
X0169293Y0068802D01*
X0168718Y0069378D01*
X0165100Y0073719D01*
X0165100Y0095605D01*
X0177802Y0108307D01*
X0179293Y0109798D01*
X0180100Y0111746D01*
X0180100Y0114425D01*
X0182078Y0114425D01*
X0183291Y0114928D01*
X0184220Y0115856D01*
X0184248Y0115925D01*
X0185753Y0115925D01*
X0187565Y0115925D01*
X0188022Y0116048D01*
X0188433Y0116285D01*
X0188768Y0116620D01*
X0189005Y0117030D01*
X0189128Y0117488D01*
X0189128Y0119300D01*
X0189128Y0121112D01*
X0189005Y0121570D01*
X0188768Y0121980D01*
X0188433Y0122315D01*
X0188022Y0122552D01*
X0187565Y0122675D01*
X0185753Y0122675D01*
X0185753Y0119300D01*
X0189128Y0119300D01*
X0185753Y0119300D01*
X0185753Y0119300D01*
X0185753Y0119300D01*
X0185753Y0115925D01*
X0185753Y0119300D01*
X0185753Y0119300D01*
X0185753Y0122675D01*
X0184248Y0122675D01*
X0184220Y0122744D01*
X0183291Y0123672D01*
X0182078Y0124175D01*
X0179600Y0124175D01*
X0179600Y0126578D01*
X0180200Y0128026D01*
X0180200Y0135574D01*
X0179600Y0137022D01*
X0179600Y0139000D01*
X0190556Y0139000D01*
X0189298Y0137742D01*
X0188400Y0135574D01*
X0188400Y0128026D01*
X0189298Y0125858D01*
X0190958Y0124198D01*
X0193126Y0123300D01*
X0195474Y0123300D01*
X0197642Y0124198D01*
X0199300Y0125856D01*
X0200958Y0124198D01*
X0203126Y0123300D01*
X0205474Y0123300D01*
X0207642Y0124198D01*
X0209300Y0125856D01*
X0210958Y0124198D01*
X0213126Y0123300D01*
X0215474Y0123300D01*
X0217642Y0124198D01*
X0219300Y0125856D01*
X0219790Y0125366D01*
X0219425Y0124484D01*
X0219425Y0120022D01*
X0219928Y0118809D01*
X0220856Y0117880D01*
X0220925Y0117852D01*
X0220925Y0116347D01*
X0220925Y0114535D01*
X0221048Y0114078D01*
X0221285Y0113667D01*
X0221620Y0113332D01*
X0222030Y0113095D01*
X0222488Y0112972D01*
X0224300Y0112972D01*
X0226112Y0112972D01*
X0226570Y0113095D01*
X0226980Y0113332D01*
X0227315Y0113667D01*
X0227552Y0114078D01*
X0227675Y0114535D01*
X0227675Y0116347D01*
X0224300Y0116347D01*
X0224300Y0112972D01*
X0224300Y0116347D01*
X0224300Y0116347D01*
X0224300Y0116347D01*
X0220925Y0116347D01*
X0224300Y0116347D01*
X0224300Y0116347D01*
X0227675Y0116347D01*
X0227675Y0117852D01*
X0227744Y0117880D01*
X0228672Y0118809D01*
X0229175Y0120022D01*
X0229175Y0124484D01*
X0228810Y0125366D01*
X0229302Y0125858D01*
X0230200Y0128026D01*
X0230200Y0135574D01*
X0229600Y0137022D01*
X0229600Y0142854D01*
X0228793Y0144802D01*
X0226293Y0147302D01*
X0224802Y0148793D01*
X0222854Y0149600D01*
X0207095Y0149600D01*
X0208793Y0151298D01*
X0209600Y0153246D01*
X0209600Y0155556D01*
X0210958Y0154198D01*
X0213126Y0153300D01*
X0215474Y0153300D01*
X0217642Y0154198D01*
X0219300Y0155856D01*
X0220958Y0154198D01*
X0223126Y0153300D01*
X0225474Y0153300D01*
X0227642Y0154198D01*
X0229302Y0155858D01*
X0230200Y0158026D01*
X0230200Y0165574D01*
X0229302Y0167742D01*
X0227642Y0169402D01*
X0225474Y0170300D01*
X0223126Y0170300D01*
X0220958Y0169402D01*
X0219300Y0167744D01*
X0217642Y0169402D01*
X0215474Y0170300D01*
X0213126Y0170300D01*
X0210958Y0169402D01*
X0209300Y0167744D01*
X0208810Y0168234D01*
X0209175Y0169116D01*
X0209175Y0173578D01*
X0208672Y0174791D01*
X0207744Y0175720D01*
X0207675Y0175748D01*
X0207675Y0177253D01*
X0207675Y0179065D01*
X0207552Y0179522D01*
X0207315Y0179933D01*
X0206980Y0180268D01*
X0206570Y0180505D01*
X0206112Y0180628D01*
X0204300Y0180628D01*
X0202488Y0180628D01*
X0202030Y0180505D01*
X0201620Y0180268D01*
X0201285Y0179933D01*
X0201048Y0179522D01*
X0200925Y0179065D01*
X0200925Y0177253D01*
X0204300Y0177253D01*
X0204300Y0177253D01*
X0204300Y0180628D01*
X0204300Y0177253D01*
X0207675Y0177253D01*
X0204300Y0177253D01*
X0204300Y0177253D01*
X0204300Y0177253D01*
X0200925Y0177253D01*
X0200925Y0175748D01*
X0200856Y0175720D01*
X0199928Y0174791D01*
X0199425Y0173578D01*
X0199425Y0169116D01*
X0199790Y0168234D01*
X0199300Y0167744D01*
X0197642Y0169402D01*
X0195474Y0170300D01*
X0193126Y0170300D01*
X0190958Y0169402D01*
X0189298Y0167742D01*
X0188400Y0165574D01*
X0188400Y0158026D01*
X0188784Y0157100D01*
X0179816Y0157100D01*
X0180200Y0158026D01*
X0180200Y0165574D01*
X0179302Y0167742D01*
X0177642Y0169402D01*
X0175474Y0170300D01*
X0173126Y0170300D01*
X0170958Y0169402D01*
X0169300Y0167744D01*
X0167642Y0169402D01*
X0165474Y0170300D01*
X0163126Y0170300D01*
X0160958Y0169402D01*
X0159300Y0167744D01*
X0158810Y0168234D01*
X0159175Y0169116D01*
X0159175Y0173578D01*
X0158672Y0174791D01*
X0157744Y0175720D01*
X0157675Y0175748D01*
X0157675Y0177253D01*
X0157675Y0179065D01*
X0157552Y0179522D01*
X0157315Y0179933D01*
X0156980Y0180268D01*
X0156570Y0180505D01*
X0156112Y0180628D01*
X0154300Y0180628D01*
X0152488Y0180628D01*
X0152030Y0180505D01*
X0151620Y0180268D01*
X0151285Y0179933D01*
X0151048Y0179522D01*
X0150925Y0179065D01*
X0150925Y0177253D01*
X0154300Y0177253D01*
X0154300Y0177253D01*
X0154300Y0180628D01*
X0154300Y0177253D01*
X0157675Y0177253D01*
X0154300Y0177253D01*
X0154300Y0177253D01*
X0154300Y0177253D01*
X0150925Y0177253D01*
X0150925Y0175748D01*
X0150856Y0175720D01*
X0149928Y0174791D01*
X0149425Y0173578D01*
X0149425Y0169116D01*
X0149790Y0168234D01*
X0149300Y0167744D01*
X0147642Y0169402D01*
X0145474Y0170300D01*
X0143126Y0170300D01*
X0140958Y0169402D01*
X0139750Y0168193D01*
X0139750Y0168411D01*
X0139627Y0168869D01*
X0139390Y0169279D01*
X0139055Y0169614D01*
X0138644Y0169851D01*
X0138187Y0169974D01*
X0134886Y0169974D01*
X0134886Y0166488D01*
X0138779Y0166488D01*
X0138708Y0166317D01*
X0134886Y0166317D01*
X0134886Y0166488D01*
X0134714Y0166488D01*
X0134714Y0166317D01*
X0129892Y0166317D01*
X0129302Y0167742D01*
X0127642Y0169402D01*
X0125474Y0170300D01*
X0123126Y0170300D01*
X0120958Y0169402D01*
X0119300Y0167744D01*
X0117642Y0169402D01*
X0115474Y0170300D01*
X0113126Y0170300D01*
X0110958Y0169402D01*
X0109300Y0167744D01*
X0108810Y0168234D01*
X0109175Y0169116D01*
X0109175Y0173578D01*
X0108672Y0174791D01*
X0107744Y0175720D01*
X0107675Y0175748D01*
X0107675Y0177253D01*
X0107675Y0179065D01*
X0107552Y0179522D01*
X0107315Y0179933D01*
X0106980Y0180268D01*
X0106570Y0180505D01*
X0106112Y0180628D01*
X0104300Y0180628D01*
X0102488Y0180628D01*
X0102030Y0180505D01*
X0101620Y0180268D01*
X0101285Y0179933D01*
X0101048Y0179522D01*
X0100925Y0179065D01*
X0100925Y0177253D01*
X0104300Y0177253D01*
X0104300Y0177253D01*
X0104300Y0180628D01*
X0104300Y0177253D01*
X0107675Y0177253D01*
X0104300Y0177253D01*
X0104300Y0177253D01*
X0104300Y0177253D01*
X0100925Y0177253D01*
X0100925Y0175748D01*
X0100856Y0175720D01*
X0099928Y0174791D01*
X0099425Y0173578D01*
X0099425Y0169116D01*
X0099790Y0168234D01*
X0099300Y0167744D01*
X0097642Y0169402D01*
X0095474Y0170300D01*
X0093126Y0170300D01*
X0090958Y0169402D01*
X0089298Y0167742D01*
X0088400Y0165574D01*
X0088400Y0158026D01*
X0088784Y0157100D01*
X0079816Y0157100D01*
X0080200Y0158026D01*
X0080200Y0165574D01*
X0079302Y0167742D01*
X0077642Y0169402D01*
X0075474Y0170300D01*
X0073126Y0170300D01*
X0070958Y0169402D01*
X0069300Y0167744D01*
X0067642Y0169402D01*
X0065474Y0170300D01*
X0063126Y0170300D01*
X0060958Y0169402D01*
X0059300Y0167744D01*
X0058810Y0168234D01*
X0059175Y0169116D01*
X0059175Y0173578D01*
X0058672Y0174791D01*
X0057744Y0175720D01*
X0057675Y0175748D01*
X0057675Y0177253D01*
X0057675Y0179065D01*
X0057552Y0179522D01*
X0057315Y0179933D01*
X0056980Y0180268D01*
X0056570Y0180505D01*
X0056112Y0180628D01*
X0054300Y0180628D01*
X0052488Y0180628D01*
X0052030Y0180505D01*
X0051620Y0180268D01*
X0051285Y0179933D01*
X0051048Y0179522D01*
X0050925Y0179065D01*
X0050925Y0177253D01*
X0054300Y0177253D01*
X0054300Y0177253D01*
X0054300Y0180628D01*
X0054300Y0177253D01*
X0057675Y0177253D01*
X0054300Y0177253D01*
X0054300Y0177253D01*
X0054300Y0177253D01*
X0050925Y0177253D01*
X0050925Y0175748D01*
X0050856Y0175720D01*
X0049928Y0174791D01*
X0049425Y0173578D01*
X0049425Y0169116D01*
X0049790Y0168234D01*
X0049300Y0167744D01*
X0047642Y0169402D01*
X0045474Y0170300D01*
X0043126Y0170300D01*
X0040958Y0169402D01*
X0039298Y0167742D01*
X0038400Y0165574D01*
X0038400Y0158026D01*
X0039298Y0155858D01*
X0040958Y0154198D01*
X0043126Y0153300D01*
X0045474Y0153300D01*
X0047642Y0154198D01*
X0049000Y0155556D01*
X0049000Y0153246D01*
X0049807Y0151298D01*
X0051298Y0149807D01*
X0052307Y0148798D01*
X0052307Y0148798D01*
X0053798Y0147307D01*
X0055746Y0146500D01*
X0074005Y0146500D01*
X0069807Y0142302D01*
X0069000Y0140354D01*
X0069000Y0138044D01*
X0067642Y0139402D01*
X0065474Y0140300D01*
X0063126Y0140300D01*
X0060958Y0139402D01*
X0059300Y0137744D01*
X0057642Y0139402D01*
X0055474Y0140300D01*
X0053126Y0140300D01*
X0050958Y0139402D01*
X0049300Y0137744D01*
X0047642Y0139402D01*
X0045474Y0140300D01*
X0043126Y0140300D01*
X0040958Y0139402D01*
X0039298Y0137742D01*
X0038400Y0135574D01*
X0038400Y0128026D01*
X0039298Y0125858D01*
X0040958Y0124198D01*
X0043126Y0123300D01*
X0045474Y0123300D01*
X0047642Y0124198D01*
X0049300Y0125856D01*
X0050958Y0124198D01*
X0053126Y0123300D01*
X0055474Y0123300D01*
X0057642Y0124198D01*
X0059300Y0125856D01*
X0060958Y0124198D01*
X0063126Y0123300D01*
X0065474Y0123300D01*
X0067642Y0124198D01*
X0069300Y0125856D01*
X0069790Y0125366D01*
X0069425Y0124484D01*
X0069425Y0120022D01*
X0069928Y0118809D01*
X0070856Y0117880D01*
X0070925Y0117852D01*
X0070925Y0116347D01*
X0070925Y0114535D01*
X0071048Y0114078D01*
X0071285Y0113667D01*
X0071620Y0113332D01*
X0072030Y0113095D01*
X0072488Y0112972D01*
X0074300Y0112972D01*
X0076112Y0112972D01*
X0076570Y0113095D01*
X0076980Y0113332D01*
X0077315Y0113667D01*
X0077552Y0114078D01*
X0077675Y0114535D01*
X0077675Y0116347D01*
X0074300Y0116347D01*
X0074300Y0112972D01*
X0074300Y0116347D01*
X0074300Y0116347D01*
X0074300Y0116347D01*
X0070925Y0116347D01*
X0074300Y0116347D01*
X0074300Y0116347D01*
X0077675Y0116347D01*
X0077675Y0117852D01*
X0077744Y0117880D01*
X0078672Y0118809D01*
X0079175Y0120022D01*
X0079175Y0124484D01*
X0078810Y0125366D01*
X0079302Y0125858D01*
X0080200Y0128026D01*
X0080200Y0135574D01*
X0079600Y0137022D01*
X0079600Y0137105D01*
X0081495Y0139000D01*
X0090556Y0139000D01*
X0089298Y0137742D01*
X0088400Y0135574D01*
X0088400Y0128026D01*
X0089298Y0125858D01*
X0090958Y0124198D01*
X0093126Y0123300D01*
X0095474Y0123300D01*
X0097642Y0124198D01*
X0099300Y0125856D01*
X0100958Y0124198D01*
X0103126Y0123300D01*
X0105474Y0123300D01*
X0107642Y0124198D01*
X0109300Y0125856D01*
X0110958Y0124198D01*
X0113126Y0123300D01*
X0115474Y0123300D01*
X0117642Y0124198D01*
X0119300Y0125856D01*
X0119644Y0125512D01*
X0119425Y0124984D01*
X0119425Y0120522D01*
X0119928Y0119309D01*
X0120856Y0118380D01*
X0120925Y0118352D01*
X0120925Y0116847D01*
X0120925Y0115035D01*
X0121048Y0114578D01*
X0121285Y0114167D01*
X0121402Y0114050D01*
X0121285Y0113933D01*
X0121048Y0113522D01*
X0120925Y0113065D01*
X0120925Y0111253D01*
X0124300Y0111253D01*
X0124300Y0111253D01*
X0124300Y0113472D01*
X0124300Y0116847D01*
X0124300Y0116847D01*
X0124300Y0111253D01*
X0127675Y0111253D01*
X0127675Y0113065D01*
X0127552Y0113522D01*
X0127315Y0113933D01*
X0127198Y0114050D01*
X0127315Y0114167D01*
X0127552Y0114578D01*
X0127675Y0115035D01*
X0127675Y0116847D01*
X0124300Y0116847D01*
X0124300Y0116847D01*
X0120925Y0116847D01*
X0124300Y0116847D01*
X0124300Y0116847D01*
X0127675Y0116847D01*
X0127675Y0118352D01*
X0127744Y0118380D01*
X0128672Y0119309D01*
X0129175Y0120522D01*
X0129175Y0124984D01*
X0128956Y0125512D01*
X0129302Y0125858D01*
X0129705Y0126830D01*
X0129710Y0126821D01*
X0130045Y0126486D01*
X0130456Y0126249D01*
X0130913Y0126126D01*
X0134214Y0126126D01*
X0134214Y0129612D01*
X0134386Y0129612D01*
X0134386Y0126126D01*
X0137687Y0126126D01*
X0138144Y0126249D01*
X0138555Y0126486D01*
X0138890Y0126821D01*
X0138895Y0126830D01*
X0139298Y0125858D01*
X0140958Y0124198D01*
X0143126Y0123300D01*
X0145474Y0123300D01*
X0147642Y0124198D01*
X0149300Y0125856D01*
X0150958Y0124198D01*
X0153126Y0123300D01*
X0155474Y0123300D01*
X0157642Y0124198D01*
X0159300Y0125856D01*
X0160958Y0124198D01*
X0163126Y0123300D01*
X0165474Y0123300D01*
X0167642Y0124198D01*
X0169000Y0125556D01*
X0169000Y0118246D01*
X0169500Y0117039D01*
X0169500Y0114995D01*
X0155307Y0100802D01*
X0154500Y0098854D01*
X0154500Y0073995D01*
X0152605Y0072100D01*
X0149568Y0072100D01*
X0149302Y0072742D01*
X0147642Y0074402D01*
X0145474Y0075300D01*
X0143126Y0075300D01*
X0140958Y0074402D01*
X0139300Y0072744D01*
X0137642Y0074402D01*
X0135474Y0075300D01*
X0133126Y0075300D01*
X0130958Y0074402D01*
X0129300Y0072744D01*
X0127642Y0074402D01*
X0125474Y0075300D01*
X0123126Y0075300D01*
X0120958Y0074402D01*
X0119300Y0072744D01*
X0117642Y0074402D01*
X0115474Y0075300D01*
X0113126Y0075300D01*
X0110958Y0074402D01*
X0109298Y0072742D01*
X0108400Y0070574D01*
X0108400Y0063026D01*
X0109298Y0060858D01*
X0110958Y0059198D01*
X0113126Y0058300D01*
X0115474Y0058300D01*
X0117642Y0059198D01*
X0119300Y0060856D01*
X0120958Y0059198D01*
X0123126Y0058300D01*
X0125474Y0058300D01*
X0127642Y0059198D01*
X0129300Y0060856D01*
X0130958Y0059198D01*
X0133126Y0058300D01*
X0135474Y0058300D01*
X0137642Y0059198D01*
X0139300Y0060856D01*
X0140958Y0059198D01*
X0143126Y0058300D01*
X0145474Y0058300D01*
X0147642Y0059198D01*
X0149302Y0060858D01*
X0149425Y0061156D01*
X0149425Y0057522D01*
X0149928Y0056309D01*
X0150856Y0055380D01*
X0150925Y0055352D01*
X0150925Y0053847D01*
X0150925Y0052035D01*
X0151048Y0051578D01*
X0151285Y0051167D01*
X0151620Y0050832D01*
X0152030Y0050595D01*
X0152488Y0050472D01*
X0154300Y0050472D01*
X0156112Y0050472D01*
X0156570Y0050595D01*
X0156980Y0050832D01*
X0157315Y0051167D01*
X0157552Y0051578D01*
X0157675Y0052035D01*
X0157675Y0053847D01*
X0154300Y0053847D01*
X0154300Y0050472D01*
X0154300Y0053847D01*
X0154300Y0053847D01*
X0154300Y0053847D01*
X0150925Y0053847D01*
X0154300Y0053847D01*
X0154300Y0053847D01*
X0157675Y0053847D01*
X0157675Y0055352D01*
X0157744Y0055380D01*
X0158672Y0056309D01*
X0159175Y0057522D01*
X0159175Y0061984D01*
X0158678Y0063183D01*
X0159444Y0063949D01*
X0159500Y0063881D01*
X0159500Y0027746D01*
X0160307Y0025798D01*
X0161798Y0024307D01*
X0167307Y0018798D01*
X0167307Y0018798D01*
X0168798Y0017307D01*
X0170746Y0016500D01*
X0196854Y0016500D01*
X0198802Y0017307D01*
X0210995Y0029500D01*
X0213990Y0029500D01*
X0212594Y0026131D01*
X0212594Y0022469D01*
X0213996Y0019085D01*
X0216585Y0016496D01*
X0219969Y0015094D01*
X0223631Y0015094D01*
X0227014Y0016496D01*
X0229604Y0019085D01*
X0231005Y0022469D01*
X0231005Y0026131D01*
X0229610Y0029500D01*
X0239296Y0029500D01*
X0238375Y0027277D01*
X0238375Y0024323D01*
X0239505Y0021594D01*
X0241594Y0019505D01*
X0244323Y0018375D01*
X0247277Y0018375D01*
X0250006Y0019505D01*
X0252095Y0021594D01*
X0253225Y0024323D01*
X0253225Y0027277D01*
X0252304Y0029500D01*
X0293990Y0029500D01*
X0292594Y0026131D01*
X0292594Y0022469D01*
X0293996Y0019085D01*
X0296585Y0016496D01*
X0299969Y0015094D01*
X0303631Y0015094D01*
X0307014Y0016496D01*
X0308304Y0017785D02*
X0455500Y0017785D01*
X0455794Y0019384D02*
X0386879Y0019384D01*
X0388477Y0020982D02*
X0456222Y0020982D01*
X0457089Y0022581D02*
X0390076Y0022581D01*
X0389802Y0022307D02*
X0389802Y0022307D01*
X0391451Y0024179D02*
X0458199Y0024179D01*
X0459797Y0025778D02*
X0392100Y0025778D01*
X0392100Y0027376D02*
X0462611Y0027376D01*
X0470989Y0027376D02*
X0476921Y0027376D01*
X0476921Y0025778D02*
X0473803Y0025778D01*
X0475401Y0024179D02*
X0476921Y0024179D01*
X0476921Y0022581D02*
X0476511Y0022581D01*
X0476921Y0028975D02*
X0392100Y0028975D01*
X0392100Y0030573D02*
X0476921Y0030573D01*
X0476921Y0032172D02*
X0392100Y0032172D01*
X0392100Y0033770D02*
X0476921Y0033770D01*
X0476921Y0035369D02*
X0392100Y0035369D01*
X0392100Y0036967D02*
X0476921Y0036967D01*
X0476921Y0038566D02*
X0392100Y0038566D01*
X0392100Y0040164D02*
X0476921Y0040164D01*
X0476921Y0041763D02*
X0392100Y0041763D01*
X0392100Y0043361D02*
X0476921Y0043361D01*
X0476921Y0044960D02*
X0392100Y0044960D01*
X0392100Y0046558D02*
X0476921Y0046558D01*
X0476921Y0048157D02*
X0392100Y0048157D01*
X0392100Y0049755D02*
X0476921Y0049755D01*
X0476921Y0051354D02*
X0392100Y0051354D01*
X0392100Y0052952D02*
X0476921Y0052952D01*
X0476921Y0054551D02*
X0392100Y0054551D01*
X0392100Y0056149D02*
X0476921Y0056149D01*
X0476921Y0057748D02*
X0392100Y0057748D01*
X0392100Y0059346D02*
X0476921Y0059346D01*
X0476921Y0060945D02*
X0392100Y0060945D01*
X0392100Y0062543D02*
X0476921Y0062543D01*
X0476921Y0064142D02*
X0392100Y0064142D01*
X0392100Y0065740D02*
X0476921Y0065740D01*
X0476921Y0067339D02*
X0416053Y0067339D01*
X0416974Y0068937D02*
X0424235Y0068937D01*
X0424225Y0068956D02*
X0424462Y0068545D01*
X0424797Y0068210D01*
X0425208Y0067973D01*
X0425665Y0067850D01*
X0433002Y0067850D01*
X0433002Y0072025D01*
X0434551Y0072025D01*
X0434551Y0067850D01*
X0441887Y0067850D01*
X0442345Y0067973D01*
X0442756Y0068210D01*
X0443091Y0068545D01*
X0443328Y0068956D01*
X0443450Y0069413D01*
X0443450Y0072025D01*
X0434551Y0072025D01*
X0434551Y0073575D01*
X0433002Y0073575D01*
X0433002Y0077750D01*
X0425665Y0077750D01*
X0425208Y0077627D01*
X0424797Y0077390D01*
X0424462Y0077055D01*
X0424225Y0076644D01*
X0424102Y0076187D01*
X0424102Y0073575D01*
X0433001Y0073575D01*
X0433001Y0072025D01*
X0424102Y0072025D01*
X0424102Y0069413D01*
X0424225Y0068956D01*
X0424102Y0070536D02*
X0416998Y0070536D01*
X0416998Y0072134D02*
X0433001Y0072134D01*
X0434551Y0072134D02*
X0476921Y0072134D01*
X0476921Y0070536D02*
X0443450Y0070536D01*
X0443317Y0068937D02*
X0476921Y0068937D01*
X0476921Y0073733D02*
X0443450Y0073733D01*
X0443450Y0073575D02*
X0443450Y0076187D01*
X0443328Y0076644D01*
X0443091Y0077055D01*
X0442756Y0077390D01*
X0442345Y0077627D01*
X0441887Y0077750D01*
X0434551Y0077750D01*
X0434551Y0073575D01*
X0443450Y0073575D01*
X0443450Y0075332D02*
X0476921Y0075332D01*
X0476921Y0076930D02*
X0443163Y0076930D01*
X0434551Y0076930D02*
X0433002Y0076930D01*
X0433002Y0075332D02*
X0434551Y0075332D01*
X0434551Y0073733D02*
X0433002Y0073733D01*
X0433002Y0070536D02*
X0434551Y0070536D01*
X0434551Y0068937D02*
X0433002Y0068937D01*
X0424102Y0073733D02*
X0416998Y0073733D01*
X0416998Y0075332D02*
X0424102Y0075332D01*
X0424390Y0076930D02*
X0416863Y0076930D01*
X0415786Y0078529D02*
X0476921Y0078529D01*
X0476921Y0080127D02*
X0397622Y0080127D01*
X0397302Y0079807D02*
X0397302Y0079807D01*
X0398970Y0081726D02*
X0476921Y0081726D01*
X0476921Y0083324D02*
X0399600Y0083324D01*
X0399600Y0084923D02*
X0476921Y0084923D01*
X0476921Y0086521D02*
X0399600Y0086521D01*
X0399600Y0088120D02*
X0476921Y0088120D01*
X0476921Y0089718D02*
X0399600Y0089718D01*
X0399600Y0091317D02*
X0476921Y0091317D01*
X0476921Y0092915D02*
X0399600Y0092915D01*
X0399600Y0094514D02*
X0476921Y0094514D01*
X0476921Y0096112D02*
X0399600Y0096112D01*
X0399600Y0097711D02*
X0476921Y0097711D01*
X0476921Y0099309D02*
X0399600Y0099309D01*
X0399600Y0100908D02*
X0476921Y0100908D01*
X0476921Y0102506D02*
X0399600Y0102506D01*
X0399600Y0104105D02*
X0476921Y0104105D01*
X0476921Y0105703D02*
X0399600Y0105703D01*
X0399600Y0107302D02*
X0476921Y0107302D01*
X0476921Y0108900D02*
X0399600Y0108900D01*
X0399600Y0110499D02*
X0476921Y0110499D01*
X0476921Y0112097D02*
X0399600Y0112097D01*
X0399600Y0113696D02*
X0441268Y0113696D01*
X0440925Y0115294D02*
X0405158Y0115294D01*
X0407253Y0116893D02*
X0407253Y0116893D01*
X0407253Y0118491D02*
X0407253Y0118491D01*
X0407253Y0120090D02*
X0407253Y0120090D01*
X0407253Y0121688D02*
X0407253Y0121688D01*
X0405177Y0123287D02*
X0439425Y0123287D01*
X0439425Y0121688D02*
X0410436Y0121688D01*
X0410628Y0120090D02*
X0439425Y0120090D01*
X0440245Y0118491D02*
X0410628Y0118491D01*
X0410425Y0116893D02*
X0440925Y0116893D01*
X0444300Y0115294D02*
X0444300Y0115294D01*
X0444300Y0113696D02*
X0444300Y0113696D01*
X0447332Y0113696D02*
X0476921Y0113696D01*
X0476921Y0115294D02*
X0447675Y0115294D01*
X0447675Y0116893D02*
X0476921Y0116893D01*
X0476921Y0118491D02*
X0448355Y0118491D01*
X0449175Y0120090D02*
X0476921Y0120090D01*
X0476921Y0121688D02*
X0449175Y0121688D01*
X0449175Y0123287D02*
X0476921Y0123287D01*
X0476921Y0124885D02*
X0449009Y0124885D01*
X0449561Y0126484D02*
X0476921Y0126484D01*
X0476921Y0128082D02*
X0450200Y0128082D01*
X0450200Y0129681D02*
X0476921Y0129681D01*
X0476921Y0131279D02*
X0450200Y0131279D01*
X0450200Y0132878D02*
X0476921Y0132878D01*
X0476921Y0134476D02*
X0450200Y0134476D01*
X0449992Y0136075D02*
X0476921Y0136075D01*
X0476921Y0137673D02*
X0449600Y0137673D01*
X0449600Y0139272D02*
X0476921Y0139272D01*
X0476921Y0140870D02*
X0449600Y0140870D01*
X0449600Y0142469D02*
X0476921Y0142469D01*
X0476921Y0144068D02*
X0449097Y0144068D01*
X0447929Y0145666D02*
X0476921Y0145666D01*
X0476921Y0147265D02*
X0446331Y0147265D01*
X0444633Y0148863D02*
X0476921Y0148863D01*
X0476921Y0150462D02*
X0427957Y0150462D01*
X0429109Y0152060D02*
X0476921Y0152060D01*
X0476921Y0153659D02*
X0446339Y0153659D01*
X0448701Y0155257D02*
X0476921Y0155257D01*
X0476921Y0156856D02*
X0449715Y0156856D01*
X0450200Y0158454D02*
X0476921Y0158454D01*
X0476921Y0160053D02*
X0450200Y0160053D01*
X0450200Y0161651D02*
X0476921Y0161651D01*
X0476921Y0163250D02*
X0450200Y0163250D01*
X0450200Y0164848D02*
X0476921Y0164848D01*
X0476921Y0166447D02*
X0449838Y0166447D01*
X0448999Y0168045D02*
X0476921Y0168045D01*
X0476921Y0169644D02*
X0447058Y0169644D01*
X0441542Y0169644D02*
X0437058Y0169644D01*
X0438999Y0168045D02*
X0439601Y0168045D01*
X0431542Y0169644D02*
X0429175Y0169644D01*
X0429175Y0171242D02*
X0476921Y0171242D01*
X0476921Y0172841D02*
X0429175Y0172841D01*
X0428818Y0174439D02*
X0476921Y0174439D01*
X0476921Y0176038D02*
X0427675Y0176038D01*
X0427675Y0177636D02*
X0476921Y0177636D01*
X0476921Y0179235D02*
X0427629Y0179235D01*
X0424300Y0179235D02*
X0424300Y0179235D01*
X0424300Y0177636D02*
X0424300Y0177636D01*
X0420925Y0177636D02*
X0377675Y0177636D01*
X0377675Y0176038D02*
X0420925Y0176038D01*
X0419782Y0174439D02*
X0378818Y0174439D01*
X0379175Y0172841D02*
X0419425Y0172841D01*
X0419425Y0171242D02*
X0379175Y0171242D01*
X0379175Y0169644D02*
X0381542Y0169644D01*
X0379601Y0168045D02*
X0378999Y0168045D01*
X0387058Y0169644D02*
X0391542Y0169644D01*
X0389601Y0168045D02*
X0388999Y0168045D01*
X0397058Y0169644D02*
X0411542Y0169644D01*
X0409601Y0168045D02*
X0398999Y0168045D01*
X0399838Y0166447D02*
X0408762Y0166447D01*
X0408400Y0164848D02*
X0400200Y0164848D01*
X0400200Y0163250D02*
X0408400Y0163250D01*
X0408400Y0161651D02*
X0400200Y0161651D01*
X0400200Y0160053D02*
X0408400Y0160053D01*
X0408400Y0158454D02*
X0400200Y0158454D01*
X0417058Y0169644D02*
X0419425Y0169644D01*
X0419601Y0168045D02*
X0418999Y0168045D01*
X0428999Y0168045D02*
X0429601Y0168045D01*
X0420971Y0179235D02*
X0377629Y0179235D01*
X0374300Y0179235D02*
X0374300Y0179235D01*
X0374300Y0177636D02*
X0374300Y0177636D01*
X0370925Y0177636D02*
X0327675Y0177636D01*
X0327675Y0176038D02*
X0370925Y0176038D01*
X0369782Y0174439D02*
X0328818Y0174439D01*
X0329175Y0172841D02*
X0369425Y0172841D01*
X0369425Y0171242D02*
X0329175Y0171242D01*
X0329175Y0169644D02*
X0331542Y0169644D01*
X0329601Y0168045D02*
X0328999Y0168045D01*
X0337058Y0169644D02*
X0341542Y0169644D01*
X0339601Y0168045D02*
X0338999Y0168045D01*
X0347058Y0169644D02*
X0350596Y0169644D01*
X0350545Y0169614D02*
X0350210Y0169279D01*
X0349973Y0168869D01*
X0349850Y0168411D01*
X0349850Y0166488D01*
X0354714Y0166488D01*
X0354714Y0169974D01*
X0351413Y0169974D01*
X0350956Y0169851D01*
X0350545Y0169614D01*
X0349850Y0168045D02*
X0348999Y0168045D01*
X0349838Y0166447D02*
X0354714Y0166447D01*
X0354714Y0168045D02*
X0354886Y0168045D01*
X0354886Y0169644D02*
X0354714Y0169644D01*
X0359004Y0169644D02*
X0361542Y0169644D01*
X0367058Y0169644D02*
X0369425Y0169644D01*
X0369601Y0168045D02*
X0368999Y0168045D01*
X0367219Y0179235D02*
X0370971Y0179235D01*
X0369950Y0180833D02*
X0476921Y0180833D01*
X0476921Y0182432D02*
X0371265Y0182432D01*
X0371927Y0184030D02*
X0476921Y0184030D01*
X0476921Y0185629D02*
X0372100Y0185629D01*
X0372069Y0187227D02*
X0476921Y0187227D01*
X0476921Y0188826D02*
X0386604Y0188826D01*
X0388443Y0190424D02*
X0476921Y0190424D01*
X0439899Y0155257D02*
X0438701Y0155257D01*
X0436339Y0153659D02*
X0442261Y0153659D01*
X0432261Y0153659D02*
X0429600Y0153659D01*
X0429600Y0155257D02*
X0429899Y0155257D01*
X0409270Y0137673D02*
X0399600Y0137673D01*
X0399992Y0136075D02*
X0408608Y0136075D01*
X0408400Y0134476D02*
X0400200Y0134476D01*
X0400200Y0132878D02*
X0408400Y0132878D01*
X0408400Y0131279D02*
X0400200Y0131279D01*
X0400200Y0129681D02*
X0408400Y0129681D01*
X0408400Y0128082D02*
X0400200Y0128082D01*
X0399600Y0126484D02*
X0409039Y0126484D01*
X0410271Y0124885D02*
X0399600Y0124885D01*
X0389000Y0124885D02*
X0388329Y0124885D01*
X0389000Y0123287D02*
X0349175Y0123287D01*
X0349175Y0124885D02*
X0360271Y0124885D01*
X0359039Y0126484D02*
X0358984Y0126484D01*
X0354386Y0126484D02*
X0354214Y0126484D01*
X0354214Y0128082D02*
X0354386Y0128082D01*
X0354386Y0129284D02*
X0354214Y0129284D01*
X0354214Y0132769D01*
X0350913Y0132769D01*
X0350456Y0132647D01*
X0350200Y0132499D01*
X0350200Y0133000D01*
X0358400Y0133000D01*
X0358400Y0132499D01*
X0358144Y0132647D01*
X0357687Y0132769D01*
X0354386Y0132769D01*
X0354386Y0129284D01*
X0354386Y0129681D02*
X0354214Y0129681D01*
X0354214Y0131279D02*
X0354386Y0131279D01*
X0358400Y0132878D02*
X0350200Y0132878D01*
X0349616Y0126484D02*
X0349561Y0126484D01*
X0349175Y0121688D02*
X0389000Y0121688D01*
X0389000Y0120090D02*
X0348996Y0120090D01*
X0347855Y0118491D02*
X0389000Y0118491D01*
X0389000Y0116893D02*
X0347675Y0116893D01*
X0347675Y0115294D02*
X0389000Y0115294D01*
X0389000Y0113696D02*
X0347052Y0113696D01*
X0347675Y0112097D02*
X0389000Y0112097D01*
X0389000Y0110499D02*
X0347675Y0110499D01*
X0347675Y0110753D02*
X0344300Y0110753D01*
X0344300Y0110753D01*
X0344300Y0110753D01*
X0340925Y0110753D01*
X0340925Y0109248D01*
X0340856Y0109220D01*
X0339928Y0108291D01*
X0339425Y0107078D01*
X0339425Y0102869D01*
X0339300Y0102744D01*
X0337642Y0104402D01*
X0335474Y0105300D01*
X0333126Y0105300D01*
X0330958Y0104402D01*
X0329298Y0102742D01*
X0328400Y0100574D01*
X0328400Y0093026D01*
X0329298Y0090858D01*
X0330958Y0089198D01*
X0333126Y0088300D01*
X0335474Y0088300D01*
X0337642Y0089198D01*
X0339300Y0090856D01*
X0340958Y0089198D01*
X0343126Y0088300D01*
X0345474Y0088300D01*
X0347642Y0089198D01*
X0349300Y0090856D01*
X0350958Y0089198D01*
X0353126Y0088300D01*
X0355474Y0088300D01*
X0357642Y0089198D01*
X0359300Y0090856D01*
X0360958Y0089198D01*
X0363126Y0088300D01*
X0365474Y0088300D01*
X0367642Y0089198D01*
X0369302Y0090858D01*
X0370200Y0093026D01*
X0370200Y0100574D01*
X0369302Y0102742D01*
X0367642Y0104402D01*
X0365474Y0105300D01*
X0363126Y0105300D01*
X0360958Y0104402D01*
X0359300Y0102744D01*
X0357642Y0104402D01*
X0355474Y0105300D01*
X0353126Y0105300D01*
X0350958Y0104402D01*
X0349300Y0102744D01*
X0349175Y0102869D01*
X0349175Y0107078D01*
X0348672Y0108291D01*
X0347744Y0109220D01*
X0347675Y0109248D01*
X0347675Y0110753D01*
X0348063Y0108900D02*
X0389000Y0108900D01*
X0389000Y0107302D02*
X0349082Y0107302D01*
X0349175Y0105703D02*
X0389000Y0105703D01*
X0389000Y0104105D02*
X0367939Y0104105D01*
X0369399Y0102506D02*
X0389000Y0102506D01*
X0389000Y0100908D02*
X0370062Y0100908D01*
X0370200Y0099309D02*
X0389000Y0099309D01*
X0389000Y0097711D02*
X0370200Y0097711D01*
X0370200Y0096112D02*
X0389000Y0096112D01*
X0389000Y0094514D02*
X0370200Y0094514D01*
X0370154Y0092915D02*
X0389000Y0092915D01*
X0389000Y0091317D02*
X0369492Y0091317D01*
X0368162Y0089718D02*
X0389000Y0089718D01*
X0389000Y0088120D02*
X0165100Y0088120D01*
X0165100Y0089718D02*
X0330438Y0089718D01*
X0329108Y0091317D02*
X0165100Y0091317D01*
X0165100Y0092915D02*
X0328446Y0092915D01*
X0328400Y0094514D02*
X0165100Y0094514D01*
X0165607Y0096112D02*
X0328400Y0096112D01*
X0328400Y0097711D02*
X0167206Y0097711D01*
X0168805Y0099309D02*
X0244624Y0099309D01*
X0245080Y0098853D02*
X0246293Y0098350D01*
X0263354Y0098350D01*
X0264567Y0098853D01*
X0265495Y0099781D01*
X0265998Y0100994D01*
X0265998Y0108606D01*
X0265495Y0109819D01*
X0264567Y0110747D01*
X0263354Y0111250D01*
X0260124Y0111250D01*
X0260124Y0118831D01*
X0259317Y0120779D01*
X0255799Y0124296D01*
X0256225Y0125323D01*
X0256225Y0128277D01*
X0255095Y0131006D01*
X0253006Y0133095D01*
X0250277Y0134225D01*
X0247323Y0134225D01*
X0244594Y0133095D01*
X0242505Y0131006D01*
X0241375Y0128277D01*
X0241375Y0125323D01*
X0242505Y0122594D01*
X0244594Y0120505D01*
X0244603Y0120502D01*
X0245798Y0119307D01*
X0249524Y0115581D01*
X0249524Y0111250D01*
X0246293Y0111250D01*
X0245080Y0110747D01*
X0244152Y0109819D01*
X0243650Y0108606D01*
X0243650Y0100994D01*
X0244152Y0099781D01*
X0245080Y0098853D01*
X0243685Y0100908D02*
X0170403Y0100908D01*
X0172002Y0102506D02*
X0243650Y0102506D01*
X0243650Y0104105D02*
X0173600Y0104105D01*
X0175199Y0105703D02*
X0243650Y0105703D01*
X0243650Y0107302D02*
X0176797Y0107302D01*
X0178396Y0108900D02*
X0243771Y0108900D01*
X0244832Y0110499D02*
X0179583Y0110499D01*
X0180100Y0112097D02*
X0249524Y0112097D01*
X0249524Y0113696D02*
X0227332Y0113696D01*
X0227675Y0115294D02*
X0249524Y0115294D01*
X0248212Y0116893D02*
X0227675Y0116893D01*
X0228355Y0118491D02*
X0246613Y0118491D01*
X0245015Y0120090D02*
X0229175Y0120090D01*
X0229175Y0121688D02*
X0243411Y0121688D01*
X0242218Y0123287D02*
X0229175Y0123287D01*
X0229009Y0124885D02*
X0241556Y0124885D01*
X0241375Y0126484D02*
X0229561Y0126484D01*
X0230200Y0128082D02*
X0241375Y0128082D01*
X0241957Y0129681D02*
X0230200Y0129681D01*
X0230200Y0131279D02*
X0242779Y0131279D01*
X0244377Y0132878D02*
X0230200Y0132878D01*
X0230200Y0134476D02*
X0258400Y0134476D01*
X0258400Y0132878D02*
X0253223Y0132878D01*
X0254821Y0131279D02*
X0258400Y0131279D01*
X0258400Y0129681D02*
X0255643Y0129681D01*
X0256225Y0128082D02*
X0258400Y0128082D01*
X0259039Y0126484D02*
X0256225Y0126484D01*
X0256044Y0124885D02*
X0260271Y0124885D01*
X0258407Y0121688D02*
X0289425Y0121688D01*
X0289425Y0120090D02*
X0259602Y0120090D01*
X0260124Y0118491D02*
X0290245Y0118491D01*
X0290925Y0116893D02*
X0260124Y0116893D01*
X0260124Y0115294D02*
X0290925Y0115294D01*
X0291268Y0113696D02*
X0260124Y0113696D01*
X0260124Y0112097D02*
X0340925Y0112097D01*
X0340925Y0110499D02*
X0264815Y0110499D01*
X0265876Y0108900D02*
X0273373Y0108900D01*
X0273462Y0109055D02*
X0273225Y0108644D01*
X0273102Y0108187D01*
X0273102Y0105575D01*
X0282001Y0105575D01*
X0282001Y0104025D01*
X0273102Y0104025D01*
X0273102Y0101413D01*
X0273225Y0100956D01*
X0273462Y0100545D01*
X0273797Y0100210D01*
X0274208Y0099973D01*
X0274665Y0099850D01*
X0282002Y0099850D01*
X0282002Y0104025D01*
X0283551Y0104025D01*
X0283551Y0099850D01*
X0290887Y0099850D01*
X0291345Y0099973D01*
X0291756Y0100210D01*
X0292091Y0100545D01*
X0292328Y0100956D01*
X0292450Y0101413D01*
X0292450Y0104025D01*
X0283551Y0104025D01*
X0283551Y0105575D01*
X0282002Y0105575D01*
X0282002Y0109750D01*
X0274665Y0109750D01*
X0274208Y0109627D01*
X0273797Y0109390D01*
X0273462Y0109055D01*
X0273102Y0107302D02*
X0265998Y0107302D01*
X0265998Y0105703D02*
X0273102Y0105703D01*
X0273102Y0102506D02*
X0265998Y0102506D01*
X0265962Y0100908D02*
X0273253Y0100908D01*
X0265998Y0104105D02*
X0282001Y0104105D01*
X0283551Y0104105D02*
X0330661Y0104105D01*
X0329201Y0102506D02*
X0292450Y0102506D01*
X0292300Y0100908D02*
X0328538Y0100908D01*
X0328400Y0099309D02*
X0265023Y0099309D01*
X0282002Y0100908D02*
X0283551Y0100908D01*
X0283551Y0102506D02*
X0282002Y0102506D01*
X0282002Y0105703D02*
X0283551Y0105703D01*
X0283551Y0105575D02*
X0283551Y0109750D01*
X0290887Y0109750D01*
X0291345Y0109627D01*
X0291756Y0109390D01*
X0292091Y0109055D01*
X0292328Y0108644D01*
X0292450Y0108187D01*
X0292450Y0105575D01*
X0283551Y0105575D01*
X0283551Y0107302D02*
X0282002Y0107302D01*
X0282002Y0108900D02*
X0283551Y0108900D01*
X0292180Y0108900D02*
X0340537Y0108900D01*
X0339518Y0107302D02*
X0292450Y0107302D01*
X0292450Y0105703D02*
X0339425Y0105703D01*
X0339425Y0104105D02*
X0337939Y0104105D01*
X0344300Y0112097D02*
X0344300Y0112097D01*
X0344300Y0113696D02*
X0344300Y0113696D01*
X0344300Y0115294D02*
X0344300Y0115294D01*
X0341548Y0113696D02*
X0297332Y0113696D01*
X0297675Y0115294D02*
X0340925Y0115294D01*
X0340925Y0116893D02*
X0297675Y0116893D01*
X0298355Y0118491D02*
X0340745Y0118491D01*
X0339604Y0120090D02*
X0299175Y0120090D01*
X0299175Y0121688D02*
X0339425Y0121688D01*
X0339425Y0123287D02*
X0299175Y0123287D01*
X0299009Y0124885D02*
X0310271Y0124885D01*
X0309039Y0126484D02*
X0299561Y0126484D01*
X0300200Y0128082D02*
X0308400Y0128082D01*
X0308400Y0129681D02*
X0300200Y0129681D01*
X0300200Y0131279D02*
X0308400Y0131279D01*
X0308400Y0132878D02*
X0300200Y0132878D01*
X0300200Y0134476D02*
X0308400Y0134476D01*
X0308608Y0136075D02*
X0299992Y0136075D01*
X0300169Y0137673D02*
X0309270Y0137673D01*
X0293171Y0145666D02*
X0227929Y0145666D01*
X0229097Y0144068D02*
X0291572Y0144068D01*
X0289974Y0142469D02*
X0229600Y0142469D01*
X0229600Y0140870D02*
X0289214Y0140870D01*
X0289000Y0139272D02*
X0287772Y0139272D01*
X0280828Y0139272D02*
X0277772Y0139272D01*
X0270828Y0139272D02*
X0267772Y0139272D01*
X0260828Y0139272D02*
X0229600Y0139272D01*
X0229600Y0137673D02*
X0259270Y0137673D01*
X0258608Y0136075D02*
X0229992Y0136075D01*
X0226331Y0147265D02*
X0273900Y0147265D01*
X0272242Y0148863D02*
X0224633Y0148863D01*
X0226339Y0153659D02*
X0262261Y0153659D01*
X0259899Y0155257D02*
X0228701Y0155257D01*
X0229715Y0156856D02*
X0258885Y0156856D01*
X0258400Y0158454D02*
X0230200Y0158454D01*
X0230200Y0160053D02*
X0258400Y0160053D01*
X0258400Y0161651D02*
X0230200Y0161651D01*
X0230200Y0163250D02*
X0258400Y0163250D01*
X0258400Y0164848D02*
X0230200Y0164848D01*
X0229838Y0166447D02*
X0258762Y0166447D01*
X0259601Y0168045D02*
X0228999Y0168045D01*
X0227058Y0169644D02*
X0261542Y0169644D01*
X0267058Y0169644D02*
X0269425Y0169644D01*
X0269425Y0171242D02*
X0209175Y0171242D01*
X0209175Y0169644D02*
X0211542Y0169644D01*
X0209601Y0168045D02*
X0208999Y0168045D01*
X0209175Y0172841D02*
X0269425Y0172841D01*
X0269782Y0174439D02*
X0208818Y0174439D01*
X0207675Y0176038D02*
X0270925Y0176038D01*
X0270925Y0177636D02*
X0207675Y0177636D01*
X0207629Y0179235D02*
X0256381Y0179235D01*
X0253650Y0180833D02*
X0167165Y0180833D01*
X0167334Y0180888D02*
X0168078Y0181267D01*
X0168753Y0181757D01*
X0169343Y0182347D01*
X0169833Y0183022D01*
X0170212Y0183766D01*
X0170469Y0184559D01*
X0170600Y0185383D01*
X0170600Y0185616D01*
X0161984Y0185616D01*
X0161984Y0180500D01*
X0165717Y0180500D01*
X0166541Y0180630D01*
X0167334Y0180888D01*
X0169404Y0182432D02*
X0252335Y0182432D01*
X0251673Y0184030D02*
X0170298Y0184030D01*
X0170600Y0185984D02*
X0170600Y0186217D01*
X0170469Y0187041D01*
X0170212Y0187834D01*
X0169833Y0188578D01*
X0169343Y0189253D01*
X0168753Y0189843D01*
X0168078Y0190333D01*
X0167334Y0190712D01*
X0166541Y0190969D01*
X0165717Y0191100D01*
X0161984Y0191100D01*
X0161984Y0185984D01*
X0161616Y0185984D01*
X0161616Y0185616D01*
X0161984Y0185616D01*
X0161984Y0185984D01*
X0170600Y0185984D01*
X0170409Y0187227D02*
X0251531Y0187227D01*
X0251500Y0185629D02*
X0161984Y0185629D01*
X0161616Y0185629D02*
X0061984Y0185629D01*
X0061984Y0185616D02*
X0061984Y0185984D01*
X0061616Y0185984D01*
X0061616Y0185616D01*
X0061984Y0185616D01*
X0061984Y0180500D01*
X0065717Y0180500D01*
X0066541Y0180630D01*
X0067334Y0180888D01*
X0068078Y0181267D01*
X0068753Y0181757D01*
X0069343Y0182347D01*
X0069833Y0183022D01*
X0070212Y0183766D01*
X0070469Y0184559D01*
X0070600Y0185383D01*
X0070600Y0185616D01*
X0061984Y0185616D01*
X0061984Y0185984D02*
X0070600Y0185984D01*
X0070600Y0186217D01*
X0070469Y0187041D01*
X0070212Y0187834D01*
X0069833Y0188578D01*
X0069343Y0189253D01*
X0068753Y0189843D01*
X0068078Y0190333D01*
X0067334Y0190712D01*
X0066541Y0190969D01*
X0065717Y0191100D01*
X0061984Y0191100D01*
X0061984Y0185984D01*
X0061616Y0185984D02*
X0061616Y0191100D01*
X0057883Y0191100D01*
X0057059Y0190969D01*
X0056266Y0190712D01*
X0055522Y0190333D01*
X0054847Y0189843D01*
X0054257Y0189253D01*
X0053767Y0188578D01*
X0053388Y0187834D01*
X0053130Y0187041D01*
X0053000Y0186217D01*
X0053000Y0185984D01*
X0061616Y0185984D01*
X0061616Y0185629D02*
X0006600Y0185629D01*
X0006600Y0187227D02*
X0053191Y0187227D01*
X0053000Y0185616D02*
X0053000Y0185383D01*
X0053130Y0184559D01*
X0053388Y0183766D01*
X0053767Y0183022D01*
X0054257Y0182347D01*
X0054847Y0181757D01*
X0055522Y0181267D01*
X0056266Y0180888D01*
X0057059Y0180630D01*
X0057883Y0180500D01*
X0061616Y0180500D01*
X0061616Y0185616D01*
X0053000Y0185616D01*
X0053302Y0184030D02*
X0006600Y0184030D01*
X0006600Y0182432D02*
X0054196Y0182432D01*
X0056435Y0180833D02*
X0006600Y0180833D01*
X0006600Y0179235D02*
X0050971Y0179235D01*
X0050925Y0177636D02*
X0006600Y0177636D01*
X0006600Y0176038D02*
X0050925Y0176038D01*
X0049782Y0174439D02*
X0006600Y0174439D01*
X0006600Y0172841D02*
X0049425Y0172841D01*
X0049425Y0171242D02*
X0006600Y0171242D01*
X0006600Y0169644D02*
X0041542Y0169644D01*
X0039601Y0168045D02*
X0006600Y0168045D01*
X0006600Y0166447D02*
X0038762Y0166447D01*
X0038400Y0164848D02*
X0006600Y0164848D01*
X0006600Y0163250D02*
X0038400Y0163250D01*
X0038400Y0161651D02*
X0006600Y0161651D01*
X0006600Y0160053D02*
X0038400Y0160053D01*
X0038400Y0158454D02*
X0006600Y0158454D01*
X0006600Y0156856D02*
X0038885Y0156856D01*
X0039899Y0155257D02*
X0006600Y0155257D01*
X0006600Y0153659D02*
X0042261Y0153659D01*
X0046339Y0153659D02*
X0049000Y0153659D01*
X0049000Y0155257D02*
X0048701Y0155257D01*
X0049491Y0152060D02*
X0006600Y0152060D01*
X0006600Y0150462D02*
X0050643Y0150462D01*
X0051298Y0149807D02*
X0051298Y0149807D01*
X0052242Y0148863D02*
X0006600Y0148863D01*
X0006600Y0147265D02*
X0053900Y0147265D01*
X0050828Y0139272D02*
X0047772Y0139272D01*
X0040828Y0139272D02*
X0006600Y0139272D01*
X0006600Y0140870D02*
X0069214Y0140870D01*
X0069000Y0139272D02*
X0067772Y0139272D01*
X0069974Y0142469D02*
X0006600Y0142469D01*
X0006600Y0144068D02*
X0071572Y0144068D01*
X0073171Y0145666D02*
X0006600Y0145666D01*
X0006600Y0137673D02*
X0039270Y0137673D01*
X0038608Y0136075D02*
X0006600Y0136075D01*
X0006600Y0134476D02*
X0038400Y0134476D01*
X0038400Y0132878D02*
X0006600Y0132878D01*
X0006600Y0131279D02*
X0038400Y0131279D01*
X0038400Y0129681D02*
X0006600Y0129681D01*
X0006600Y0128082D02*
X0038400Y0128082D01*
X0039039Y0126484D02*
X0006600Y0126484D01*
X0006600Y0124885D02*
X0040271Y0124885D01*
X0048329Y0124885D02*
X0050271Y0124885D01*
X0058329Y0124885D02*
X0060271Y0124885D01*
X0068329Y0124885D02*
X0069591Y0124885D01*
X0069425Y0123287D02*
X0006600Y0123287D01*
X0006600Y0121688D02*
X0069425Y0121688D01*
X0069425Y0120090D02*
X0006600Y0120090D01*
X0006600Y0118491D02*
X0070245Y0118491D01*
X0070925Y0116893D02*
X0006600Y0116893D01*
X0006600Y0115294D02*
X0070925Y0115294D01*
X0071268Y0113696D02*
X0006600Y0113696D01*
X0006600Y0112097D02*
X0120925Y0112097D01*
X0120925Y0111253D02*
X0120925Y0109748D01*
X0120856Y0109720D01*
X0119928Y0108791D01*
X0119425Y0107578D01*
X0119425Y0103116D01*
X0119498Y0102941D01*
X0119300Y0102744D01*
X0117642Y0104402D01*
X0115474Y0105300D01*
X0113126Y0105300D01*
X0110958Y0104402D01*
X0109298Y0102742D01*
X0108400Y0100574D01*
X0108400Y0093026D01*
X0109298Y0090858D01*
X0110958Y0089198D01*
X0113126Y0088300D01*
X0115474Y0088300D01*
X0117642Y0089198D01*
X0119300Y0090856D01*
X0120958Y0089198D01*
X0123126Y0088300D01*
X0125474Y0088300D01*
X0127642Y0089198D01*
X0129300Y0090856D01*
X0130958Y0089198D01*
X0133126Y0088300D01*
X0135474Y0088300D01*
X0137642Y0089198D01*
X0139300Y0090856D01*
X0140958Y0089198D01*
X0143126Y0088300D01*
X0145474Y0088300D01*
X0147642Y0089198D01*
X0149302Y0090858D01*
X0150200Y0093026D01*
X0150200Y0100574D01*
X0149302Y0102742D01*
X0147642Y0104402D01*
X0145474Y0105300D01*
X0143126Y0105300D01*
X0140958Y0104402D01*
X0139300Y0102744D01*
X0137642Y0104402D01*
X0135474Y0105300D01*
X0133126Y0105300D01*
X0130958Y0104402D01*
X0129300Y0102744D01*
X0129102Y0102941D01*
X0129175Y0103116D01*
X0129175Y0107578D01*
X0128672Y0108791D01*
X0127744Y0109720D01*
X0127675Y0109748D01*
X0127675Y0111253D01*
X0124300Y0111253D01*
X0124300Y0111253D01*
X0124300Y0111253D01*
X0120925Y0111253D01*
X0120925Y0110499D02*
X0006600Y0110499D01*
X0006600Y0108900D02*
X0120037Y0108900D01*
X0119425Y0107302D02*
X0006600Y0107302D01*
X0006600Y0105703D02*
X0119425Y0105703D01*
X0119425Y0104105D02*
X0117939Y0104105D01*
X0110661Y0104105D02*
X0006600Y0104105D01*
X0006600Y0102506D02*
X0109201Y0102506D01*
X0108538Y0100908D02*
X0006600Y0100908D01*
X0006600Y0099309D02*
X0044900Y0099309D01*
X0045231Y0099641D02*
X0043459Y0097869D01*
X0042500Y0095553D01*
X0042500Y0093047D01*
X0043459Y0090731D01*
X0045231Y0088959D01*
X0047547Y0088000D01*
X0056053Y0088000D01*
X0058369Y0088959D01*
X0060141Y0090731D01*
X0061100Y0093047D01*
X0061100Y0095553D01*
X0060141Y0097869D01*
X0058369Y0099641D01*
X0056053Y0100600D01*
X0047547Y0100600D01*
X0045231Y0099641D01*
X0043394Y0097711D02*
X0006600Y0097711D01*
X0006600Y0096112D02*
X0042732Y0096112D01*
X0042500Y0094514D02*
X0006600Y0094514D01*
X0006600Y0092915D02*
X0042555Y0092915D01*
X0043217Y0091317D02*
X0006600Y0091317D01*
X0006600Y0089718D02*
X0044472Y0089718D01*
X0047258Y0088120D02*
X0006600Y0088120D01*
X0006600Y0086521D02*
X0154500Y0086521D01*
X0154500Y0084923D02*
X0006600Y0084923D01*
X0006600Y0083324D02*
X0046172Y0083324D01*
X0046284Y0083405D02*
X0045673Y0082961D01*
X0045139Y0082427D01*
X0044695Y0081816D01*
X0044352Y0081143D01*
X0044118Y0080424D01*
X0044000Y0079678D01*
X0044000Y0079500D01*
X0051600Y0079500D01*
X0051600Y0084100D01*
X0048422Y0084100D01*
X0047676Y0083982D01*
X0046957Y0083748D01*
X0046284Y0083405D01*
X0044649Y0081726D02*
X0006600Y0081726D01*
X0006600Y0080127D02*
X0044071Y0080127D01*
X0044000Y0079100D02*
X0044000Y0078922D01*
X0044118Y0078176D01*
X0044352Y0077457D01*
X0044695Y0076784D01*
X0045139Y0076173D01*
X0045673Y0075639D01*
X0046284Y0075195D01*
X0046957Y0074852D01*
X0047676Y0074618D01*
X0048422Y0074500D01*
X0051600Y0074500D01*
X0051600Y0079100D01*
X0052000Y0079100D01*
X0052000Y0079500D01*
X0051600Y0079500D01*
X0051600Y0079100D01*
X0044000Y0079100D01*
X0044062Y0078529D02*
X0006600Y0078529D01*
X0006600Y0076930D02*
X0044620Y0076930D01*
X0046096Y0075332D02*
X0006600Y0075332D01*
X0006600Y0073733D02*
X0110289Y0073733D01*
X0109047Y0072134D02*
X0006600Y0072134D01*
X0006600Y0070536D02*
X0108400Y0070536D01*
X0108400Y0068937D02*
X0056060Y0068937D01*
X0055924Y0068982D02*
X0055178Y0069100D01*
X0052000Y0069100D01*
X0052000Y0064500D01*
X0051600Y0064500D01*
X0051600Y0069100D01*
X0048422Y0069100D01*
X0047676Y0068982D01*
X0046957Y0068748D01*
X0046284Y0068405D01*
X0045673Y0067961D01*
X0045139Y0067427D01*
X0044695Y0066816D01*
X0044352Y0066143D01*
X0044118Y0065424D01*
X0044000Y0064678D01*
X0044000Y0064500D01*
X0051600Y0064500D01*
X0051600Y0064100D01*
X0052000Y0064100D01*
X0052000Y0064500D01*
X0059600Y0064500D01*
X0059600Y0064678D01*
X0059482Y0065424D01*
X0059248Y0066143D01*
X0058905Y0066816D01*
X0058461Y0067427D01*
X0057927Y0067961D01*
X0057316Y0068405D01*
X0056643Y0068748D01*
X0055924Y0068982D01*
X0058525Y0067339D02*
X0108400Y0067339D01*
X0108400Y0065740D02*
X0059379Y0065740D01*
X0059600Y0064100D02*
X0052000Y0064100D01*
X0052000Y0059500D01*
X0055178Y0059500D01*
X0055924Y0059618D01*
X0056643Y0059852D01*
X0057316Y0060195D01*
X0057927Y0060639D01*
X0058461Y0061173D01*
X0058905Y0061784D01*
X0059248Y0062457D01*
X0059482Y0063176D01*
X0059600Y0063922D01*
X0059600Y0064100D01*
X0059276Y0062543D02*
X0108600Y0062543D01*
X0108400Y0064142D02*
X0052000Y0064142D01*
X0051600Y0064142D02*
X0006600Y0064142D01*
X0006600Y0065740D02*
X0044221Y0065740D01*
X0044000Y0064100D02*
X0044000Y0063922D01*
X0044118Y0063176D01*
X0044352Y0062457D01*
X0044695Y0061784D01*
X0045139Y0061173D01*
X0045673Y0060639D01*
X0046284Y0060195D01*
X0046957Y0059852D01*
X0047676Y0059618D01*
X0048422Y0059500D01*
X0051600Y0059500D01*
X0051600Y0064100D01*
X0044000Y0064100D01*
X0044324Y0062543D02*
X0006600Y0062543D01*
X0006600Y0060945D02*
X0045367Y0060945D01*
X0051600Y0060945D02*
X0052000Y0060945D01*
X0052000Y0062543D02*
X0051600Y0062543D01*
X0051600Y0065740D02*
X0052000Y0065740D01*
X0052000Y0067339D02*
X0051600Y0067339D01*
X0051600Y0068937D02*
X0052000Y0068937D01*
X0047540Y0068937D02*
X0006600Y0068937D01*
X0006600Y0067339D02*
X0045075Y0067339D01*
X0052000Y0074500D02*
X0055178Y0074500D01*
X0055924Y0074618D01*
X0056643Y0074852D01*
X0057316Y0075195D01*
X0057927Y0075639D01*
X0058461Y0076173D01*
X0058905Y0076784D01*
X0059248Y0077457D01*
X0059482Y0078176D01*
X0059600Y0078922D01*
X0059600Y0079100D01*
X0052000Y0079100D01*
X0052000Y0074500D01*
X0052000Y0075332D02*
X0051600Y0075332D01*
X0051600Y0076930D02*
X0052000Y0076930D01*
X0052000Y0078529D02*
X0051600Y0078529D01*
X0052000Y0079500D02*
X0059600Y0079500D01*
X0059600Y0079678D01*
X0059482Y0080424D01*
X0059248Y0081143D01*
X0058905Y0081816D01*
X0058461Y0082427D01*
X0057927Y0082961D01*
X0057316Y0083405D01*
X0056643Y0083748D01*
X0055924Y0083982D01*
X0055178Y0084100D01*
X0052000Y0084100D01*
X0052000Y0079500D01*
X0052000Y0080127D02*
X0051600Y0080127D01*
X0051600Y0081726D02*
X0052000Y0081726D01*
X0052000Y0083324D02*
X0051600Y0083324D01*
X0057428Y0083324D02*
X0154500Y0083324D01*
X0154500Y0081726D02*
X0058951Y0081726D01*
X0059529Y0080127D02*
X0154500Y0080127D01*
X0154500Y0078529D02*
X0059538Y0078529D01*
X0058980Y0076930D02*
X0154500Y0076930D01*
X0154500Y0075332D02*
X0057504Y0075332D01*
X0056342Y0088120D02*
X0154500Y0088120D01*
X0154500Y0089718D02*
X0148162Y0089718D01*
X0149492Y0091317D02*
X0154500Y0091317D01*
X0154500Y0092915D02*
X0150154Y0092915D01*
X0150200Y0094514D02*
X0154500Y0094514D01*
X0154500Y0096112D02*
X0150200Y0096112D01*
X0150200Y0097711D02*
X0154500Y0097711D01*
X0154688Y0099309D02*
X0150200Y0099309D01*
X0150062Y0100908D02*
X0155412Y0100908D01*
X0157011Y0102506D02*
X0149399Y0102506D01*
X0147939Y0104105D02*
X0158609Y0104105D01*
X0160208Y0105703D02*
X0129175Y0105703D01*
X0129175Y0104105D02*
X0130661Y0104105D01*
X0129175Y0107302D02*
X0161806Y0107302D01*
X0163405Y0108900D02*
X0128563Y0108900D01*
X0127675Y0110499D02*
X0165003Y0110499D01*
X0166602Y0112097D02*
X0127675Y0112097D01*
X0127452Y0113696D02*
X0168200Y0113696D01*
X0169500Y0115294D02*
X0127675Y0115294D01*
X0127675Y0116893D02*
X0169500Y0116893D01*
X0169000Y0118491D02*
X0127855Y0118491D01*
X0128996Y0120090D02*
X0169000Y0120090D01*
X0169000Y0121688D02*
X0129175Y0121688D01*
X0129175Y0123287D02*
X0169000Y0123287D01*
X0169000Y0124885D02*
X0168329Y0124885D01*
X0160271Y0124885D02*
X0158329Y0124885D01*
X0150271Y0124885D02*
X0148329Y0124885D01*
X0140271Y0124885D02*
X0129175Y0124885D01*
X0129561Y0126484D02*
X0130048Y0126484D01*
X0134214Y0126484D02*
X0134386Y0126484D01*
X0134386Y0128082D02*
X0134214Y0128082D01*
X0134214Y0129784D02*
X0134214Y0133269D01*
X0130913Y0133269D01*
X0130456Y0133147D01*
X0130200Y0132999D01*
X0130200Y0133500D01*
X0138400Y0133500D01*
X0138400Y0132999D01*
X0138144Y0133147D01*
X0137687Y0133269D01*
X0134386Y0133269D01*
X0134386Y0129784D01*
X0134214Y0129784D01*
X0134214Y0131279D02*
X0134386Y0131279D01*
X0134386Y0132878D02*
X0134214Y0132878D01*
X0138552Y0126484D02*
X0139039Y0126484D01*
X0124300Y0115294D02*
X0124300Y0115294D01*
X0124300Y0113696D02*
X0124300Y0113696D01*
X0124300Y0112097D02*
X0124300Y0112097D01*
X0121148Y0113696D02*
X0077332Y0113696D01*
X0077675Y0115294D02*
X0120925Y0115294D01*
X0120925Y0116893D02*
X0077675Y0116893D01*
X0078355Y0118491D02*
X0120745Y0118491D01*
X0119604Y0120090D02*
X0079175Y0120090D01*
X0079175Y0121688D02*
X0119425Y0121688D01*
X0119425Y0123287D02*
X0079175Y0123287D01*
X0079009Y0124885D02*
X0090271Y0124885D01*
X0089039Y0126484D02*
X0079561Y0126484D01*
X0080200Y0128082D02*
X0088400Y0128082D01*
X0088400Y0129681D02*
X0080200Y0129681D01*
X0080200Y0131279D02*
X0088400Y0131279D01*
X0088400Y0132878D02*
X0080200Y0132878D01*
X0080200Y0134476D02*
X0088400Y0134476D01*
X0088608Y0136075D02*
X0079992Y0136075D01*
X0080169Y0137673D02*
X0089270Y0137673D01*
X0098329Y0124885D02*
X0100271Y0124885D01*
X0108329Y0124885D02*
X0110271Y0124885D01*
X0118329Y0124885D02*
X0119425Y0124885D01*
X0134300Y0141902D02*
X0134402Y0141902D01*
X0136800Y0144300D01*
X0131800Y0151800D02*
X0134198Y0154198D01*
X0134800Y0154198D01*
X0134800Y0166402D02*
X0137902Y0166402D01*
X0140800Y0169300D01*
X0141542Y0169644D02*
X0139004Y0169644D01*
X0138762Y0166447D02*
X0134886Y0166447D01*
X0134714Y0166447D02*
X0129838Y0166447D01*
X0129850Y0166488D02*
X0134714Y0166488D01*
X0134714Y0169974D01*
X0131413Y0169974D01*
X0130956Y0169851D01*
X0130545Y0169614D01*
X0130210Y0169279D01*
X0129973Y0168869D01*
X0129850Y0168411D01*
X0129850Y0166488D01*
X0129850Y0168045D02*
X0128999Y0168045D01*
X0130596Y0169644D02*
X0127058Y0169644D01*
X0121542Y0169644D02*
X0117058Y0169644D01*
X0118999Y0168045D02*
X0119601Y0168045D01*
X0111542Y0169644D02*
X0109175Y0169644D01*
X0109175Y0171242D02*
X0149425Y0171242D01*
X0149425Y0169644D02*
X0147058Y0169644D01*
X0148999Y0168045D02*
X0149601Y0168045D01*
X0149425Y0172841D02*
X0109175Y0172841D01*
X0108818Y0174439D02*
X0149782Y0174439D01*
X0150925Y0176038D02*
X0107675Y0176038D01*
X0107675Y0177636D02*
X0150925Y0177636D01*
X0150971Y0179235D02*
X0107629Y0179235D01*
X0104300Y0179235D02*
X0104300Y0179235D01*
X0104300Y0177636D02*
X0104300Y0177636D01*
X0100925Y0177636D02*
X0057675Y0177636D01*
X0057675Y0176038D02*
X0100925Y0176038D01*
X0099782Y0174439D02*
X0058818Y0174439D01*
X0059175Y0172841D02*
X0099425Y0172841D01*
X0099425Y0171242D02*
X0059175Y0171242D01*
X0059175Y0169644D02*
X0061542Y0169644D01*
X0059601Y0168045D02*
X0058999Y0168045D01*
X0067058Y0169644D02*
X0071542Y0169644D01*
X0069601Y0168045D02*
X0068999Y0168045D01*
X0077058Y0169644D02*
X0091542Y0169644D01*
X0089601Y0168045D02*
X0078999Y0168045D01*
X0079838Y0166447D02*
X0088762Y0166447D01*
X0088400Y0164848D02*
X0080200Y0164848D01*
X0080200Y0163250D02*
X0088400Y0163250D01*
X0088400Y0161651D02*
X0080200Y0161651D01*
X0080200Y0160053D02*
X0088400Y0160053D01*
X0088400Y0158454D02*
X0080200Y0158454D01*
X0097058Y0169644D02*
X0099425Y0169644D01*
X0099601Y0168045D02*
X0098999Y0168045D01*
X0108999Y0168045D02*
X0109601Y0168045D01*
X0100971Y0179235D02*
X0057629Y0179235D01*
X0054300Y0179235D02*
X0054300Y0179235D01*
X0054300Y0177636D02*
X0054300Y0177636D01*
X0061616Y0180833D02*
X0061984Y0180833D01*
X0061984Y0182432D02*
X0061616Y0182432D01*
X0061616Y0184030D02*
X0061984Y0184030D01*
X0061984Y0187227D02*
X0061616Y0187227D01*
X0061616Y0188826D02*
X0061984Y0188826D01*
X0061984Y0190424D02*
X0061616Y0190424D01*
X0055702Y0190424D02*
X0006600Y0190424D01*
X0006600Y0188826D02*
X0053947Y0188826D01*
X0067898Y0190424D02*
X0075157Y0190424D01*
X0076996Y0188826D02*
X0069653Y0188826D01*
X0070409Y0187227D02*
X0153191Y0187227D01*
X0153130Y0187041D02*
X0153000Y0186217D01*
X0153000Y0185984D01*
X0161616Y0185984D01*
X0161616Y0191100D01*
X0157883Y0191100D01*
X0157059Y0190969D01*
X0156266Y0190712D01*
X0155522Y0190333D01*
X0154847Y0189843D01*
X0154257Y0189253D01*
X0153767Y0188578D01*
X0153388Y0187834D01*
X0153130Y0187041D01*
X0153000Y0185616D02*
X0153000Y0185383D01*
X0153130Y0184559D01*
X0153388Y0183766D01*
X0153767Y0183022D01*
X0154257Y0182347D01*
X0154847Y0181757D01*
X0155522Y0181267D01*
X0156266Y0180888D01*
X0157059Y0180630D01*
X0157883Y0180500D01*
X0161616Y0180500D01*
X0161616Y0185616D01*
X0153000Y0185616D01*
X0153302Y0184030D02*
X0070298Y0184030D01*
X0069404Y0182432D02*
X0154196Y0182432D01*
X0156435Y0180833D02*
X0067165Y0180833D01*
X0049425Y0169644D02*
X0047058Y0169644D01*
X0048999Y0168045D02*
X0049601Y0168045D01*
X0086604Y0188826D02*
X0153947Y0188826D01*
X0155702Y0190424D02*
X0088443Y0190424D01*
X0134714Y0169644D02*
X0134886Y0169644D01*
X0134886Y0168045D02*
X0134714Y0168045D01*
X0154300Y0177636D02*
X0154300Y0177636D01*
X0154300Y0179235D02*
X0154300Y0179235D01*
X0157629Y0179235D02*
X0200971Y0179235D01*
X0200925Y0177636D02*
X0157675Y0177636D01*
X0157675Y0176038D02*
X0200925Y0176038D01*
X0199782Y0174439D02*
X0158818Y0174439D01*
X0159175Y0172841D02*
X0199425Y0172841D01*
X0199425Y0171242D02*
X0159175Y0171242D01*
X0159175Y0169644D02*
X0161542Y0169644D01*
X0159601Y0168045D02*
X0158999Y0168045D01*
X0167058Y0169644D02*
X0171542Y0169644D01*
X0169601Y0168045D02*
X0168999Y0168045D01*
X0177058Y0169644D02*
X0191542Y0169644D01*
X0189601Y0168045D02*
X0178999Y0168045D01*
X0179838Y0166447D02*
X0188762Y0166447D01*
X0188400Y0164848D02*
X0180200Y0164848D01*
X0180200Y0163250D02*
X0188400Y0163250D01*
X0188400Y0161651D02*
X0180200Y0161651D01*
X0180200Y0160053D02*
X0188400Y0160053D01*
X0188400Y0158454D02*
X0180200Y0158454D01*
X0197058Y0169644D02*
X0199425Y0169644D01*
X0199601Y0168045D02*
X0198999Y0168045D01*
X0204300Y0177636D02*
X0204300Y0177636D01*
X0204300Y0179235D02*
X0204300Y0179235D01*
X0217058Y0169644D02*
X0221542Y0169644D01*
X0219601Y0168045D02*
X0218999Y0168045D01*
X0218701Y0155257D02*
X0219899Y0155257D01*
X0222261Y0153659D02*
X0216339Y0153659D01*
X0212261Y0153659D02*
X0209600Y0153659D01*
X0209600Y0155257D02*
X0209899Y0155257D01*
X0209109Y0152060D02*
X0269491Y0152060D01*
X0269000Y0153659D02*
X0266339Y0153659D01*
X0268701Y0155257D02*
X0269000Y0155257D01*
X0270643Y0150462D02*
X0207957Y0150462D01*
X0189270Y0137673D02*
X0179600Y0137673D01*
X0179992Y0136075D02*
X0188608Y0136075D01*
X0188400Y0134476D02*
X0180200Y0134476D01*
X0180200Y0132878D02*
X0188400Y0132878D01*
X0188400Y0131279D02*
X0180200Y0131279D01*
X0180200Y0129681D02*
X0188400Y0129681D01*
X0188400Y0128082D02*
X0180200Y0128082D01*
X0179600Y0126484D02*
X0189039Y0126484D01*
X0190271Y0124885D02*
X0179600Y0124885D01*
X0183677Y0123287D02*
X0219425Y0123287D01*
X0219425Y0121688D02*
X0188936Y0121688D01*
X0189128Y0120090D02*
X0219425Y0120090D01*
X0220245Y0118491D02*
X0189128Y0118491D01*
X0188925Y0116893D02*
X0220925Y0116893D01*
X0220925Y0115294D02*
X0183658Y0115294D01*
X0185753Y0116893D02*
X0185753Y0116893D01*
X0185753Y0118491D02*
X0185753Y0118491D01*
X0185753Y0120090D02*
X0185753Y0120090D01*
X0185753Y0121688D02*
X0185753Y0121688D01*
X0180100Y0113696D02*
X0221268Y0113696D01*
X0224300Y0113696D02*
X0224300Y0113696D01*
X0224300Y0115294D02*
X0224300Y0115294D01*
X0219591Y0124885D02*
X0218329Y0124885D01*
X0210271Y0124885D02*
X0208329Y0124885D01*
X0200271Y0124885D02*
X0198329Y0124885D01*
X0256808Y0123287D02*
X0289425Y0123287D01*
X0289591Y0124885D02*
X0288329Y0124885D01*
X0280271Y0124885D02*
X0278329Y0124885D01*
X0270271Y0124885D02*
X0268329Y0124885D01*
X0294300Y0115294D02*
X0294300Y0115294D01*
X0294300Y0113696D02*
X0294300Y0113696D01*
X0318329Y0124885D02*
X0320271Y0124885D01*
X0328329Y0124885D02*
X0330271Y0124885D01*
X0338329Y0124885D02*
X0339425Y0124885D01*
X0368329Y0124885D02*
X0370271Y0124885D01*
X0378329Y0124885D02*
X0380271Y0124885D01*
X0360661Y0104105D02*
X0357939Y0104105D01*
X0350661Y0104105D02*
X0349175Y0104105D01*
X0348162Y0089718D02*
X0350438Y0089718D01*
X0358162Y0089718D02*
X0360438Y0089718D01*
X0340438Y0089718D02*
X0338162Y0089718D01*
X0338311Y0073733D02*
X0340289Y0073733D01*
X0348311Y0073733D02*
X0350289Y0073733D01*
X0358311Y0073733D02*
X0360289Y0073733D01*
X0368311Y0073733D02*
X0376238Y0073733D01*
X0377836Y0075332D02*
X0165100Y0075332D01*
X0165100Y0076930D02*
X0379435Y0076930D01*
X0381033Y0078529D02*
X0165100Y0078529D01*
X0165100Y0080127D02*
X0382632Y0080127D01*
X0384230Y0081726D02*
X0165100Y0081726D01*
X0165100Y0083324D02*
X0385829Y0083324D01*
X0387427Y0084923D02*
X0165100Y0084923D01*
X0165100Y0086521D02*
X0389000Y0086521D01*
X0374639Y0072134D02*
X0369553Y0072134D01*
X0380039Y0062543D02*
X0381500Y0062543D01*
X0381500Y0060945D02*
X0379175Y0060945D01*
X0379175Y0059346D02*
X0381500Y0059346D01*
X0381500Y0057748D02*
X0379175Y0057748D01*
X0378513Y0056149D02*
X0381500Y0056149D01*
X0381500Y0054551D02*
X0377675Y0054551D01*
X0377675Y0052952D02*
X0381500Y0052952D01*
X0381500Y0051354D02*
X0377423Y0051354D01*
X0374300Y0051354D02*
X0374300Y0051354D01*
X0374300Y0052952D02*
X0374300Y0052952D01*
X0370925Y0052952D02*
X0290435Y0052952D01*
X0290600Y0054484D02*
X0290600Y0054717D01*
X0290469Y0055541D01*
X0290212Y0056334D01*
X0289833Y0057078D01*
X0289343Y0057753D01*
X0288753Y0058343D01*
X0288078Y0058833D01*
X0287334Y0059212D01*
X0286541Y0059469D01*
X0285717Y0059600D01*
X0281984Y0059600D01*
X0281984Y0054484D01*
X0290600Y0054484D01*
X0290600Y0054551D02*
X0370925Y0054551D01*
X0370087Y0056149D02*
X0290272Y0056149D01*
X0289346Y0057748D02*
X0369425Y0057748D01*
X0369425Y0059346D02*
X0367790Y0059346D01*
X0369338Y0060945D02*
X0369425Y0060945D01*
X0360810Y0059346D02*
X0357790Y0059346D01*
X0350810Y0059346D02*
X0347790Y0059346D01*
X0340810Y0059346D02*
X0337790Y0059346D01*
X0330810Y0059346D02*
X0286920Y0059346D01*
X0281984Y0059346D02*
X0281616Y0059346D01*
X0281616Y0059600D02*
X0277883Y0059600D01*
X0277059Y0059469D01*
X0276266Y0059212D01*
X0275522Y0058833D01*
X0274847Y0058343D01*
X0274257Y0057753D01*
X0273767Y0057078D01*
X0273388Y0056334D01*
X0273130Y0055541D01*
X0273000Y0054717D01*
X0273000Y0054484D01*
X0281616Y0054484D01*
X0281616Y0059600D01*
X0281616Y0057748D02*
X0281984Y0057748D01*
X0281984Y0056149D02*
X0281616Y0056149D01*
X0281616Y0054551D02*
X0281984Y0054551D01*
X0289711Y0051354D02*
X0371177Y0051354D01*
X0367166Y0045256D02*
X0366606Y0045663D01*
X0365989Y0045978D01*
X0365330Y0046192D01*
X0364646Y0046300D01*
X0364300Y0046300D01*
X0364300Y0039300D01*
X0364300Y0039300D01*
X0368700Y0039300D01*
X0368700Y0042246D01*
X0368592Y0042930D01*
X0368378Y0043589D01*
X0368063Y0044206D01*
X0367656Y0044766D01*
X0367166Y0045256D01*
X0367463Y0044960D02*
X0381500Y0044960D01*
X0381500Y0046558D02*
X0357986Y0046558D01*
X0357642Y0046902D02*
X0359302Y0045242D01*
X0360119Y0043270D01*
X0360222Y0043589D01*
X0360537Y0044206D01*
X0360944Y0044766D01*
X0361434Y0045256D01*
X0361994Y0045663D01*
X0362611Y0045978D01*
X0363270Y0046192D01*
X0363954Y0046300D01*
X0364300Y0046300D01*
X0364300Y0039300D01*
X0364300Y0039300D01*
X0368700Y0039300D01*
X0368700Y0036354D01*
X0368592Y0035670D01*
X0368378Y0035011D01*
X0368063Y0034394D01*
X0367656Y0033834D01*
X0367166Y0033344D01*
X0366606Y0032937D01*
X0365989Y0032622D01*
X0365330Y0032408D01*
X0364646Y0032300D01*
X0364300Y0032300D01*
X0364300Y0039300D01*
X0364300Y0039300D01*
X0364300Y0032300D01*
X0363954Y0032300D01*
X0363270Y0032408D01*
X0362611Y0032622D01*
X0361994Y0032937D01*
X0361434Y0033344D01*
X0360944Y0033834D01*
X0360537Y0034394D01*
X0360222Y0035011D01*
X0360119Y0035330D01*
X0359302Y0033358D01*
X0357642Y0031698D01*
X0355474Y0030800D01*
X0353126Y0030800D01*
X0350958Y0031698D01*
X0349300Y0033356D01*
X0347642Y0031698D01*
X0345474Y0030800D01*
X0343126Y0030800D01*
X0340958Y0031698D01*
X0339298Y0033358D01*
X0338400Y0035526D01*
X0338400Y0043074D01*
X0339298Y0045242D01*
X0340958Y0046902D01*
X0343126Y0047800D01*
X0345474Y0047800D01*
X0347642Y0046902D01*
X0349300Y0045244D01*
X0350958Y0046902D01*
X0353126Y0047800D01*
X0355474Y0047800D01*
X0357642Y0046902D01*
X0359419Y0044960D02*
X0361137Y0044960D01*
X0360148Y0043361D02*
X0360081Y0043361D01*
X0364300Y0043361D02*
X0364300Y0043361D01*
X0364300Y0041763D02*
X0364300Y0041763D01*
X0364300Y0040164D02*
X0364300Y0040164D01*
X0364300Y0038566D02*
X0364300Y0038566D01*
X0364300Y0036967D02*
X0364300Y0036967D01*
X0364300Y0035369D02*
X0364300Y0035369D01*
X0364300Y0033770D02*
X0364300Y0033770D01*
X0367593Y0033770D02*
X0381500Y0033770D01*
X0381500Y0032172D02*
X0358116Y0032172D01*
X0359473Y0033770D02*
X0361007Y0033770D01*
X0368494Y0035369D02*
X0381500Y0035369D01*
X0381500Y0036967D02*
X0368700Y0036967D01*
X0368700Y0038566D02*
X0381500Y0038566D01*
X0381500Y0040164D02*
X0368700Y0040164D01*
X0368700Y0041763D02*
X0381500Y0041763D01*
X0381500Y0043361D02*
X0368452Y0043361D01*
X0364300Y0044960D02*
X0364300Y0044960D01*
X0350614Y0046558D02*
X0347986Y0046558D01*
X0340614Y0046558D02*
X0291725Y0046558D01*
X0292100Y0044960D02*
X0339181Y0044960D01*
X0338519Y0043361D02*
X0292100Y0043361D01*
X0291609Y0041763D02*
X0338400Y0041763D01*
X0338400Y0040164D02*
X0290781Y0040164D01*
X0291060Y0048157D02*
X0381500Y0048157D01*
X0381500Y0049755D02*
X0289461Y0049755D01*
X0274139Y0049755D02*
X0209461Y0049755D01*
X0209711Y0051354D02*
X0273889Y0051354D01*
X0273165Y0052952D02*
X0210435Y0052952D01*
X0210600Y0054484D02*
X0210600Y0054717D01*
X0210469Y0055541D01*
X0210212Y0056334D01*
X0209833Y0057078D01*
X0209343Y0057753D01*
X0208753Y0058343D01*
X0208078Y0058833D01*
X0207334Y0059212D01*
X0206541Y0059469D01*
X0205717Y0059600D01*
X0201984Y0059600D01*
X0201984Y0054484D01*
X0210600Y0054484D01*
X0210600Y0054551D02*
X0273000Y0054551D01*
X0273328Y0056149D02*
X0266178Y0056149D01*
X0267014Y0056496D02*
X0269604Y0059085D01*
X0271005Y0062469D01*
X0271005Y0066131D01*
X0269604Y0069514D01*
X0267014Y0072104D01*
X0263631Y0073505D01*
X0259969Y0073505D01*
X0256585Y0072104D01*
X0253996Y0069514D01*
X0252594Y0066131D01*
X0252594Y0062469D01*
X0253996Y0059085D01*
X0256585Y0056496D01*
X0259969Y0055094D01*
X0263631Y0055094D01*
X0267014Y0056496D01*
X0268266Y0057748D02*
X0274254Y0057748D01*
X0276680Y0059346D02*
X0269712Y0059346D01*
X0270374Y0060945D02*
X0329262Y0060945D01*
X0328600Y0062543D02*
X0271005Y0062543D01*
X0271005Y0064142D02*
X0328400Y0064142D01*
X0328400Y0065740D02*
X0271005Y0065740D01*
X0270505Y0067339D02*
X0328400Y0067339D01*
X0328400Y0068937D02*
X0269843Y0068937D01*
X0268583Y0070536D02*
X0328400Y0070536D01*
X0329047Y0072134D02*
X0266941Y0072134D01*
X0256659Y0072134D02*
X0186941Y0072134D01*
X0187014Y0072104D02*
X0183631Y0073505D01*
X0179969Y0073505D01*
X0176585Y0072104D01*
X0173996Y0069514D01*
X0172594Y0066131D01*
X0172594Y0062469D01*
X0173996Y0059085D01*
X0176585Y0056496D01*
X0179969Y0055094D01*
X0183631Y0055094D01*
X0187014Y0056496D01*
X0189604Y0059085D01*
X0191005Y0062469D01*
X0191005Y0066131D01*
X0189604Y0069514D01*
X0187014Y0072104D01*
X0188583Y0070536D02*
X0255017Y0070536D01*
X0253757Y0068937D02*
X0189843Y0068937D01*
X0190505Y0067339D02*
X0253095Y0067339D01*
X0252594Y0065740D02*
X0191005Y0065740D01*
X0191005Y0064142D02*
X0252594Y0064142D01*
X0252594Y0062543D02*
X0191005Y0062543D01*
X0190374Y0060945D02*
X0253226Y0060945D01*
X0253888Y0059346D02*
X0206920Y0059346D01*
X0209346Y0057748D02*
X0255334Y0057748D01*
X0257422Y0056149D02*
X0210272Y0056149D01*
X0201984Y0056149D02*
X0201616Y0056149D01*
X0201616Y0054551D02*
X0201984Y0054551D01*
X0201616Y0054484D02*
X0201616Y0059600D01*
X0197883Y0059600D01*
X0197059Y0059469D01*
X0196266Y0059212D01*
X0195522Y0058833D01*
X0194847Y0058343D01*
X0194257Y0057753D01*
X0193767Y0057078D01*
X0193388Y0056334D01*
X0193130Y0055541D01*
X0193000Y0054717D01*
X0193000Y0054484D01*
X0201616Y0054484D01*
X0201616Y0057748D02*
X0201984Y0057748D01*
X0201984Y0059346D02*
X0201616Y0059346D01*
X0196680Y0059346D02*
X0189712Y0059346D01*
X0188266Y0057748D02*
X0194254Y0057748D01*
X0193328Y0056149D02*
X0186178Y0056149D01*
X0193000Y0054551D02*
X0170100Y0054551D01*
X0170100Y0056149D02*
X0177422Y0056149D01*
X0175334Y0057748D02*
X0170100Y0057748D01*
X0170100Y0059346D02*
X0173888Y0059346D01*
X0173226Y0060945D02*
X0170100Y0060945D01*
X0170100Y0062543D02*
X0172594Y0062543D01*
X0172594Y0064142D02*
X0170100Y0064142D01*
X0170116Y0065740D02*
X0172594Y0065740D01*
X0173095Y0067339D02*
X0169899Y0067339D01*
X0169158Y0068937D02*
X0173757Y0068937D01*
X0175017Y0070536D02*
X0167752Y0070536D01*
X0166420Y0072134D02*
X0176659Y0072134D01*
X0165100Y0073733D02*
X0330289Y0073733D01*
X0272540Y0048157D02*
X0211060Y0048157D01*
X0211725Y0046558D02*
X0271875Y0046558D01*
X0271500Y0044960D02*
X0212100Y0044960D01*
X0212100Y0043361D02*
X0271500Y0043361D01*
X0271991Y0041763D02*
X0211609Y0041763D01*
X0210781Y0040164D02*
X0272819Y0040164D01*
X0252522Y0028975D02*
X0293772Y0028975D01*
X0293110Y0027376D02*
X0253184Y0027376D01*
X0253225Y0025778D02*
X0292594Y0025778D01*
X0292594Y0024179D02*
X0253165Y0024179D01*
X0252503Y0022581D02*
X0292594Y0022581D01*
X0293210Y0020982D02*
X0251483Y0020982D01*
X0249712Y0019384D02*
X0293872Y0019384D01*
X0295296Y0017785D02*
X0228304Y0017785D01*
X0229728Y0019384D02*
X0241888Y0019384D01*
X0240117Y0020982D02*
X0230390Y0020982D01*
X0231005Y0022581D02*
X0239097Y0022581D01*
X0238435Y0024179D02*
X0231005Y0024179D01*
X0231005Y0025778D02*
X0238375Y0025778D01*
X0238416Y0027376D02*
X0230490Y0027376D01*
X0229828Y0028975D02*
X0239078Y0028975D01*
X0226268Y0016187D02*
X0297332Y0016187D01*
X0309728Y0019384D02*
X0331721Y0019384D01*
X0330123Y0020982D02*
X0310390Y0020982D01*
X0311005Y0022581D02*
X0328524Y0022581D01*
X0326926Y0024179D02*
X0311005Y0024179D01*
X0311005Y0025778D02*
X0325327Y0025778D01*
X0323728Y0027376D02*
X0310490Y0027376D01*
X0309828Y0028975D02*
X0322130Y0028975D01*
X0332325Y0033770D02*
X0339127Y0033770D01*
X0338465Y0035369D02*
X0330727Y0035369D01*
X0329128Y0036967D02*
X0338400Y0036967D01*
X0338400Y0038566D02*
X0327530Y0038566D01*
X0333924Y0032172D02*
X0340484Y0032172D01*
X0335522Y0030573D02*
X0381500Y0030573D01*
X0350484Y0032172D02*
X0348116Y0032172D01*
X0392100Y0067339D02*
X0395594Y0067339D01*
X0418329Y0124885D02*
X0420271Y0124885D01*
X0428329Y0124885D02*
X0430271Y0124885D01*
X0438329Y0124885D02*
X0439591Y0124885D01*
X0356800Y0144300D02*
X0354300Y0141800D01*
X0354300Y0141402D01*
X0356800Y0151800D02*
X0354800Y0153800D01*
X0354800Y0154198D01*
X0319601Y0168045D02*
X0318999Y0168045D01*
X0319425Y0169644D02*
X0317058Y0169644D01*
X0319425Y0171242D02*
X0279175Y0171242D01*
X0279175Y0169644D02*
X0281542Y0169644D01*
X0279601Y0168045D02*
X0278999Y0168045D01*
X0279175Y0172841D02*
X0319425Y0172841D01*
X0319782Y0174439D02*
X0278818Y0174439D01*
X0277675Y0176038D02*
X0320925Y0176038D01*
X0320925Y0177636D02*
X0277675Y0177636D01*
X0277629Y0179235D02*
X0320971Y0179235D01*
X0324300Y0179235D02*
X0324300Y0179235D01*
X0324300Y0177636D02*
X0324300Y0177636D01*
X0327629Y0179235D02*
X0356381Y0179235D01*
X0353650Y0180833D02*
X0269950Y0180833D01*
X0270971Y0179235D02*
X0267219Y0179235D01*
X0271265Y0182432D02*
X0352335Y0182432D01*
X0351673Y0184030D02*
X0271927Y0184030D01*
X0272100Y0185629D02*
X0351500Y0185629D01*
X0351531Y0187227D02*
X0272069Y0187227D01*
X0271407Y0188826D02*
X0276996Y0188826D01*
X0275157Y0190424D02*
X0270292Y0190424D01*
X0253308Y0190424D02*
X0188443Y0190424D01*
X0186604Y0188826D02*
X0252193Y0188826D01*
X0274300Y0179235D02*
X0274300Y0179235D01*
X0274300Y0177636D02*
X0274300Y0177636D01*
X0269601Y0168045D02*
X0268999Y0168045D01*
X0287058Y0169644D02*
X0291542Y0169644D01*
X0289601Y0168045D02*
X0288999Y0168045D01*
X0297058Y0169644D02*
X0311542Y0169644D01*
X0309601Y0168045D02*
X0298999Y0168045D01*
X0299838Y0166447D02*
X0308762Y0166447D01*
X0308400Y0164848D02*
X0300200Y0164848D01*
X0300200Y0163250D02*
X0308400Y0163250D01*
X0308400Y0161651D02*
X0300200Y0161651D01*
X0300200Y0160053D02*
X0308400Y0160053D01*
X0308400Y0158454D02*
X0300200Y0158454D01*
X0286604Y0188826D02*
X0352193Y0188826D01*
X0353308Y0190424D02*
X0288443Y0190424D01*
X0370292Y0190424D02*
X0375157Y0190424D01*
X0376996Y0188826D02*
X0371407Y0188826D01*
X0176996Y0188826D02*
X0169653Y0188826D01*
X0167898Y0190424D02*
X0175157Y0190424D01*
X0161984Y0190424D02*
X0161616Y0190424D01*
X0161616Y0188826D02*
X0161984Y0188826D01*
X0161984Y0187227D02*
X0161616Y0187227D01*
X0161616Y0184030D02*
X0161984Y0184030D01*
X0161984Y0182432D02*
X0161616Y0182432D01*
X0161616Y0180833D02*
X0161984Y0180833D01*
X0060828Y0139272D02*
X0057772Y0139272D01*
X0074300Y0115294D02*
X0074300Y0115294D01*
X0074300Y0113696D02*
X0074300Y0113696D01*
X0058700Y0099309D02*
X0108400Y0099309D01*
X0108400Y0097711D02*
X0060206Y0097711D01*
X0060868Y0096112D02*
X0108400Y0096112D01*
X0108400Y0094514D02*
X0061100Y0094514D01*
X0061045Y0092915D02*
X0108446Y0092915D01*
X0109108Y0091317D02*
X0060383Y0091317D01*
X0059128Y0089718D02*
X0110438Y0089718D01*
X0118162Y0089718D02*
X0120438Y0089718D01*
X0128162Y0089718D02*
X0130438Y0089718D01*
X0138162Y0089718D02*
X0140438Y0089718D01*
X0140661Y0104105D02*
X0137939Y0104105D01*
X0138311Y0073733D02*
X0140289Y0073733D01*
X0148311Y0073733D02*
X0154238Y0073733D01*
X0152639Y0072134D02*
X0149553Y0072134D01*
X0158943Y0062543D02*
X0159500Y0062543D01*
X0159500Y0060945D02*
X0159175Y0060945D01*
X0159175Y0059346D02*
X0159500Y0059346D01*
X0159500Y0057748D02*
X0159175Y0057748D01*
X0159500Y0056149D02*
X0158513Y0056149D01*
X0157675Y0054551D02*
X0159500Y0054551D01*
X0159500Y0052952D02*
X0157675Y0052952D01*
X0157423Y0051354D02*
X0159500Y0051354D01*
X0159500Y0049755D02*
X0061100Y0049755D01*
X0061100Y0050553D02*
X0060141Y0052869D01*
X0058369Y0054641D01*
X0056053Y0055600D01*
X0047547Y0055600D01*
X0045231Y0054641D01*
X0043459Y0052869D01*
X0042500Y0050553D01*
X0042500Y0048047D01*
X0043459Y0045731D01*
X0045231Y0043959D01*
X0047547Y0043000D01*
X0056053Y0043000D01*
X0058369Y0043959D01*
X0060141Y0045731D01*
X0061100Y0048047D01*
X0061100Y0050553D01*
X0060768Y0051354D02*
X0151177Y0051354D01*
X0150925Y0052952D02*
X0060057Y0052952D01*
X0058459Y0054551D02*
X0150925Y0054551D01*
X0150087Y0056149D02*
X0006600Y0056149D01*
X0006600Y0054551D02*
X0045141Y0054551D01*
X0043543Y0052952D02*
X0006600Y0052952D01*
X0006600Y0051354D02*
X0042832Y0051354D01*
X0042500Y0049755D02*
X0006600Y0049755D01*
X0006600Y0048157D02*
X0042500Y0048157D01*
X0043117Y0046558D02*
X0006600Y0046558D01*
X0006600Y0044960D02*
X0044231Y0044960D01*
X0046675Y0043361D02*
X0006600Y0043361D01*
X0006600Y0041763D02*
X0118400Y0041763D01*
X0118400Y0043074D02*
X0118400Y0035526D01*
X0119298Y0033358D01*
X0120958Y0031698D01*
X0123126Y0030800D01*
X0125474Y0030800D01*
X0127642Y0031698D01*
X0129300Y0033356D01*
X0130958Y0031698D01*
X0133126Y0030800D01*
X0135474Y0030800D01*
X0137642Y0031698D01*
X0139302Y0033358D01*
X0140119Y0035330D01*
X0140222Y0035011D01*
X0140537Y0034394D01*
X0140944Y0033834D01*
X0141434Y0033344D01*
X0141994Y0032937D01*
X0142611Y0032622D01*
X0143270Y0032408D01*
X0143954Y0032300D01*
X0144300Y0032300D01*
X0144646Y0032300D01*
X0145330Y0032408D01*
X0145989Y0032622D01*
X0146606Y0032937D01*
X0147166Y0033344D01*
X0147656Y0033834D01*
X0148063Y0034394D01*
X0148378Y0035011D01*
X0148592Y0035670D01*
X0148700Y0036354D01*
X0148700Y0039300D01*
X0148700Y0042246D01*
X0148592Y0042930D01*
X0148378Y0043589D01*
X0148063Y0044206D01*
X0147656Y0044766D01*
X0147166Y0045256D01*
X0146606Y0045663D01*
X0145989Y0045978D01*
X0145330Y0046192D01*
X0144646Y0046300D01*
X0144300Y0046300D01*
X0144300Y0039300D01*
X0144300Y0039300D01*
X0148700Y0039300D01*
X0144300Y0039300D01*
X0144300Y0039300D01*
X0144300Y0046300D01*
X0143954Y0046300D01*
X0143270Y0046192D01*
X0142611Y0045978D01*
X0141994Y0045663D01*
X0141434Y0045256D01*
X0140944Y0044766D01*
X0140537Y0044206D01*
X0140222Y0043589D01*
X0140119Y0043270D01*
X0139302Y0045242D01*
X0137642Y0046902D01*
X0135474Y0047800D01*
X0133126Y0047800D01*
X0130958Y0046902D01*
X0129300Y0045244D01*
X0127642Y0046902D01*
X0125474Y0047800D01*
X0123126Y0047800D01*
X0120958Y0046902D01*
X0119298Y0045242D01*
X0118400Y0043074D01*
X0118519Y0043361D02*
X0056925Y0043361D01*
X0059369Y0044960D02*
X0119181Y0044960D01*
X0120614Y0046558D02*
X0060483Y0046558D01*
X0061100Y0048157D02*
X0159500Y0048157D01*
X0159500Y0046558D02*
X0137986Y0046558D01*
X0139419Y0044960D02*
X0141137Y0044960D01*
X0140148Y0043361D02*
X0140081Y0043361D01*
X0144300Y0043361D02*
X0144300Y0043361D01*
X0144300Y0041763D02*
X0144300Y0041763D01*
X0144300Y0040164D02*
X0144300Y0040164D01*
X0144300Y0039300D02*
X0144300Y0032300D01*
X0144300Y0039300D01*
X0144300Y0039300D01*
X0144300Y0038566D02*
X0144300Y0038566D01*
X0144300Y0036967D02*
X0144300Y0036967D01*
X0144300Y0035369D02*
X0144300Y0035369D01*
X0144300Y0033770D02*
X0144300Y0033770D01*
X0147593Y0033770D02*
X0159500Y0033770D01*
X0159500Y0032172D02*
X0138116Y0032172D01*
X0139473Y0033770D02*
X0141007Y0033770D01*
X0148494Y0035369D02*
X0159500Y0035369D01*
X0159500Y0036967D02*
X0148700Y0036967D01*
X0148700Y0038566D02*
X0159500Y0038566D01*
X0159500Y0040164D02*
X0148700Y0040164D01*
X0148700Y0041763D02*
X0159500Y0041763D01*
X0159500Y0043361D02*
X0148452Y0043361D01*
X0147463Y0044960D02*
X0159500Y0044960D01*
X0154300Y0051354D02*
X0154300Y0051354D01*
X0154300Y0052952D02*
X0154300Y0052952D01*
X0149425Y0057748D02*
X0006600Y0057748D01*
X0006600Y0059346D02*
X0110810Y0059346D01*
X0109262Y0060945D02*
X0058233Y0060945D01*
X0006600Y0040164D02*
X0118400Y0040164D01*
X0118400Y0038566D02*
X0006600Y0038566D01*
X0006600Y0036967D02*
X0118400Y0036967D01*
X0118465Y0035369D02*
X0006600Y0035369D01*
X0006600Y0033770D02*
X0119127Y0033770D01*
X0120484Y0032172D02*
X0006600Y0032172D01*
X0006600Y0030573D02*
X0159500Y0030573D01*
X0159500Y0028975D02*
X0006600Y0028975D01*
X0006600Y0027376D02*
X0012611Y0027376D01*
X0009797Y0025778D02*
X0006600Y0025778D01*
X0006600Y0024179D02*
X0008199Y0024179D01*
X0007089Y0022581D02*
X0006600Y0022581D01*
X0020989Y0027376D02*
X0159653Y0027376D01*
X0160327Y0025778D02*
X0023803Y0025778D01*
X0025401Y0024179D02*
X0161926Y0024179D01*
X0161798Y0024307D02*
X0161798Y0024307D01*
X0163524Y0022581D02*
X0026511Y0022581D01*
X0027378Y0020982D02*
X0165123Y0020982D01*
X0166721Y0019384D02*
X0027806Y0019384D01*
X0028100Y0017785D02*
X0168320Y0017785D01*
X0173719Y0027376D02*
X0193881Y0027376D01*
X0195479Y0028975D02*
X0172121Y0028975D01*
X0170522Y0030573D02*
X0197078Y0030573D01*
X0198676Y0032172D02*
X0170100Y0032172D01*
X0170100Y0033770D02*
X0200275Y0033770D01*
X0201873Y0035369D02*
X0170100Y0035369D01*
X0170100Y0036967D02*
X0203472Y0036967D01*
X0194418Y0038566D02*
X0170100Y0038566D01*
X0170100Y0040164D02*
X0192819Y0040164D01*
X0191991Y0041763D02*
X0170100Y0041763D01*
X0170100Y0043361D02*
X0191500Y0043361D01*
X0191500Y0044960D02*
X0170100Y0044960D01*
X0170100Y0046558D02*
X0191875Y0046558D01*
X0192540Y0048157D02*
X0170100Y0048157D01*
X0170100Y0049755D02*
X0194139Y0049755D01*
X0193889Y0051354D02*
X0170100Y0051354D01*
X0170100Y0052952D02*
X0193165Y0052952D01*
X0210470Y0028975D02*
X0213772Y0028975D01*
X0213110Y0027376D02*
X0208872Y0027376D01*
X0207273Y0025778D02*
X0212594Y0025778D01*
X0212594Y0024179D02*
X0205674Y0024179D01*
X0204076Y0022581D02*
X0212594Y0022581D01*
X0213210Y0020982D02*
X0202477Y0020982D01*
X0200879Y0019384D02*
X0213872Y0019384D01*
X0215296Y0017785D02*
X0199280Y0017785D01*
X0217332Y0016187D02*
X0028100Y0016187D01*
X0117790Y0059346D02*
X0120810Y0059346D01*
X0127790Y0059346D02*
X0130810Y0059346D01*
X0137790Y0059346D02*
X0140810Y0059346D01*
X0147790Y0059346D02*
X0149425Y0059346D01*
X0149425Y0060945D02*
X0149338Y0060945D01*
X0130289Y0073733D02*
X0128311Y0073733D01*
X0120289Y0073733D02*
X0118311Y0073733D01*
X0127986Y0046558D02*
X0130614Y0046558D01*
X0144300Y0044960D02*
X0144300Y0044960D01*
X0130484Y0032172D02*
X0128116Y0032172D01*
D19*
X0164800Y0028800D02*
X0171800Y0021800D01*
X0195800Y0021800D01*
X0208800Y0034800D01*
X0245800Y0034800D01*
X0245800Y0025800D01*
X0245800Y0034800D02*
X0323800Y0034800D01*
X0334800Y0023800D01*
X0383800Y0023800D01*
X0386800Y0026800D01*
X0386800Y0071800D01*
X0387800Y0072800D01*
X0405824Y0072800D01*
X0394300Y0084300D02*
X0394300Y0119300D01*
X0394300Y0131800D01*
X0394300Y0139300D01*
X0389300Y0144300D01*
X0441800Y0144300D01*
X0444300Y0141800D01*
X0444300Y0131800D01*
X0421800Y0151800D02*
X0371800Y0151800D01*
X0356800Y0151800D01*
X0321800Y0151800D01*
X0324300Y0154300D01*
X0324300Y0161800D01*
X0321800Y0151800D02*
X0276800Y0151800D01*
X0274300Y0154300D01*
X0274300Y0161800D01*
X0294300Y0139300D02*
X0299300Y0144300D01*
X0339300Y0144300D01*
X0356800Y0144300D01*
X0389300Y0144300D01*
X0374300Y0154300D02*
X0371800Y0151800D01*
X0374300Y0154300D02*
X0374300Y0161800D01*
X0344300Y0139300D02*
X0339300Y0144300D01*
X0344300Y0139300D02*
X0344300Y0131800D01*
X0294300Y0131800D02*
X0294300Y0139300D01*
X0254824Y0117776D02*
X0248800Y0123800D01*
X0248800Y0126800D01*
X0254824Y0117776D02*
X0254824Y0104800D01*
X0255800Y0103824D01*
X0255800Y0103800D01*
X0254800Y0104800D01*
X0224300Y0131800D02*
X0224300Y0141800D01*
X0221800Y0144300D01*
X0169300Y0144300D01*
X0136800Y0144300D01*
X0119300Y0144300D01*
X0124300Y0139300D01*
X0124300Y0131800D01*
X0119300Y0144300D02*
X0079300Y0144300D01*
X0074300Y0139300D01*
X0074300Y0131800D01*
X0056800Y0151800D02*
X0101800Y0151800D01*
X0131800Y0151800D01*
X0151800Y0151800D01*
X0201800Y0151800D01*
X0204300Y0154300D01*
X0204300Y0161800D01*
X0174300Y0139300D02*
X0169300Y0144300D01*
X0174300Y0139300D02*
X0174300Y0131800D01*
X0174300Y0119300D01*
X0174800Y0118800D02*
X0176800Y0119300D01*
X0174800Y0118800D02*
X0174800Y0112800D01*
X0159800Y0097800D01*
X0159800Y0071800D01*
X0164800Y0065800D01*
X0164800Y0028800D01*
X0154800Y0066800D02*
X0154300Y0066800D01*
X0144300Y0066800D01*
X0154800Y0066800D02*
X0159800Y0071800D01*
X0151800Y0151800D02*
X0154300Y0154300D01*
X0154300Y0161800D01*
X0104300Y0161800D02*
X0104300Y0154300D01*
X0101800Y0151800D01*
X0056800Y0151800D02*
X0054300Y0154300D01*
X0054300Y0161800D01*
X0364300Y0066800D02*
X0374300Y0066800D01*
X0376800Y0066800D01*
X0386800Y0076800D01*
X0386800Y0071800D01*
X0386800Y0076800D02*
X0394300Y0084300D01*
X0421800Y0151800D02*
X0424300Y0154300D01*
X0424300Y0161800D01*
D20*
X0424300Y0171347D01*
X0374300Y0171347D02*
X0374300Y0161800D01*
X0324300Y0161800D02*
X0324300Y0171347D01*
X0274300Y0171347D02*
X0274300Y0161800D01*
X0294300Y0131800D02*
X0294300Y0122253D01*
X0344300Y0122753D02*
X0344300Y0131800D01*
X0344300Y0104847D02*
X0344300Y0096800D01*
X0394300Y0119300D02*
X0401347Y0119300D01*
X0444300Y0122253D02*
X0444300Y0131800D01*
X0374300Y0066800D02*
X0374300Y0059753D01*
X0224300Y0122253D02*
X0224300Y0131800D01*
X0179847Y0119300D02*
X0176800Y0119300D01*
X0174300Y0119300D01*
X0124300Y0122753D02*
X0124300Y0131800D01*
X0124300Y0105347D02*
X0124300Y0096800D01*
X0074300Y0122253D02*
X0074300Y0131800D01*
X0054300Y0161800D02*
X0054300Y0171347D01*
X0104300Y0171347D02*
X0104300Y0161800D01*
X0154300Y0161800D02*
X0154300Y0171347D01*
X0204300Y0171347D02*
X0204300Y0161800D01*
X0154300Y0066800D02*
X0154300Y0059753D01*
D21*
X0245800Y0025800D03*
X0248800Y0126800D03*
M02*
