%
M48
M72
T01C0.03100
T02C0.03200
T03C0.03937
T04C0.04000
T05C0.05500
T06C0.07874
T07C0.13000
%
T01
X149300Y51800
X54300Y111800
X94300Y119300
X144300Y119300
X194300Y119300
X281300Y112800
X318300Y117300
X366300Y117300
X414300Y119300
X449300Y71800
X369300Y51800
T02
X364300Y39300
X354300Y39300
X344300Y39300
X344300Y66800
X334300Y66800
X354300Y66800
X364300Y66800
X364300Y96800
X354300Y96800
X344300Y96800
X334300Y96800
X334300Y131800
X324300Y131800
X314300Y131800
X294300Y131800
X284300Y131800
X274300Y131800
X264300Y131800
X224300Y131800
X214300Y131800
X204300Y131800
X194300Y131800
X174300Y131800
X164300Y131800
X154300Y131800
X144300Y131800
X124300Y131800
X114300Y131800
X104300Y131800
X94300Y131800
X74300Y131800
X64300Y131800
X54300Y131800
X44300Y131800
X44300Y161800
X54300Y161800
X64300Y161800
X74300Y161800
X94300Y161800
X104300Y161800
X114300Y161800
X124300Y161800
X144300Y161800
X154300Y161800
X164300Y161800
X174300Y161800
X194300Y161800
X204300Y161800
X214300Y161800
X224300Y161800
X264300Y161800
X274300Y161800
X284300Y161800
X294300Y161800
X314300Y161800
X324300Y161800
X334300Y161800
X344300Y161800
X364300Y161800
X374300Y161800
X384300Y161800
X394300Y161800
X414300Y161800
X424300Y161800
X434300Y161800
X444300Y161800
X444300Y131800
X434300Y131800
X424300Y131800
X414300Y131800
X394300Y131800
X384300Y131800
X374300Y131800
X364300Y131800
X344300Y131800
X144300Y96800
X134300Y96800
X124300Y96800
X114300Y96800
X114300Y66800
X124300Y66800
X134300Y66800
X144300Y66800
X144300Y39300
X134300Y39300
X124300Y39300
T03
X201800Y44300
X201800Y54300
X281800Y54300
X281800Y44300
X261800Y185800
X261800Y216800
X361800Y216800
X361800Y185800
X161800Y185800
X161800Y216800
X61800Y216800
X61800Y185800
T04
X51800Y94300
X51800Y79300
X51800Y64300
X51800Y49300
T05
X245800Y25800
X248800Y126800
T06
X261800Y64300
X221800Y24300
X181800Y64300
X301800Y24300
X281800Y196800
X241800Y236800
X181800Y196800
X141800Y236800
X81800Y196800
X41800Y236800
X341800Y236800
X381800Y196800
T07
X16800Y16800
X16800Y251800
X466800Y251800
X466800Y16800
M30
